%TF.GenerationSoftware,KiCad,Pcbnew,7.0.6*%
%TF.CreationDate,2023-09-12T11:18:15+08:00*%
%TF.ProjectId,kbv2,6b627632-2e6b-4696-9361-645f70636258,rev?*%
%TF.SameCoordinates,Original*%
%TF.FileFunction,Drillmap*%
%TF.FilePolarity,Positive*%
%FSLAX45Y45*%
G04 Gerber Fmt 4.5, Leading zero omitted, Abs format (unit mm)*
G04 Created by KiCad (PCBNEW 7.0.6) date 2023-09-12 11:18:15*
%MOMM*%
%LPD*%
G01*
G04 APERTURE LIST*
%ADD10C,0.100000*%
%ADD11C,0.200000*%
%ADD12C,0.040000*%
%ADD13C,0.060000*%
%ADD14C,0.101600*%
%ADD15C,0.150000*%
G04 APERTURE END LIST*
D10*
X12519375Y-10418438D02*
X12519375Y-10894688D01*
X7201250Y-6052812D02*
X10614375Y-6052812D01*
X14821250Y-6052812D02*
X20456875Y-6052812D01*
X12519375Y-5576563D02*
X12916250Y-5576563D01*
X10614375Y-10894688D02*
X10614375Y-11370937D01*
X12916250Y-5100313D02*
X14424375Y-5100313D01*
X14821250Y-10418438D02*
X14424375Y-10418438D01*
X20456875Y-10934375D02*
X19663125Y-11767812D01*
X19663125Y-11767812D02*
X19663125Y-13275937D01*
X14821250Y-11767812D02*
X14821250Y-10418438D01*
X12916250Y-10418438D02*
X12519375Y-10418438D01*
X9106250Y-11370937D02*
X7201250Y-11370937D01*
X12916250Y-5576563D02*
X12916250Y-5100313D01*
X7201250Y-11370937D02*
X7201250Y-6052812D01*
X20456875Y-6052812D02*
X20456875Y-10934375D01*
X11011250Y-5576563D02*
X12519375Y-5576563D01*
X14345000Y-13275937D02*
X14345000Y-11767812D01*
X14424375Y-10418438D02*
X12916250Y-10418438D01*
X10614375Y-6052812D02*
X11011250Y-6052812D01*
X14424375Y-5100313D02*
X14424375Y-6052812D01*
X11011250Y-10894688D02*
X10614375Y-10894688D01*
X14345000Y-11767812D02*
X14821250Y-11767812D01*
X10614375Y-11370937D02*
X9106250Y-11370937D01*
X14424375Y-6052812D02*
X14821250Y-6052812D01*
X19663125Y-13275937D02*
X14345000Y-13275937D01*
X12519375Y-10894688D02*
X11011250Y-10894688D01*
X11011250Y-6052812D02*
X11011250Y-5576563D01*
D11*
D12*
X7745312Y-6271875D02*
X7785312Y-6311875D01*
X7785312Y-6271875D02*
X7745312Y-6311875D01*
X7745312Y-8176875D02*
X7785312Y-8216875D01*
X7785312Y-8176875D02*
X7745312Y-8216875D01*
X7745312Y-10081875D02*
X7785312Y-10121875D01*
X7785312Y-10081875D02*
X7745312Y-10121875D01*
X8075312Y-6271875D02*
X8115312Y-6311875D01*
X8115312Y-6271875D02*
X8075312Y-6311875D01*
X8075312Y-8176875D02*
X8115312Y-8216875D01*
X8115312Y-8176875D02*
X8075312Y-8216875D01*
X8075312Y-10081875D02*
X8115312Y-10121875D01*
X8115312Y-10081875D02*
X8075312Y-10121875D01*
X9650313Y-6271875D02*
X9690313Y-6311875D01*
X9690313Y-6271875D02*
X9650313Y-6311875D01*
X9650313Y-8176875D02*
X9690313Y-8216875D01*
X9690313Y-8176875D02*
X9650313Y-8216875D01*
X9650313Y-10081875D02*
X9690313Y-10121875D01*
X9690313Y-10081875D02*
X9650313Y-10121875D01*
X9980313Y-6271875D02*
X10020313Y-6311875D01*
X10020313Y-6271875D02*
X9980313Y-6311875D01*
X9980313Y-8176875D02*
X10020313Y-8216875D01*
X10020313Y-8176875D02*
X9980313Y-8216875D01*
X9980313Y-10081875D02*
X10020313Y-10121875D01*
X10020313Y-10081875D02*
X9980313Y-10121875D01*
X10170000Y-7880000D02*
X10210000Y-7920000D01*
X10210000Y-7880000D02*
X10170000Y-7920000D01*
X10960000Y-7870000D02*
X11000000Y-7910000D01*
X11000000Y-7870000D02*
X10960000Y-7910000D01*
X11270000Y-8250000D02*
X11310000Y-8290000D01*
X11310000Y-8250000D02*
X11270000Y-8290000D01*
X11390000Y-9300000D02*
X11430000Y-9340000D01*
X11430000Y-9300000D02*
X11390000Y-9340000D01*
X11555312Y-5795625D02*
X11595312Y-5835625D01*
X11595312Y-5795625D02*
X11555312Y-5835625D01*
X11555312Y-9605625D02*
X11595312Y-9645625D01*
X11595312Y-9605625D02*
X11555312Y-9645625D01*
X11885312Y-5795625D02*
X11925312Y-5835625D01*
X11925312Y-5795625D02*
X11885312Y-5835625D01*
X11885312Y-7700625D02*
X11925312Y-7740625D01*
X11925312Y-7700625D02*
X11885312Y-7740625D01*
X11885312Y-9605625D02*
X11925312Y-9645625D01*
X11925312Y-9605625D02*
X11885312Y-9645625D01*
X12100000Y-8480000D02*
X12140000Y-8520000D01*
X12140000Y-8480000D02*
X12100000Y-8520000D01*
X12362500Y-9306563D02*
X12402500Y-9346563D01*
X12402500Y-9306563D02*
X12362500Y-9346563D01*
X13330000Y-8820000D02*
X13370000Y-8860000D01*
X13370000Y-8820000D02*
X13330000Y-8860000D01*
X13460312Y-5319375D02*
X13500312Y-5359375D01*
X13500312Y-5319375D02*
X13460312Y-5359375D01*
X13460312Y-7224375D02*
X13500312Y-7264375D01*
X13500312Y-7224375D02*
X13460312Y-7264375D01*
X13460312Y-9129375D02*
X13500312Y-9169375D01*
X13500312Y-9129375D02*
X13460312Y-9169375D01*
X13790312Y-5319375D02*
X13830312Y-5359375D01*
X13830312Y-5319375D02*
X13790312Y-5359375D01*
X13790312Y-7224375D02*
X13830312Y-7264375D01*
X13830312Y-7224375D02*
X13790312Y-7264375D01*
X13790312Y-9129375D02*
X13830312Y-9169375D01*
X13830312Y-9129375D02*
X13790312Y-9169375D01*
X14069062Y-8830313D02*
X14109062Y-8870313D01*
X14109062Y-8830313D02*
X14069062Y-8870313D01*
X14200000Y-7380000D02*
X14240000Y-7420000D01*
X14240000Y-7380000D02*
X14200000Y-7420000D01*
X14664375Y-10259063D02*
X14704375Y-10299063D01*
X14704375Y-10259063D02*
X14664375Y-10299063D01*
X14889062Y-11986875D02*
X14929062Y-12026875D01*
X14929062Y-11986875D02*
X14889062Y-12026875D01*
X15219062Y-11986875D02*
X15259062Y-12026875D01*
X15259062Y-11986875D02*
X15219062Y-12026875D01*
X15365312Y-6271875D02*
X15405312Y-6311875D01*
X15405312Y-6271875D02*
X15365312Y-6311875D01*
X15365312Y-8176875D02*
X15405312Y-8216875D01*
X15405312Y-8176875D02*
X15365312Y-8216875D01*
X15365312Y-10081875D02*
X15405312Y-10121875D01*
X15405312Y-10081875D02*
X15365312Y-10121875D01*
X15450000Y-11540000D02*
X15490000Y-11580000D01*
X15490000Y-11540000D02*
X15450000Y-11580000D01*
X15695312Y-6271875D02*
X15735312Y-6311875D01*
X15735312Y-6271875D02*
X15695312Y-6311875D01*
X15695312Y-8176875D02*
X15735312Y-8216875D01*
X15735312Y-8176875D02*
X15695312Y-8216875D01*
X15695312Y-10081875D02*
X15735312Y-10121875D01*
X15735312Y-10081875D02*
X15695312Y-10121875D01*
X16240000Y-10790000D02*
X16280000Y-10830000D01*
X16280000Y-10790000D02*
X16240000Y-10830000D01*
X16280000Y-8920000D02*
X16320000Y-8960000D01*
X16320000Y-8920000D02*
X16280000Y-8960000D01*
X16558125Y-11529062D02*
X16598125Y-11569062D01*
X16598125Y-11529062D02*
X16558125Y-11569062D01*
X16600000Y-9190000D02*
X16640000Y-9230000D01*
X16640000Y-9190000D02*
X16600000Y-9230000D01*
X16660000Y-11190000D02*
X16700000Y-11230000D01*
X16700000Y-11190000D02*
X16660000Y-11230000D01*
X16794063Y-11986875D02*
X16834063Y-12026875D01*
X16834063Y-11986875D02*
X16794063Y-12026875D01*
X16840000Y-9020000D02*
X16880000Y-9060000D01*
X16880000Y-9020000D02*
X16840000Y-9060000D01*
X16890000Y-9810000D02*
X16930000Y-9850000D01*
X16930000Y-9810000D02*
X16890000Y-9850000D01*
X17124063Y-11986875D02*
X17164063Y-12026875D01*
X17164063Y-11986875D02*
X17124063Y-12026875D01*
X17270313Y-6271875D02*
X17310313Y-6311875D01*
X17310313Y-6271875D02*
X17270313Y-6311875D01*
X17270313Y-8176875D02*
X17310313Y-8216875D01*
X17310313Y-8176875D02*
X17270313Y-8216875D01*
X17270313Y-10081875D02*
X17310313Y-10121875D01*
X17310313Y-10081875D02*
X17270313Y-10121875D01*
X17530000Y-12720000D02*
X17570000Y-12760000D01*
X17570000Y-12720000D02*
X17530000Y-12760000D01*
X17600313Y-6271875D02*
X17640313Y-6311875D01*
X17640313Y-6271875D02*
X17600313Y-6311875D01*
X17600313Y-8176875D02*
X17640313Y-8216875D01*
X17640313Y-8176875D02*
X17600313Y-8216875D01*
X17600313Y-10081875D02*
X17640313Y-10121875D01*
X17640313Y-10081875D02*
X17600313Y-10121875D01*
X17990000Y-7470000D02*
X18030000Y-7510000D01*
X18030000Y-7470000D02*
X17990000Y-7510000D01*
X18080000Y-6530000D02*
X18120000Y-6570000D01*
X18120000Y-6530000D02*
X18080000Y-6570000D01*
X18142450Y-7360000D02*
X18182450Y-7400000D01*
X18182450Y-7360000D02*
X18142450Y-7400000D01*
X18150000Y-6760000D02*
X18190000Y-6800000D01*
X18190000Y-6760000D02*
X18150000Y-6800000D01*
X18198594Y-12721406D02*
X18238594Y-12761406D01*
X18238594Y-12721406D02*
X18198594Y-12761406D01*
X18220000Y-7970000D02*
X18260000Y-8010000D01*
X18260000Y-7970000D02*
X18220000Y-8010000D01*
X18240000Y-8120000D02*
X18280000Y-8160000D01*
X18280000Y-8120000D02*
X18240000Y-8160000D01*
X18290000Y-9620000D02*
X18330000Y-9660000D01*
X18330000Y-9620000D02*
X18290000Y-9660000D01*
X18380000Y-6580000D02*
X18420000Y-6620000D01*
X18420000Y-6580000D02*
X18380000Y-6620000D01*
X18387043Y-6850373D02*
X18427043Y-6890373D01*
X18427043Y-6850373D02*
X18387043Y-6890373D01*
X18699063Y-11986875D02*
X18739063Y-12026875D01*
X18739063Y-11986875D02*
X18699063Y-12026875D01*
X18831563Y-7775175D02*
X18871563Y-7815175D01*
X18871563Y-7775175D02*
X18831563Y-7815175D01*
X19029063Y-11986875D02*
X19069063Y-12026875D01*
X19069063Y-11986875D02*
X19029063Y-12026875D01*
X19069688Y-7412075D02*
X19109688Y-7452075D01*
X19109688Y-7412075D02*
X19069688Y-7452075D01*
X19069688Y-7520625D02*
X19109688Y-7560625D01*
X19109688Y-7520625D02*
X19069688Y-7560625D01*
X19270000Y-11980000D02*
X19310000Y-12020000D01*
X19310000Y-11980000D02*
X19270000Y-12020000D01*
X19492813Y-8485625D02*
X19532813Y-8525625D01*
X19532813Y-8485625D02*
X19492813Y-8525625D01*
X19492813Y-10735625D02*
X19532813Y-10775625D01*
X19532813Y-10735625D02*
X19492813Y-10775625D01*
X19540000Y-6740000D02*
X19580000Y-6780000D01*
X19580000Y-6740000D02*
X19540000Y-6780000D01*
X19620000Y-8140000D02*
X19660000Y-8180000D01*
X19660000Y-8140000D02*
X19620000Y-8180000D01*
X19830000Y-7770000D02*
X19870000Y-7810000D01*
X19870000Y-7770000D02*
X19830000Y-7810000D01*
X19942813Y-6568125D02*
X19982813Y-6608125D01*
X19982813Y-6568125D02*
X19942813Y-6608125D01*
X19982500Y-6330000D02*
X20022500Y-6370000D01*
X20022500Y-6330000D02*
X19982500Y-6370000D01*
X19982500Y-7163437D02*
X20022500Y-7203437D01*
X20022500Y-7163437D02*
X19982500Y-7203437D01*
X19982500Y-7322187D02*
X20022500Y-7362187D01*
X20022500Y-7322187D02*
X19982500Y-7362187D01*
X19982500Y-7600000D02*
X20022500Y-7640000D01*
X20022500Y-7600000D02*
X19982500Y-7640000D01*
X19982500Y-7758750D02*
X20022500Y-7798750D01*
X20022500Y-7758750D02*
X19982500Y-7798750D01*
X19982500Y-7861210D02*
X20022500Y-7901210D01*
X20022500Y-7861210D02*
X19982500Y-7901210D01*
X20230000Y-8410000D02*
X20270000Y-8450000D01*
X20270000Y-8410000D02*
X20230000Y-8450000D01*
X20236230Y-10996230D02*
X20276230Y-11036230D01*
X20276230Y-10996230D02*
X20236230Y-11036230D01*
D13*
X18817813Y-8505625D02*
G75*
G03*
X18817813Y-8505625I-30000J0D01*
G01*
X18942813Y-8505625D02*
G75*
G03*
X18942813Y-8505625I-30000J0D01*
G01*
D14*
X18841313Y-7975625D02*
X18841313Y-8077225D01*
X18790513Y-8026425D02*
X18892113Y-8026425D01*
X18968313Y-6832625D02*
X18968313Y-6934225D01*
X18917513Y-6883425D02*
X19019113Y-6883425D01*
X18968313Y-7023125D02*
X18968313Y-7124725D01*
X18917513Y-7073925D02*
X19019113Y-7073925D01*
X19031813Y-7975625D02*
X19031813Y-8077225D01*
X18981013Y-8026425D02*
X19082613Y-8026425D01*
X19285813Y-6197625D02*
X19285813Y-6299225D01*
X19235013Y-6248425D02*
X19336613Y-6248425D01*
X19285813Y-6451625D02*
X19285813Y-6553225D01*
X19235013Y-6502425D02*
X19336613Y-6502425D01*
X19539813Y-6197625D02*
X19539813Y-6299225D01*
X19489013Y-6248425D02*
X19590613Y-6248425D01*
X19539813Y-6451625D02*
X19539813Y-6553225D01*
X19489013Y-6502425D02*
X19590613Y-6502425D01*
X19793813Y-7975625D02*
X19793813Y-8077225D01*
X19743013Y-8026425D02*
X19844613Y-8026425D01*
X19857313Y-6832625D02*
X19857313Y-6934225D01*
X19806513Y-6883425D02*
X19908113Y-6883425D01*
X19857313Y-7023125D02*
X19857313Y-7124725D01*
X19806513Y-7073925D02*
X19908113Y-7073925D01*
X19984313Y-7975625D02*
X19984313Y-8077225D01*
X19933513Y-8026425D02*
X20035113Y-8026425D01*
D15*
X7568346Y-7329908D02*
X7568346Y-7223841D01*
X7462279Y-7223841D01*
X7462279Y-7329908D01*
X7568346Y-7329908D01*
X7568346Y-9234909D02*
X7568346Y-9128842D01*
X7462279Y-9128842D01*
X7462279Y-9234909D01*
X7568346Y-9234909D01*
X7568346Y-11139909D02*
X7568346Y-11033842D01*
X7462279Y-11033842D01*
X7462279Y-11139909D01*
X7568346Y-11139909D01*
X7748346Y-7434908D02*
X7748346Y-7328841D01*
X7642279Y-7328841D01*
X7642279Y-7434908D01*
X7748346Y-7434908D01*
X7748346Y-9339909D02*
X7748346Y-9233842D01*
X7642279Y-9233842D01*
X7642279Y-9339909D01*
X7748346Y-9339909D01*
X7748346Y-11244908D02*
X7748346Y-11138842D01*
X7642279Y-11138842D01*
X7642279Y-11244908D01*
X7748346Y-11244908D01*
X8268346Y-7434908D02*
X8268346Y-7328841D01*
X8162279Y-7328841D01*
X8162279Y-7434908D01*
X8268346Y-7434908D01*
X8268346Y-9339909D02*
X8268346Y-9233842D01*
X8162279Y-9233842D01*
X8162279Y-9339909D01*
X8268346Y-9339909D01*
X8268346Y-11244908D02*
X8268346Y-11138842D01*
X8162279Y-11138842D01*
X8162279Y-11244908D01*
X8268346Y-11244908D01*
X8448346Y-7329908D02*
X8448346Y-7223841D01*
X8342279Y-7223841D01*
X8342279Y-7329908D01*
X8448346Y-7329908D01*
X8448346Y-9234909D02*
X8448346Y-9128842D01*
X8342279Y-9128842D01*
X8342279Y-9234909D01*
X8448346Y-9234909D01*
X8448346Y-11139909D02*
X8448346Y-11033842D01*
X8342279Y-11033842D01*
X8342279Y-11139909D01*
X8448346Y-11139909D01*
X9473346Y-7329908D02*
X9473346Y-7223841D01*
X9367279Y-7223841D01*
X9367279Y-7329908D01*
X9473346Y-7329908D01*
X9473346Y-9234909D02*
X9473346Y-9128842D01*
X9367279Y-9128842D01*
X9367279Y-9234909D01*
X9473346Y-9234909D01*
X9473346Y-11139909D02*
X9473346Y-11033842D01*
X9367279Y-11033842D01*
X9367279Y-11139909D01*
X9473346Y-11139909D01*
X9653346Y-7434908D02*
X9653346Y-7328841D01*
X9547279Y-7328841D01*
X9547279Y-7434908D01*
X9653346Y-7434908D01*
X9653346Y-9339909D02*
X9653346Y-9233842D01*
X9547279Y-9233842D01*
X9547279Y-9339909D01*
X9653346Y-9339909D01*
X9653346Y-11244908D02*
X9653346Y-11138842D01*
X9547279Y-11138842D01*
X9547279Y-11244908D01*
X9653346Y-11244908D01*
X10173346Y-7434908D02*
X10173346Y-7328841D01*
X10067279Y-7328841D01*
X10067279Y-7434908D01*
X10173346Y-7434908D01*
X10173346Y-9339909D02*
X10173346Y-9233842D01*
X10067279Y-9233842D01*
X10067279Y-9339909D01*
X10173346Y-9339909D01*
X10173346Y-11244908D02*
X10173346Y-11138842D01*
X10067279Y-11138842D01*
X10067279Y-11244908D01*
X10173346Y-11244908D01*
X10353346Y-7329908D02*
X10353346Y-7223841D01*
X10247279Y-7223841D01*
X10247279Y-7329908D01*
X10353346Y-7329908D01*
X10353346Y-9234909D02*
X10353346Y-9128842D01*
X10247279Y-9128842D01*
X10247279Y-9234909D01*
X10353346Y-9234909D01*
X10353346Y-11139909D02*
X10353346Y-11033842D01*
X10247279Y-11033842D01*
X10247279Y-11139909D01*
X10353346Y-11139909D01*
X11378346Y-6853658D02*
X11378346Y-6747591D01*
X11272279Y-6747591D01*
X11272279Y-6853658D01*
X11378346Y-6853658D01*
X11378346Y-8758659D02*
X11378346Y-8652592D01*
X11272279Y-8652592D01*
X11272279Y-8758659D01*
X11378346Y-8758659D01*
X11378346Y-10663659D02*
X11378346Y-10557592D01*
X11272279Y-10557592D01*
X11272279Y-10663659D01*
X11378346Y-10663659D01*
X11558346Y-6958658D02*
X11558346Y-6852591D01*
X11452279Y-6852591D01*
X11452279Y-6958658D01*
X11558346Y-6958658D01*
X11558346Y-8863659D02*
X11558346Y-8757592D01*
X11452279Y-8757592D01*
X11452279Y-8863659D01*
X11558346Y-8863659D01*
X11558346Y-10768659D02*
X11558346Y-10662592D01*
X11452279Y-10662592D01*
X11452279Y-10768659D01*
X11558346Y-10768659D01*
X12078346Y-6958658D02*
X12078346Y-6852591D01*
X11972279Y-6852591D01*
X11972279Y-6958658D01*
X12078346Y-6958658D01*
X12078346Y-8863659D02*
X12078346Y-8757592D01*
X11972279Y-8757592D01*
X11972279Y-8863659D01*
X12078346Y-8863659D01*
X12078346Y-10768659D02*
X12078346Y-10662592D01*
X11972279Y-10662592D01*
X11972279Y-10768659D01*
X12078346Y-10768659D01*
X12258346Y-6853658D02*
X12258346Y-6747591D01*
X12152279Y-6747591D01*
X12152279Y-6853658D01*
X12258346Y-6853658D01*
X12258346Y-8758659D02*
X12258346Y-8652592D01*
X12152279Y-8652592D01*
X12152279Y-8758659D01*
X12258346Y-8758659D01*
X12258346Y-10663659D02*
X12258346Y-10557592D01*
X12152279Y-10557592D01*
X12152279Y-10663659D01*
X12258346Y-10663659D01*
X13283346Y-6377408D02*
X13283346Y-6271341D01*
X13177279Y-6271341D01*
X13177279Y-6377408D01*
X13283346Y-6377408D01*
X13283346Y-8282408D02*
X13283346Y-8176341D01*
X13177279Y-8176341D01*
X13177279Y-8282408D01*
X13283346Y-8282408D01*
X13283346Y-10187409D02*
X13283346Y-10081342D01*
X13177279Y-10081342D01*
X13177279Y-10187409D01*
X13283346Y-10187409D01*
X13463346Y-6482408D02*
X13463346Y-6376341D01*
X13357279Y-6376341D01*
X13357279Y-6482408D01*
X13463346Y-6482408D01*
X13463346Y-8387408D02*
X13463346Y-8281341D01*
X13357279Y-8281341D01*
X13357279Y-8387408D01*
X13463346Y-8387408D01*
X13463346Y-10292409D02*
X13463346Y-10186342D01*
X13357279Y-10186342D01*
X13357279Y-10292409D01*
X13463346Y-10292409D01*
X13983346Y-6482408D02*
X13983346Y-6376341D01*
X13877279Y-6376341D01*
X13877279Y-6482408D01*
X13983346Y-6482408D01*
X13983346Y-8387408D02*
X13983346Y-8281341D01*
X13877279Y-8281341D01*
X13877279Y-8387408D01*
X13983346Y-8387408D01*
X13983346Y-10292409D02*
X13983346Y-10186342D01*
X13877279Y-10186342D01*
X13877279Y-10292409D01*
X13983346Y-10292409D01*
X14163346Y-6377408D02*
X14163346Y-6271341D01*
X14057279Y-6271341D01*
X14057279Y-6377408D01*
X14163346Y-6377408D01*
X14163346Y-8282408D02*
X14163346Y-8176341D01*
X14057279Y-8176341D01*
X14057279Y-8282408D01*
X14163346Y-8282408D01*
X14163346Y-10187409D02*
X14163346Y-10081342D01*
X14057279Y-10081342D01*
X14057279Y-10187409D01*
X14163346Y-10187409D01*
X14712096Y-13044908D02*
X14712096Y-12938841D01*
X14606029Y-12938841D01*
X14606029Y-13044908D01*
X14712096Y-13044908D01*
X14892096Y-13149908D02*
X14892096Y-13043841D01*
X14786029Y-13043841D01*
X14786029Y-13149908D01*
X14892096Y-13149908D01*
X15188346Y-7329908D02*
X15188346Y-7223841D01*
X15082279Y-7223841D01*
X15082279Y-7329908D01*
X15188346Y-7329908D01*
X15188346Y-9234909D02*
X15188346Y-9128842D01*
X15082279Y-9128842D01*
X15082279Y-9234909D01*
X15188346Y-9234909D01*
X15188346Y-11139909D02*
X15188346Y-11033842D01*
X15082279Y-11033842D01*
X15082279Y-11139909D01*
X15188346Y-11139909D01*
X15368346Y-7434908D02*
X15368346Y-7328841D01*
X15262279Y-7328841D01*
X15262279Y-7434908D01*
X15368346Y-7434908D01*
X15368346Y-9339909D02*
X15368346Y-9233842D01*
X15262279Y-9233842D01*
X15262279Y-9339909D01*
X15368346Y-9339909D01*
X15368346Y-11244908D02*
X15368346Y-11138842D01*
X15262279Y-11138842D01*
X15262279Y-11244908D01*
X15368346Y-11244908D01*
X15412096Y-13149908D02*
X15412096Y-13043841D01*
X15306029Y-13043841D01*
X15306029Y-13149908D01*
X15412096Y-13149908D01*
X15592096Y-13044908D02*
X15592096Y-12938841D01*
X15486029Y-12938841D01*
X15486029Y-13044908D01*
X15592096Y-13044908D01*
X15888346Y-7434908D02*
X15888346Y-7328841D01*
X15782279Y-7328841D01*
X15782279Y-7434908D01*
X15888346Y-7434908D01*
X15888346Y-9339909D02*
X15888346Y-9233842D01*
X15782279Y-9233842D01*
X15782279Y-9339909D01*
X15888346Y-9339909D01*
X15888346Y-11244908D02*
X15888346Y-11138842D01*
X15782279Y-11138842D01*
X15782279Y-11244908D01*
X15888346Y-11244908D01*
X16068346Y-7329908D02*
X16068346Y-7223841D01*
X15962279Y-7223841D01*
X15962279Y-7329908D01*
X16068346Y-7329908D01*
X16068346Y-9234909D02*
X16068346Y-9128842D01*
X15962279Y-9128842D01*
X15962279Y-9234909D01*
X16068346Y-9234909D01*
X16068346Y-11139909D02*
X16068346Y-11033842D01*
X15962279Y-11033842D01*
X15962279Y-11139909D01*
X16068346Y-11139909D01*
X16617096Y-13044908D02*
X16617096Y-12938841D01*
X16511029Y-12938841D01*
X16511029Y-13044908D01*
X16617096Y-13044908D01*
X16797096Y-13149908D02*
X16797096Y-13043841D01*
X16691029Y-13043841D01*
X16691029Y-13149908D01*
X16797096Y-13149908D01*
X17093346Y-7329908D02*
X17093346Y-7223841D01*
X16987279Y-7223841D01*
X16987279Y-7329908D01*
X17093346Y-7329908D01*
X17093346Y-9234909D02*
X17093346Y-9128842D01*
X16987279Y-9128842D01*
X16987279Y-9234909D01*
X17093346Y-9234909D01*
X17093346Y-11139909D02*
X17093346Y-11033842D01*
X16987279Y-11033842D01*
X16987279Y-11139909D01*
X17093346Y-11139909D01*
X17273346Y-7434908D02*
X17273346Y-7328841D01*
X17167279Y-7328841D01*
X17167279Y-7434908D01*
X17273346Y-7434908D01*
X17273346Y-9339909D02*
X17273346Y-9233842D01*
X17167279Y-9233842D01*
X17167279Y-9339909D01*
X17273346Y-9339909D01*
X17273346Y-11244908D02*
X17273346Y-11138842D01*
X17167279Y-11138842D01*
X17167279Y-11244908D01*
X17273346Y-11244908D01*
X17317096Y-13149908D02*
X17317096Y-13043841D01*
X17211029Y-13043841D01*
X17211029Y-13149908D01*
X17317096Y-13149908D01*
X17497096Y-13044908D02*
X17497096Y-12938841D01*
X17391029Y-12938841D01*
X17391029Y-13044908D01*
X17497096Y-13044908D01*
X17793346Y-7434908D02*
X17793346Y-7328841D01*
X17687279Y-7328841D01*
X17687279Y-7434908D01*
X17793346Y-7434908D01*
X17793346Y-9339909D02*
X17793346Y-9233842D01*
X17687279Y-9233842D01*
X17687279Y-9339909D01*
X17793346Y-9339909D01*
X17793346Y-11244908D02*
X17793346Y-11138842D01*
X17687279Y-11138842D01*
X17687279Y-11244908D01*
X17793346Y-11244908D01*
X17973346Y-7329908D02*
X17973346Y-7223841D01*
X17867279Y-7223841D01*
X17867279Y-7329908D01*
X17973346Y-7329908D01*
X17973346Y-9234909D02*
X17973346Y-9128842D01*
X17867279Y-9128842D01*
X17867279Y-9234909D01*
X17973346Y-9234909D01*
X17973346Y-11139909D02*
X17973346Y-11033842D01*
X17867279Y-11033842D01*
X17867279Y-11139909D01*
X17973346Y-11139909D01*
X18522096Y-13044908D02*
X18522096Y-12938841D01*
X18416029Y-12938841D01*
X18416029Y-13044908D01*
X18522096Y-13044908D01*
X18702096Y-13149908D02*
X18702096Y-13043841D01*
X18596029Y-13043841D01*
X18596029Y-13149908D01*
X18702096Y-13149908D01*
X19222096Y-13149908D02*
X19222096Y-13043841D01*
X19116029Y-13043841D01*
X19116029Y-13149908D01*
X19222096Y-13149908D01*
X19402096Y-13044908D02*
X19402096Y-12938841D01*
X19296029Y-12938841D01*
X19296029Y-13044908D01*
X19402096Y-13044908D01*
D11*
X7457027Y-13592421D02*
X7457027Y-13392421D01*
X7457027Y-13392421D02*
X7504646Y-13392421D01*
X7504646Y-13392421D02*
X7533217Y-13401945D01*
X7533217Y-13401945D02*
X7552265Y-13420993D01*
X7552265Y-13420993D02*
X7561789Y-13440040D01*
X7561789Y-13440040D02*
X7571312Y-13478135D01*
X7571312Y-13478135D02*
X7571312Y-13506707D01*
X7571312Y-13506707D02*
X7561789Y-13544802D01*
X7561789Y-13544802D02*
X7552265Y-13563850D01*
X7552265Y-13563850D02*
X7533217Y-13582897D01*
X7533217Y-13582897D02*
X7504646Y-13592421D01*
X7504646Y-13592421D02*
X7457027Y-13592421D01*
X7657027Y-13592421D02*
X7657027Y-13459088D01*
X7657027Y-13497183D02*
X7666551Y-13478135D01*
X7666551Y-13478135D02*
X7676074Y-13468612D01*
X7676074Y-13468612D02*
X7695122Y-13459088D01*
X7695122Y-13459088D02*
X7714170Y-13459088D01*
X7780836Y-13592421D02*
X7780836Y-13459088D01*
X7780836Y-13392421D02*
X7771312Y-13401945D01*
X7771312Y-13401945D02*
X7780836Y-13411469D01*
X7780836Y-13411469D02*
X7790360Y-13401945D01*
X7790360Y-13401945D02*
X7780836Y-13392421D01*
X7780836Y-13392421D02*
X7780836Y-13411469D01*
X7904646Y-13592421D02*
X7885598Y-13582897D01*
X7885598Y-13582897D02*
X7876074Y-13563850D01*
X7876074Y-13563850D02*
X7876074Y-13392421D01*
X8009408Y-13592421D02*
X7990360Y-13582897D01*
X7990360Y-13582897D02*
X7980836Y-13563850D01*
X7980836Y-13563850D02*
X7980836Y-13392421D01*
X8237979Y-13592421D02*
X8237979Y-13392421D01*
X8237979Y-13392421D02*
X8304646Y-13535278D01*
X8304646Y-13535278D02*
X8371312Y-13392421D01*
X8371312Y-13392421D02*
X8371312Y-13592421D01*
X8552265Y-13592421D02*
X8552265Y-13487659D01*
X8552265Y-13487659D02*
X8542741Y-13468612D01*
X8542741Y-13468612D02*
X8523694Y-13459088D01*
X8523694Y-13459088D02*
X8485598Y-13459088D01*
X8485598Y-13459088D02*
X8466551Y-13468612D01*
X8552265Y-13582897D02*
X8533217Y-13592421D01*
X8533217Y-13592421D02*
X8485598Y-13592421D01*
X8485598Y-13592421D02*
X8466551Y-13582897D01*
X8466551Y-13582897D02*
X8457027Y-13563850D01*
X8457027Y-13563850D02*
X8457027Y-13544802D01*
X8457027Y-13544802D02*
X8466551Y-13525755D01*
X8466551Y-13525755D02*
X8485598Y-13516231D01*
X8485598Y-13516231D02*
X8533217Y-13516231D01*
X8533217Y-13516231D02*
X8552265Y-13506707D01*
X8647503Y-13459088D02*
X8647503Y-13659088D01*
X8647503Y-13468612D02*
X8666551Y-13459088D01*
X8666551Y-13459088D02*
X8704646Y-13459088D01*
X8704646Y-13459088D02*
X8723694Y-13468612D01*
X8723694Y-13468612D02*
X8733217Y-13478135D01*
X8733217Y-13478135D02*
X8742741Y-13497183D01*
X8742741Y-13497183D02*
X8742741Y-13554326D01*
X8742741Y-13554326D02*
X8733217Y-13573374D01*
X8733217Y-13573374D02*
X8723694Y-13582897D01*
X8723694Y-13582897D02*
X8704646Y-13592421D01*
X8704646Y-13592421D02*
X8666551Y-13592421D01*
X8666551Y-13592421D02*
X8647503Y-13582897D01*
X8828455Y-13573374D02*
X8837979Y-13582897D01*
X8837979Y-13582897D02*
X8828455Y-13592421D01*
X8828455Y-13592421D02*
X8818932Y-13582897D01*
X8818932Y-13582897D02*
X8828455Y-13573374D01*
X8828455Y-13573374D02*
X8828455Y-13592421D01*
X8828455Y-13468612D02*
X8837979Y-13478135D01*
X8837979Y-13478135D02*
X8828455Y-13487659D01*
X8828455Y-13487659D02*
X8818932Y-13478135D01*
X8818932Y-13478135D02*
X8828455Y-13468612D01*
X8828455Y-13468612D02*
X8828455Y-13487659D01*
D12*
X7156250Y-13900937D02*
X7196250Y-13940937D01*
X7196250Y-13900937D02*
X7156250Y-13940937D01*
D11*
X7495122Y-13812421D02*
X7514170Y-13812421D01*
X7514170Y-13812421D02*
X7533217Y-13821945D01*
X7533217Y-13821945D02*
X7542741Y-13831469D01*
X7542741Y-13831469D02*
X7552265Y-13850516D01*
X7552265Y-13850516D02*
X7561789Y-13888612D01*
X7561789Y-13888612D02*
X7561789Y-13936231D01*
X7561789Y-13936231D02*
X7552265Y-13974326D01*
X7552265Y-13974326D02*
X7542741Y-13993374D01*
X7542741Y-13993374D02*
X7533217Y-14002897D01*
X7533217Y-14002897D02*
X7514170Y-14012421D01*
X7514170Y-14012421D02*
X7495122Y-14012421D01*
X7495122Y-14012421D02*
X7476074Y-14002897D01*
X7476074Y-14002897D02*
X7466551Y-13993374D01*
X7466551Y-13993374D02*
X7457027Y-13974326D01*
X7457027Y-13974326D02*
X7447503Y-13936231D01*
X7447503Y-13936231D02*
X7447503Y-13888612D01*
X7447503Y-13888612D02*
X7457027Y-13850516D01*
X7457027Y-13850516D02*
X7466551Y-13831469D01*
X7466551Y-13831469D02*
X7476074Y-13821945D01*
X7476074Y-13821945D02*
X7495122Y-13812421D01*
X7647503Y-13993374D02*
X7657027Y-14002897D01*
X7657027Y-14002897D02*
X7647503Y-14012421D01*
X7647503Y-14012421D02*
X7637979Y-14002897D01*
X7637979Y-14002897D02*
X7647503Y-13993374D01*
X7647503Y-13993374D02*
X7647503Y-14012421D01*
X7828455Y-13879088D02*
X7828455Y-14012421D01*
X7780836Y-13802897D02*
X7733217Y-13945755D01*
X7733217Y-13945755D02*
X7857027Y-13945755D01*
X7971312Y-13812421D02*
X7990360Y-13812421D01*
X7990360Y-13812421D02*
X8009408Y-13821945D01*
X8009408Y-13821945D02*
X8018932Y-13831469D01*
X8018932Y-13831469D02*
X8028455Y-13850516D01*
X8028455Y-13850516D02*
X8037979Y-13888612D01*
X8037979Y-13888612D02*
X8037979Y-13936231D01*
X8037979Y-13936231D02*
X8028455Y-13974326D01*
X8028455Y-13974326D02*
X8018932Y-13993374D01*
X8018932Y-13993374D02*
X8009408Y-14002897D01*
X8009408Y-14002897D02*
X7990360Y-14012421D01*
X7990360Y-14012421D02*
X7971312Y-14012421D01*
X7971312Y-14012421D02*
X7952265Y-14002897D01*
X7952265Y-14002897D02*
X7942741Y-13993374D01*
X7942741Y-13993374D02*
X7933217Y-13974326D01*
X7933217Y-13974326D02*
X7923693Y-13936231D01*
X7923693Y-13936231D02*
X7923693Y-13888612D01*
X7923693Y-13888612D02*
X7933217Y-13850516D01*
X7933217Y-13850516D02*
X7942741Y-13831469D01*
X7942741Y-13831469D02*
X7952265Y-13821945D01*
X7952265Y-13821945D02*
X7971312Y-13812421D01*
X8161789Y-13812421D02*
X8180836Y-13812421D01*
X8180836Y-13812421D02*
X8199884Y-13821945D01*
X8199884Y-13821945D02*
X8209408Y-13831469D01*
X8209408Y-13831469D02*
X8218932Y-13850516D01*
X8218932Y-13850516D02*
X8228455Y-13888612D01*
X8228455Y-13888612D02*
X8228455Y-13936231D01*
X8228455Y-13936231D02*
X8218932Y-13974326D01*
X8218932Y-13974326D02*
X8209408Y-13993374D01*
X8209408Y-13993374D02*
X8199884Y-14002897D01*
X8199884Y-14002897D02*
X8180836Y-14012421D01*
X8180836Y-14012421D02*
X8161789Y-14012421D01*
X8161789Y-14012421D02*
X8142741Y-14002897D01*
X8142741Y-14002897D02*
X8133217Y-13993374D01*
X8133217Y-13993374D02*
X8123693Y-13974326D01*
X8123693Y-13974326D02*
X8114170Y-13936231D01*
X8114170Y-13936231D02*
X8114170Y-13888612D01*
X8114170Y-13888612D02*
X8123693Y-13850516D01*
X8123693Y-13850516D02*
X8133217Y-13831469D01*
X8133217Y-13831469D02*
X8142741Y-13821945D01*
X8142741Y-13821945D02*
X8161789Y-13812421D01*
X8314170Y-14012421D02*
X8314170Y-13879088D01*
X8314170Y-13898135D02*
X8323693Y-13888612D01*
X8323693Y-13888612D02*
X8342741Y-13879088D01*
X8342741Y-13879088D02*
X8371313Y-13879088D01*
X8371313Y-13879088D02*
X8390360Y-13888612D01*
X8390360Y-13888612D02*
X8399884Y-13907659D01*
X8399884Y-13907659D02*
X8399884Y-14012421D01*
X8399884Y-13907659D02*
X8409408Y-13888612D01*
X8409408Y-13888612D02*
X8428455Y-13879088D01*
X8428455Y-13879088D02*
X8457027Y-13879088D01*
X8457027Y-13879088D02*
X8476075Y-13888612D01*
X8476075Y-13888612D02*
X8485598Y-13907659D01*
X8485598Y-13907659D02*
X8485598Y-14012421D01*
X8580836Y-14012421D02*
X8580836Y-13879088D01*
X8580836Y-13898135D02*
X8590360Y-13888612D01*
X8590360Y-13888612D02*
X8609408Y-13879088D01*
X8609408Y-13879088D02*
X8637979Y-13879088D01*
X8637979Y-13879088D02*
X8657027Y-13888612D01*
X8657027Y-13888612D02*
X8666551Y-13907659D01*
X8666551Y-13907659D02*
X8666551Y-14012421D01*
X8666551Y-13907659D02*
X8676075Y-13888612D01*
X8676075Y-13888612D02*
X8695122Y-13879088D01*
X8695122Y-13879088D02*
X8723694Y-13879088D01*
X8723694Y-13879088D02*
X8742741Y-13888612D01*
X8742741Y-13888612D02*
X8752265Y-13907659D01*
X8752265Y-13907659D02*
X8752265Y-14012421D01*
X9142741Y-13802897D02*
X8971313Y-14060040D01*
X9399884Y-13812421D02*
X9418932Y-13812421D01*
X9418932Y-13812421D02*
X9437979Y-13821945D01*
X9437979Y-13821945D02*
X9447503Y-13831469D01*
X9447503Y-13831469D02*
X9457027Y-13850516D01*
X9457027Y-13850516D02*
X9466551Y-13888612D01*
X9466551Y-13888612D02*
X9466551Y-13936231D01*
X9466551Y-13936231D02*
X9457027Y-13974326D01*
X9457027Y-13974326D02*
X9447503Y-13993374D01*
X9447503Y-13993374D02*
X9437979Y-14002897D01*
X9437979Y-14002897D02*
X9418932Y-14012421D01*
X9418932Y-14012421D02*
X9399884Y-14012421D01*
X9399884Y-14012421D02*
X9380837Y-14002897D01*
X9380837Y-14002897D02*
X9371313Y-13993374D01*
X9371313Y-13993374D02*
X9361789Y-13974326D01*
X9361789Y-13974326D02*
X9352265Y-13936231D01*
X9352265Y-13936231D02*
X9352265Y-13888612D01*
X9352265Y-13888612D02*
X9361789Y-13850516D01*
X9361789Y-13850516D02*
X9371313Y-13831469D01*
X9371313Y-13831469D02*
X9380837Y-13821945D01*
X9380837Y-13821945D02*
X9399884Y-13812421D01*
X9552265Y-13993374D02*
X9561789Y-14002897D01*
X9561789Y-14002897D02*
X9552265Y-14012421D01*
X9552265Y-14012421D02*
X9542741Y-14002897D01*
X9542741Y-14002897D02*
X9552265Y-13993374D01*
X9552265Y-13993374D02*
X9552265Y-14012421D01*
X9685598Y-13812421D02*
X9704646Y-13812421D01*
X9704646Y-13812421D02*
X9723694Y-13821945D01*
X9723694Y-13821945D02*
X9733218Y-13831469D01*
X9733218Y-13831469D02*
X9742741Y-13850516D01*
X9742741Y-13850516D02*
X9752265Y-13888612D01*
X9752265Y-13888612D02*
X9752265Y-13936231D01*
X9752265Y-13936231D02*
X9742741Y-13974326D01*
X9742741Y-13974326D02*
X9733218Y-13993374D01*
X9733218Y-13993374D02*
X9723694Y-14002897D01*
X9723694Y-14002897D02*
X9704646Y-14012421D01*
X9704646Y-14012421D02*
X9685598Y-14012421D01*
X9685598Y-14012421D02*
X9666551Y-14002897D01*
X9666551Y-14002897D02*
X9657027Y-13993374D01*
X9657027Y-13993374D02*
X9647503Y-13974326D01*
X9647503Y-13974326D02*
X9637979Y-13936231D01*
X9637979Y-13936231D02*
X9637979Y-13888612D01*
X9637979Y-13888612D02*
X9647503Y-13850516D01*
X9647503Y-13850516D02*
X9657027Y-13831469D01*
X9657027Y-13831469D02*
X9666551Y-13821945D01*
X9666551Y-13821945D02*
X9685598Y-13812421D01*
X9942741Y-14012421D02*
X9828456Y-14012421D01*
X9885598Y-14012421D02*
X9885598Y-13812421D01*
X9885598Y-13812421D02*
X9866551Y-13840993D01*
X9866551Y-13840993D02*
X9847503Y-13860040D01*
X9847503Y-13860040D02*
X9828456Y-13869564D01*
X10123694Y-13812421D02*
X10028456Y-13812421D01*
X10028456Y-13812421D02*
X10018932Y-13907659D01*
X10018932Y-13907659D02*
X10028456Y-13898135D01*
X10028456Y-13898135D02*
X10047503Y-13888612D01*
X10047503Y-13888612D02*
X10095122Y-13888612D01*
X10095122Y-13888612D02*
X10114170Y-13898135D01*
X10114170Y-13898135D02*
X10123694Y-13907659D01*
X10123694Y-13907659D02*
X10133218Y-13926707D01*
X10133218Y-13926707D02*
X10133218Y-13974326D01*
X10133218Y-13974326D02*
X10123694Y-13993374D01*
X10123694Y-13993374D02*
X10114170Y-14002897D01*
X10114170Y-14002897D02*
X10095122Y-14012421D01*
X10095122Y-14012421D02*
X10047503Y-14012421D01*
X10047503Y-14012421D02*
X10028456Y-14002897D01*
X10028456Y-14002897D02*
X10018932Y-13993374D01*
X10199884Y-13812421D02*
X10333218Y-13812421D01*
X10333218Y-13812421D02*
X10247503Y-14012421D01*
X10399884Y-13812421D02*
X10399884Y-13850516D01*
X10476075Y-13812421D02*
X10476075Y-13850516D01*
X10771313Y-14088612D02*
X10761789Y-14079088D01*
X10761789Y-14079088D02*
X10742741Y-14050516D01*
X10742741Y-14050516D02*
X10733218Y-14031469D01*
X10733218Y-14031469D02*
X10723694Y-14002897D01*
X10723694Y-14002897D02*
X10714170Y-13955278D01*
X10714170Y-13955278D02*
X10714170Y-13917183D01*
X10714170Y-13917183D02*
X10723694Y-13869564D01*
X10723694Y-13869564D02*
X10733218Y-13840993D01*
X10733218Y-13840993D02*
X10742741Y-13821945D01*
X10742741Y-13821945D02*
X10761789Y-13793374D01*
X10761789Y-13793374D02*
X10771313Y-13783850D01*
X10876075Y-13898135D02*
X10857027Y-13888612D01*
X10857027Y-13888612D02*
X10847503Y-13879088D01*
X10847503Y-13879088D02*
X10837980Y-13860040D01*
X10837980Y-13860040D02*
X10837980Y-13850516D01*
X10837980Y-13850516D02*
X10847503Y-13831469D01*
X10847503Y-13831469D02*
X10857027Y-13821945D01*
X10857027Y-13821945D02*
X10876075Y-13812421D01*
X10876075Y-13812421D02*
X10914170Y-13812421D01*
X10914170Y-13812421D02*
X10933218Y-13821945D01*
X10933218Y-13821945D02*
X10942741Y-13831469D01*
X10942741Y-13831469D02*
X10952265Y-13850516D01*
X10952265Y-13850516D02*
X10952265Y-13860040D01*
X10952265Y-13860040D02*
X10942741Y-13879088D01*
X10942741Y-13879088D02*
X10933218Y-13888612D01*
X10933218Y-13888612D02*
X10914170Y-13898135D01*
X10914170Y-13898135D02*
X10876075Y-13898135D01*
X10876075Y-13898135D02*
X10857027Y-13907659D01*
X10857027Y-13907659D02*
X10847503Y-13917183D01*
X10847503Y-13917183D02*
X10837980Y-13936231D01*
X10837980Y-13936231D02*
X10837980Y-13974326D01*
X10837980Y-13974326D02*
X10847503Y-13993374D01*
X10847503Y-13993374D02*
X10857027Y-14002897D01*
X10857027Y-14002897D02*
X10876075Y-14012421D01*
X10876075Y-14012421D02*
X10914170Y-14012421D01*
X10914170Y-14012421D02*
X10933218Y-14002897D01*
X10933218Y-14002897D02*
X10942741Y-13993374D01*
X10942741Y-13993374D02*
X10952265Y-13974326D01*
X10952265Y-13974326D02*
X10952265Y-13936231D01*
X10952265Y-13936231D02*
X10942741Y-13917183D01*
X10942741Y-13917183D02*
X10933218Y-13907659D01*
X10933218Y-13907659D02*
X10914170Y-13898135D01*
X11066551Y-13898135D02*
X11047503Y-13888612D01*
X11047503Y-13888612D02*
X11037980Y-13879088D01*
X11037980Y-13879088D02*
X11028456Y-13860040D01*
X11028456Y-13860040D02*
X11028456Y-13850516D01*
X11028456Y-13850516D02*
X11037980Y-13831469D01*
X11037980Y-13831469D02*
X11047503Y-13821945D01*
X11047503Y-13821945D02*
X11066551Y-13812421D01*
X11066551Y-13812421D02*
X11104646Y-13812421D01*
X11104646Y-13812421D02*
X11123694Y-13821945D01*
X11123694Y-13821945D02*
X11133218Y-13831469D01*
X11133218Y-13831469D02*
X11142741Y-13850516D01*
X11142741Y-13850516D02*
X11142741Y-13860040D01*
X11142741Y-13860040D02*
X11133218Y-13879088D01*
X11133218Y-13879088D02*
X11123694Y-13888612D01*
X11123694Y-13888612D02*
X11104646Y-13898135D01*
X11104646Y-13898135D02*
X11066551Y-13898135D01*
X11066551Y-13898135D02*
X11047503Y-13907659D01*
X11047503Y-13907659D02*
X11037980Y-13917183D01*
X11037980Y-13917183D02*
X11028456Y-13936231D01*
X11028456Y-13936231D02*
X11028456Y-13974326D01*
X11028456Y-13974326D02*
X11037980Y-13993374D01*
X11037980Y-13993374D02*
X11047503Y-14002897D01*
X11047503Y-14002897D02*
X11066551Y-14012421D01*
X11066551Y-14012421D02*
X11104646Y-14012421D01*
X11104646Y-14012421D02*
X11123694Y-14002897D01*
X11123694Y-14002897D02*
X11133218Y-13993374D01*
X11133218Y-13993374D02*
X11142741Y-13974326D01*
X11142741Y-13974326D02*
X11142741Y-13936231D01*
X11142741Y-13936231D02*
X11133218Y-13917183D01*
X11133218Y-13917183D02*
X11123694Y-13907659D01*
X11123694Y-13907659D02*
X11104646Y-13898135D01*
X11380837Y-14012421D02*
X11380837Y-13812421D01*
X11466551Y-14012421D02*
X11466551Y-13907659D01*
X11466551Y-13907659D02*
X11457027Y-13888612D01*
X11457027Y-13888612D02*
X11437980Y-13879088D01*
X11437980Y-13879088D02*
X11409408Y-13879088D01*
X11409408Y-13879088D02*
X11390360Y-13888612D01*
X11390360Y-13888612D02*
X11380837Y-13898135D01*
X11590360Y-14012421D02*
X11571313Y-14002897D01*
X11571313Y-14002897D02*
X11561789Y-13993374D01*
X11561789Y-13993374D02*
X11552265Y-13974326D01*
X11552265Y-13974326D02*
X11552265Y-13917183D01*
X11552265Y-13917183D02*
X11561789Y-13898135D01*
X11561789Y-13898135D02*
X11571313Y-13888612D01*
X11571313Y-13888612D02*
X11590360Y-13879088D01*
X11590360Y-13879088D02*
X11618932Y-13879088D01*
X11618932Y-13879088D02*
X11637980Y-13888612D01*
X11637980Y-13888612D02*
X11647503Y-13898135D01*
X11647503Y-13898135D02*
X11657027Y-13917183D01*
X11657027Y-13917183D02*
X11657027Y-13974326D01*
X11657027Y-13974326D02*
X11647503Y-13993374D01*
X11647503Y-13993374D02*
X11637980Y-14002897D01*
X11637980Y-14002897D02*
X11618932Y-14012421D01*
X11618932Y-14012421D02*
X11590360Y-14012421D01*
X11771313Y-14012421D02*
X11752265Y-14002897D01*
X11752265Y-14002897D02*
X11742741Y-13983850D01*
X11742741Y-13983850D02*
X11742741Y-13812421D01*
X11923694Y-14002897D02*
X11904646Y-14012421D01*
X11904646Y-14012421D02*
X11866551Y-14012421D01*
X11866551Y-14012421D02*
X11847503Y-14002897D01*
X11847503Y-14002897D02*
X11837980Y-13983850D01*
X11837980Y-13983850D02*
X11837980Y-13907659D01*
X11837980Y-13907659D02*
X11847503Y-13888612D01*
X11847503Y-13888612D02*
X11866551Y-13879088D01*
X11866551Y-13879088D02*
X11904646Y-13879088D01*
X11904646Y-13879088D02*
X11923694Y-13888612D01*
X11923694Y-13888612D02*
X11933218Y-13907659D01*
X11933218Y-13907659D02*
X11933218Y-13926707D01*
X11933218Y-13926707D02*
X11837980Y-13945755D01*
X12009408Y-14002897D02*
X12028456Y-14012421D01*
X12028456Y-14012421D02*
X12066551Y-14012421D01*
X12066551Y-14012421D02*
X12085599Y-14002897D01*
X12085599Y-14002897D02*
X12095122Y-13983850D01*
X12095122Y-13983850D02*
X12095122Y-13974326D01*
X12095122Y-13974326D02*
X12085599Y-13955278D01*
X12085599Y-13955278D02*
X12066551Y-13945755D01*
X12066551Y-13945755D02*
X12037980Y-13945755D01*
X12037980Y-13945755D02*
X12018932Y-13936231D01*
X12018932Y-13936231D02*
X12009408Y-13917183D01*
X12009408Y-13917183D02*
X12009408Y-13907659D01*
X12009408Y-13907659D02*
X12018932Y-13888612D01*
X12018932Y-13888612D02*
X12037980Y-13879088D01*
X12037980Y-13879088D02*
X12066551Y-13879088D01*
X12066551Y-13879088D02*
X12085599Y-13888612D01*
X12161789Y-14088612D02*
X12171313Y-14079088D01*
X12171313Y-14079088D02*
X12190361Y-14050516D01*
X12190361Y-14050516D02*
X12199884Y-14031469D01*
X12199884Y-14031469D02*
X12209408Y-14002897D01*
X12209408Y-14002897D02*
X12218932Y-13955278D01*
X12218932Y-13955278D02*
X12218932Y-13917183D01*
X12218932Y-13917183D02*
X12209408Y-13869564D01*
X12209408Y-13869564D02*
X12199884Y-13840993D01*
X12199884Y-13840993D02*
X12190361Y-13821945D01*
X12190361Y-13821945D02*
X12171313Y-13793374D01*
X12171313Y-13793374D02*
X12161789Y-13783850D01*
D13*
X7196250Y-14184937D02*
G75*
G03*
X7196250Y-14184937I-30000J0D01*
G01*
D11*
X7495122Y-14076421D02*
X7514170Y-14076421D01*
X7514170Y-14076421D02*
X7533217Y-14085945D01*
X7533217Y-14085945D02*
X7542741Y-14095469D01*
X7542741Y-14095469D02*
X7552265Y-14114516D01*
X7552265Y-14114516D02*
X7561789Y-14152612D01*
X7561789Y-14152612D02*
X7561789Y-14200231D01*
X7561789Y-14200231D02*
X7552265Y-14238326D01*
X7552265Y-14238326D02*
X7542741Y-14257374D01*
X7542741Y-14257374D02*
X7533217Y-14266897D01*
X7533217Y-14266897D02*
X7514170Y-14276421D01*
X7514170Y-14276421D02*
X7495122Y-14276421D01*
X7495122Y-14276421D02*
X7476074Y-14266897D01*
X7476074Y-14266897D02*
X7466551Y-14257374D01*
X7466551Y-14257374D02*
X7457027Y-14238326D01*
X7457027Y-14238326D02*
X7447503Y-14200231D01*
X7447503Y-14200231D02*
X7447503Y-14152612D01*
X7447503Y-14152612D02*
X7457027Y-14114516D01*
X7457027Y-14114516D02*
X7466551Y-14095469D01*
X7466551Y-14095469D02*
X7476074Y-14085945D01*
X7476074Y-14085945D02*
X7495122Y-14076421D01*
X7647503Y-14257374D02*
X7657027Y-14266897D01*
X7657027Y-14266897D02*
X7647503Y-14276421D01*
X7647503Y-14276421D02*
X7637979Y-14266897D01*
X7637979Y-14266897D02*
X7647503Y-14257374D01*
X7647503Y-14257374D02*
X7647503Y-14276421D01*
X7828455Y-14076421D02*
X7790360Y-14076421D01*
X7790360Y-14076421D02*
X7771312Y-14085945D01*
X7771312Y-14085945D02*
X7761789Y-14095469D01*
X7761789Y-14095469D02*
X7742741Y-14124040D01*
X7742741Y-14124040D02*
X7733217Y-14162135D01*
X7733217Y-14162135D02*
X7733217Y-14238326D01*
X7733217Y-14238326D02*
X7742741Y-14257374D01*
X7742741Y-14257374D02*
X7752265Y-14266897D01*
X7752265Y-14266897D02*
X7771312Y-14276421D01*
X7771312Y-14276421D02*
X7809408Y-14276421D01*
X7809408Y-14276421D02*
X7828455Y-14266897D01*
X7828455Y-14266897D02*
X7837979Y-14257374D01*
X7837979Y-14257374D02*
X7847503Y-14238326D01*
X7847503Y-14238326D02*
X7847503Y-14190707D01*
X7847503Y-14190707D02*
X7837979Y-14171659D01*
X7837979Y-14171659D02*
X7828455Y-14162135D01*
X7828455Y-14162135D02*
X7809408Y-14152612D01*
X7809408Y-14152612D02*
X7771312Y-14152612D01*
X7771312Y-14152612D02*
X7752265Y-14162135D01*
X7752265Y-14162135D02*
X7742741Y-14171659D01*
X7742741Y-14171659D02*
X7733217Y-14190707D01*
X7971312Y-14076421D02*
X7990360Y-14076421D01*
X7990360Y-14076421D02*
X8009408Y-14085945D01*
X8009408Y-14085945D02*
X8018932Y-14095469D01*
X8018932Y-14095469D02*
X8028455Y-14114516D01*
X8028455Y-14114516D02*
X8037979Y-14152612D01*
X8037979Y-14152612D02*
X8037979Y-14200231D01*
X8037979Y-14200231D02*
X8028455Y-14238326D01*
X8028455Y-14238326D02*
X8018932Y-14257374D01*
X8018932Y-14257374D02*
X8009408Y-14266897D01*
X8009408Y-14266897D02*
X7990360Y-14276421D01*
X7990360Y-14276421D02*
X7971312Y-14276421D01*
X7971312Y-14276421D02*
X7952265Y-14266897D01*
X7952265Y-14266897D02*
X7942741Y-14257374D01*
X7942741Y-14257374D02*
X7933217Y-14238326D01*
X7933217Y-14238326D02*
X7923693Y-14200231D01*
X7923693Y-14200231D02*
X7923693Y-14152612D01*
X7923693Y-14152612D02*
X7933217Y-14114516D01*
X7933217Y-14114516D02*
X7942741Y-14095469D01*
X7942741Y-14095469D02*
X7952265Y-14085945D01*
X7952265Y-14085945D02*
X7971312Y-14076421D01*
X8161789Y-14076421D02*
X8180836Y-14076421D01*
X8180836Y-14076421D02*
X8199884Y-14085945D01*
X8199884Y-14085945D02*
X8209408Y-14095469D01*
X8209408Y-14095469D02*
X8218932Y-14114516D01*
X8218932Y-14114516D02*
X8228455Y-14152612D01*
X8228455Y-14152612D02*
X8228455Y-14200231D01*
X8228455Y-14200231D02*
X8218932Y-14238326D01*
X8218932Y-14238326D02*
X8209408Y-14257374D01*
X8209408Y-14257374D02*
X8199884Y-14266897D01*
X8199884Y-14266897D02*
X8180836Y-14276421D01*
X8180836Y-14276421D02*
X8161789Y-14276421D01*
X8161789Y-14276421D02*
X8142741Y-14266897D01*
X8142741Y-14266897D02*
X8133217Y-14257374D01*
X8133217Y-14257374D02*
X8123693Y-14238326D01*
X8123693Y-14238326D02*
X8114170Y-14200231D01*
X8114170Y-14200231D02*
X8114170Y-14152612D01*
X8114170Y-14152612D02*
X8123693Y-14114516D01*
X8123693Y-14114516D02*
X8133217Y-14095469D01*
X8133217Y-14095469D02*
X8142741Y-14085945D01*
X8142741Y-14085945D02*
X8161789Y-14076421D01*
X8314170Y-14276421D02*
X8314170Y-14143088D01*
X8314170Y-14162135D02*
X8323693Y-14152612D01*
X8323693Y-14152612D02*
X8342741Y-14143088D01*
X8342741Y-14143088D02*
X8371313Y-14143088D01*
X8371313Y-14143088D02*
X8390360Y-14152612D01*
X8390360Y-14152612D02*
X8399884Y-14171659D01*
X8399884Y-14171659D02*
X8399884Y-14276421D01*
X8399884Y-14171659D02*
X8409408Y-14152612D01*
X8409408Y-14152612D02*
X8428455Y-14143088D01*
X8428455Y-14143088D02*
X8457027Y-14143088D01*
X8457027Y-14143088D02*
X8476075Y-14152612D01*
X8476075Y-14152612D02*
X8485598Y-14171659D01*
X8485598Y-14171659D02*
X8485598Y-14276421D01*
X8580836Y-14276421D02*
X8580836Y-14143088D01*
X8580836Y-14162135D02*
X8590360Y-14152612D01*
X8590360Y-14152612D02*
X8609408Y-14143088D01*
X8609408Y-14143088D02*
X8637979Y-14143088D01*
X8637979Y-14143088D02*
X8657027Y-14152612D01*
X8657027Y-14152612D02*
X8666551Y-14171659D01*
X8666551Y-14171659D02*
X8666551Y-14276421D01*
X8666551Y-14171659D02*
X8676075Y-14152612D01*
X8676075Y-14152612D02*
X8695122Y-14143088D01*
X8695122Y-14143088D02*
X8723694Y-14143088D01*
X8723694Y-14143088D02*
X8742741Y-14152612D01*
X8742741Y-14152612D02*
X8752265Y-14171659D01*
X8752265Y-14171659D02*
X8752265Y-14276421D01*
X9142741Y-14066897D02*
X8971313Y-14324040D01*
X9399884Y-14076421D02*
X9418932Y-14076421D01*
X9418932Y-14076421D02*
X9437979Y-14085945D01*
X9437979Y-14085945D02*
X9447503Y-14095469D01*
X9447503Y-14095469D02*
X9457027Y-14114516D01*
X9457027Y-14114516D02*
X9466551Y-14152612D01*
X9466551Y-14152612D02*
X9466551Y-14200231D01*
X9466551Y-14200231D02*
X9457027Y-14238326D01*
X9457027Y-14238326D02*
X9447503Y-14257374D01*
X9447503Y-14257374D02*
X9437979Y-14266897D01*
X9437979Y-14266897D02*
X9418932Y-14276421D01*
X9418932Y-14276421D02*
X9399884Y-14276421D01*
X9399884Y-14276421D02*
X9380837Y-14266897D01*
X9380837Y-14266897D02*
X9371313Y-14257374D01*
X9371313Y-14257374D02*
X9361789Y-14238326D01*
X9361789Y-14238326D02*
X9352265Y-14200231D01*
X9352265Y-14200231D02*
X9352265Y-14152612D01*
X9352265Y-14152612D02*
X9361789Y-14114516D01*
X9361789Y-14114516D02*
X9371313Y-14095469D01*
X9371313Y-14095469D02*
X9380837Y-14085945D01*
X9380837Y-14085945D02*
X9399884Y-14076421D01*
X9552265Y-14257374D02*
X9561789Y-14266897D01*
X9561789Y-14266897D02*
X9552265Y-14276421D01*
X9552265Y-14276421D02*
X9542741Y-14266897D01*
X9542741Y-14266897D02*
X9552265Y-14257374D01*
X9552265Y-14257374D02*
X9552265Y-14276421D01*
X9685598Y-14076421D02*
X9704646Y-14076421D01*
X9704646Y-14076421D02*
X9723694Y-14085945D01*
X9723694Y-14085945D02*
X9733218Y-14095469D01*
X9733218Y-14095469D02*
X9742741Y-14114516D01*
X9742741Y-14114516D02*
X9752265Y-14152612D01*
X9752265Y-14152612D02*
X9752265Y-14200231D01*
X9752265Y-14200231D02*
X9742741Y-14238326D01*
X9742741Y-14238326D02*
X9733218Y-14257374D01*
X9733218Y-14257374D02*
X9723694Y-14266897D01*
X9723694Y-14266897D02*
X9704646Y-14276421D01*
X9704646Y-14276421D02*
X9685598Y-14276421D01*
X9685598Y-14276421D02*
X9666551Y-14266897D01*
X9666551Y-14266897D02*
X9657027Y-14257374D01*
X9657027Y-14257374D02*
X9647503Y-14238326D01*
X9647503Y-14238326D02*
X9637979Y-14200231D01*
X9637979Y-14200231D02*
X9637979Y-14152612D01*
X9637979Y-14152612D02*
X9647503Y-14114516D01*
X9647503Y-14114516D02*
X9657027Y-14095469D01*
X9657027Y-14095469D02*
X9666551Y-14085945D01*
X9666551Y-14085945D02*
X9685598Y-14076421D01*
X9828456Y-14095469D02*
X9837979Y-14085945D01*
X9837979Y-14085945D02*
X9857027Y-14076421D01*
X9857027Y-14076421D02*
X9904646Y-14076421D01*
X9904646Y-14076421D02*
X9923694Y-14085945D01*
X9923694Y-14085945D02*
X9933218Y-14095469D01*
X9933218Y-14095469D02*
X9942741Y-14114516D01*
X9942741Y-14114516D02*
X9942741Y-14133564D01*
X9942741Y-14133564D02*
X9933218Y-14162135D01*
X9933218Y-14162135D02*
X9818932Y-14276421D01*
X9818932Y-14276421D02*
X9942741Y-14276421D01*
X10009408Y-14076421D02*
X10133218Y-14076421D01*
X10133218Y-14076421D02*
X10066551Y-14152612D01*
X10066551Y-14152612D02*
X10095122Y-14152612D01*
X10095122Y-14152612D02*
X10114170Y-14162135D01*
X10114170Y-14162135D02*
X10123694Y-14171659D01*
X10123694Y-14171659D02*
X10133218Y-14190707D01*
X10133218Y-14190707D02*
X10133218Y-14238326D01*
X10133218Y-14238326D02*
X10123694Y-14257374D01*
X10123694Y-14257374D02*
X10114170Y-14266897D01*
X10114170Y-14266897D02*
X10095122Y-14276421D01*
X10095122Y-14276421D02*
X10037979Y-14276421D01*
X10037979Y-14276421D02*
X10018932Y-14266897D01*
X10018932Y-14266897D02*
X10009408Y-14257374D01*
X10304646Y-14076421D02*
X10266551Y-14076421D01*
X10266551Y-14076421D02*
X10247503Y-14085945D01*
X10247503Y-14085945D02*
X10237979Y-14095469D01*
X10237979Y-14095469D02*
X10218932Y-14124040D01*
X10218932Y-14124040D02*
X10209408Y-14162135D01*
X10209408Y-14162135D02*
X10209408Y-14238326D01*
X10209408Y-14238326D02*
X10218932Y-14257374D01*
X10218932Y-14257374D02*
X10228456Y-14266897D01*
X10228456Y-14266897D02*
X10247503Y-14276421D01*
X10247503Y-14276421D02*
X10285599Y-14276421D01*
X10285599Y-14276421D02*
X10304646Y-14266897D01*
X10304646Y-14266897D02*
X10314170Y-14257374D01*
X10314170Y-14257374D02*
X10323694Y-14238326D01*
X10323694Y-14238326D02*
X10323694Y-14190707D01*
X10323694Y-14190707D02*
X10314170Y-14171659D01*
X10314170Y-14171659D02*
X10304646Y-14162135D01*
X10304646Y-14162135D02*
X10285599Y-14152612D01*
X10285599Y-14152612D02*
X10247503Y-14152612D01*
X10247503Y-14152612D02*
X10228456Y-14162135D01*
X10228456Y-14162135D02*
X10218932Y-14171659D01*
X10218932Y-14171659D02*
X10209408Y-14190707D01*
X10399884Y-14076421D02*
X10399884Y-14114516D01*
X10476075Y-14076421D02*
X10476075Y-14114516D01*
X10771313Y-14352612D02*
X10761789Y-14343088D01*
X10761789Y-14343088D02*
X10742741Y-14314516D01*
X10742741Y-14314516D02*
X10733218Y-14295469D01*
X10733218Y-14295469D02*
X10723694Y-14266897D01*
X10723694Y-14266897D02*
X10714170Y-14219278D01*
X10714170Y-14219278D02*
X10714170Y-14181183D01*
X10714170Y-14181183D02*
X10723694Y-14133564D01*
X10723694Y-14133564D02*
X10733218Y-14104993D01*
X10733218Y-14104993D02*
X10742741Y-14085945D01*
X10742741Y-14085945D02*
X10761789Y-14057374D01*
X10761789Y-14057374D02*
X10771313Y-14047850D01*
X10837980Y-14095469D02*
X10847503Y-14085945D01*
X10847503Y-14085945D02*
X10866551Y-14076421D01*
X10866551Y-14076421D02*
X10914170Y-14076421D01*
X10914170Y-14076421D02*
X10933218Y-14085945D01*
X10933218Y-14085945D02*
X10942741Y-14095469D01*
X10942741Y-14095469D02*
X10952265Y-14114516D01*
X10952265Y-14114516D02*
X10952265Y-14133564D01*
X10952265Y-14133564D02*
X10942741Y-14162135D01*
X10942741Y-14162135D02*
X10828456Y-14276421D01*
X10828456Y-14276421D02*
X10952265Y-14276421D01*
X11190360Y-14276421D02*
X11190360Y-14076421D01*
X11276075Y-14276421D02*
X11276075Y-14171659D01*
X11276075Y-14171659D02*
X11266551Y-14152612D01*
X11266551Y-14152612D02*
X11247503Y-14143088D01*
X11247503Y-14143088D02*
X11218932Y-14143088D01*
X11218932Y-14143088D02*
X11199884Y-14152612D01*
X11199884Y-14152612D02*
X11190360Y-14162135D01*
X11399884Y-14276421D02*
X11380837Y-14266897D01*
X11380837Y-14266897D02*
X11371313Y-14257374D01*
X11371313Y-14257374D02*
X11361789Y-14238326D01*
X11361789Y-14238326D02*
X11361789Y-14181183D01*
X11361789Y-14181183D02*
X11371313Y-14162135D01*
X11371313Y-14162135D02*
X11380837Y-14152612D01*
X11380837Y-14152612D02*
X11399884Y-14143088D01*
X11399884Y-14143088D02*
X11428456Y-14143088D01*
X11428456Y-14143088D02*
X11447503Y-14152612D01*
X11447503Y-14152612D02*
X11457027Y-14162135D01*
X11457027Y-14162135D02*
X11466551Y-14181183D01*
X11466551Y-14181183D02*
X11466551Y-14238326D01*
X11466551Y-14238326D02*
X11457027Y-14257374D01*
X11457027Y-14257374D02*
X11447503Y-14266897D01*
X11447503Y-14266897D02*
X11428456Y-14276421D01*
X11428456Y-14276421D02*
X11399884Y-14276421D01*
X11580837Y-14276421D02*
X11561789Y-14266897D01*
X11561789Y-14266897D02*
X11552265Y-14247850D01*
X11552265Y-14247850D02*
X11552265Y-14076421D01*
X11733218Y-14266897D02*
X11714170Y-14276421D01*
X11714170Y-14276421D02*
X11676075Y-14276421D01*
X11676075Y-14276421D02*
X11657027Y-14266897D01*
X11657027Y-14266897D02*
X11647503Y-14247850D01*
X11647503Y-14247850D02*
X11647503Y-14171659D01*
X11647503Y-14171659D02*
X11657027Y-14152612D01*
X11657027Y-14152612D02*
X11676075Y-14143088D01*
X11676075Y-14143088D02*
X11714170Y-14143088D01*
X11714170Y-14143088D02*
X11733218Y-14152612D01*
X11733218Y-14152612D02*
X11742741Y-14171659D01*
X11742741Y-14171659D02*
X11742741Y-14190707D01*
X11742741Y-14190707D02*
X11647503Y-14209755D01*
X11818932Y-14266897D02*
X11837980Y-14276421D01*
X11837980Y-14276421D02*
X11876075Y-14276421D01*
X11876075Y-14276421D02*
X11895122Y-14266897D01*
X11895122Y-14266897D02*
X11904646Y-14247850D01*
X11904646Y-14247850D02*
X11904646Y-14238326D01*
X11904646Y-14238326D02*
X11895122Y-14219278D01*
X11895122Y-14219278D02*
X11876075Y-14209755D01*
X11876075Y-14209755D02*
X11847503Y-14209755D01*
X11847503Y-14209755D02*
X11828456Y-14200231D01*
X11828456Y-14200231D02*
X11818932Y-14181183D01*
X11818932Y-14181183D02*
X11818932Y-14171659D01*
X11818932Y-14171659D02*
X11828456Y-14152612D01*
X11828456Y-14152612D02*
X11847503Y-14143088D01*
X11847503Y-14143088D02*
X11876075Y-14143088D01*
X11876075Y-14143088D02*
X11895122Y-14152612D01*
X11971313Y-14352612D02*
X11980837Y-14343088D01*
X11980837Y-14343088D02*
X11999884Y-14314516D01*
X11999884Y-14314516D02*
X12009408Y-14295469D01*
X12009408Y-14295469D02*
X12018932Y-14266897D01*
X12018932Y-14266897D02*
X12028456Y-14219278D01*
X12028456Y-14219278D02*
X12028456Y-14181183D01*
X12028456Y-14181183D02*
X12018932Y-14133564D01*
X12018932Y-14133564D02*
X12009408Y-14104993D01*
X12009408Y-14104993D02*
X11999884Y-14085945D01*
X11999884Y-14085945D02*
X11980837Y-14057374D01*
X11980837Y-14057374D02*
X11971313Y-14047850D01*
D14*
X7145450Y-14398137D02*
X7145450Y-14499737D01*
X7094650Y-14448937D02*
X7196250Y-14448937D01*
D11*
X7561789Y-14540421D02*
X7447503Y-14540421D01*
X7504646Y-14540421D02*
X7504646Y-14340421D01*
X7504646Y-14340421D02*
X7485598Y-14368993D01*
X7485598Y-14368993D02*
X7466551Y-14388040D01*
X7466551Y-14388040D02*
X7447503Y-14397564D01*
X7647503Y-14521374D02*
X7657027Y-14530897D01*
X7657027Y-14530897D02*
X7647503Y-14540421D01*
X7647503Y-14540421D02*
X7637979Y-14530897D01*
X7637979Y-14530897D02*
X7647503Y-14521374D01*
X7647503Y-14521374D02*
X7647503Y-14540421D01*
X7780836Y-14340421D02*
X7799884Y-14340421D01*
X7799884Y-14340421D02*
X7818932Y-14349945D01*
X7818932Y-14349945D02*
X7828455Y-14359469D01*
X7828455Y-14359469D02*
X7837979Y-14378516D01*
X7837979Y-14378516D02*
X7847503Y-14416612D01*
X7847503Y-14416612D02*
X7847503Y-14464231D01*
X7847503Y-14464231D02*
X7837979Y-14502326D01*
X7837979Y-14502326D02*
X7828455Y-14521374D01*
X7828455Y-14521374D02*
X7818932Y-14530897D01*
X7818932Y-14530897D02*
X7799884Y-14540421D01*
X7799884Y-14540421D02*
X7780836Y-14540421D01*
X7780836Y-14540421D02*
X7761789Y-14530897D01*
X7761789Y-14530897D02*
X7752265Y-14521374D01*
X7752265Y-14521374D02*
X7742741Y-14502326D01*
X7742741Y-14502326D02*
X7733217Y-14464231D01*
X7733217Y-14464231D02*
X7733217Y-14416612D01*
X7733217Y-14416612D02*
X7742741Y-14378516D01*
X7742741Y-14378516D02*
X7752265Y-14359469D01*
X7752265Y-14359469D02*
X7761789Y-14349945D01*
X7761789Y-14349945D02*
X7780836Y-14340421D01*
X8037979Y-14540421D02*
X7923693Y-14540421D01*
X7980836Y-14540421D02*
X7980836Y-14340421D01*
X7980836Y-14340421D02*
X7961789Y-14368993D01*
X7961789Y-14368993D02*
X7942741Y-14388040D01*
X7942741Y-14388040D02*
X7923693Y-14397564D01*
X8209408Y-14340421D02*
X8171312Y-14340421D01*
X8171312Y-14340421D02*
X8152265Y-14349945D01*
X8152265Y-14349945D02*
X8142741Y-14359469D01*
X8142741Y-14359469D02*
X8123693Y-14388040D01*
X8123693Y-14388040D02*
X8114170Y-14426135D01*
X8114170Y-14426135D02*
X8114170Y-14502326D01*
X8114170Y-14502326D02*
X8123693Y-14521374D01*
X8123693Y-14521374D02*
X8133217Y-14530897D01*
X8133217Y-14530897D02*
X8152265Y-14540421D01*
X8152265Y-14540421D02*
X8190360Y-14540421D01*
X8190360Y-14540421D02*
X8209408Y-14530897D01*
X8209408Y-14530897D02*
X8218932Y-14521374D01*
X8218932Y-14521374D02*
X8228455Y-14502326D01*
X8228455Y-14502326D02*
X8228455Y-14454707D01*
X8228455Y-14454707D02*
X8218932Y-14435659D01*
X8218932Y-14435659D02*
X8209408Y-14426135D01*
X8209408Y-14426135D02*
X8190360Y-14416612D01*
X8190360Y-14416612D02*
X8152265Y-14416612D01*
X8152265Y-14416612D02*
X8133217Y-14426135D01*
X8133217Y-14426135D02*
X8123693Y-14435659D01*
X8123693Y-14435659D02*
X8114170Y-14454707D01*
X8314170Y-14540421D02*
X8314170Y-14407088D01*
X8314170Y-14426135D02*
X8323693Y-14416612D01*
X8323693Y-14416612D02*
X8342741Y-14407088D01*
X8342741Y-14407088D02*
X8371313Y-14407088D01*
X8371313Y-14407088D02*
X8390360Y-14416612D01*
X8390360Y-14416612D02*
X8399884Y-14435659D01*
X8399884Y-14435659D02*
X8399884Y-14540421D01*
X8399884Y-14435659D02*
X8409408Y-14416612D01*
X8409408Y-14416612D02*
X8428455Y-14407088D01*
X8428455Y-14407088D02*
X8457027Y-14407088D01*
X8457027Y-14407088D02*
X8476075Y-14416612D01*
X8476075Y-14416612D02*
X8485598Y-14435659D01*
X8485598Y-14435659D02*
X8485598Y-14540421D01*
X8580836Y-14540421D02*
X8580836Y-14407088D01*
X8580836Y-14426135D02*
X8590360Y-14416612D01*
X8590360Y-14416612D02*
X8609408Y-14407088D01*
X8609408Y-14407088D02*
X8637979Y-14407088D01*
X8637979Y-14407088D02*
X8657027Y-14416612D01*
X8657027Y-14416612D02*
X8666551Y-14435659D01*
X8666551Y-14435659D02*
X8666551Y-14540421D01*
X8666551Y-14435659D02*
X8676075Y-14416612D01*
X8676075Y-14416612D02*
X8695122Y-14407088D01*
X8695122Y-14407088D02*
X8723694Y-14407088D01*
X8723694Y-14407088D02*
X8742741Y-14416612D01*
X8742741Y-14416612D02*
X8752265Y-14435659D01*
X8752265Y-14435659D02*
X8752265Y-14540421D01*
X9142741Y-14330897D02*
X8971313Y-14588040D01*
X9399884Y-14340421D02*
X9418932Y-14340421D01*
X9418932Y-14340421D02*
X9437979Y-14349945D01*
X9437979Y-14349945D02*
X9447503Y-14359469D01*
X9447503Y-14359469D02*
X9457027Y-14378516D01*
X9457027Y-14378516D02*
X9466551Y-14416612D01*
X9466551Y-14416612D02*
X9466551Y-14464231D01*
X9466551Y-14464231D02*
X9457027Y-14502326D01*
X9457027Y-14502326D02*
X9447503Y-14521374D01*
X9447503Y-14521374D02*
X9437979Y-14530897D01*
X9437979Y-14530897D02*
X9418932Y-14540421D01*
X9418932Y-14540421D02*
X9399884Y-14540421D01*
X9399884Y-14540421D02*
X9380837Y-14530897D01*
X9380837Y-14530897D02*
X9371313Y-14521374D01*
X9371313Y-14521374D02*
X9361789Y-14502326D01*
X9361789Y-14502326D02*
X9352265Y-14464231D01*
X9352265Y-14464231D02*
X9352265Y-14416612D01*
X9352265Y-14416612D02*
X9361789Y-14378516D01*
X9361789Y-14378516D02*
X9371313Y-14359469D01*
X9371313Y-14359469D02*
X9380837Y-14349945D01*
X9380837Y-14349945D02*
X9399884Y-14340421D01*
X9552265Y-14521374D02*
X9561789Y-14530897D01*
X9561789Y-14530897D02*
X9552265Y-14540421D01*
X9552265Y-14540421D02*
X9542741Y-14530897D01*
X9542741Y-14530897D02*
X9552265Y-14521374D01*
X9552265Y-14521374D02*
X9552265Y-14540421D01*
X9685598Y-14340421D02*
X9704646Y-14340421D01*
X9704646Y-14340421D02*
X9723694Y-14349945D01*
X9723694Y-14349945D02*
X9733218Y-14359469D01*
X9733218Y-14359469D02*
X9742741Y-14378516D01*
X9742741Y-14378516D02*
X9752265Y-14416612D01*
X9752265Y-14416612D02*
X9752265Y-14464231D01*
X9752265Y-14464231D02*
X9742741Y-14502326D01*
X9742741Y-14502326D02*
X9733218Y-14521374D01*
X9733218Y-14521374D02*
X9723694Y-14530897D01*
X9723694Y-14530897D02*
X9704646Y-14540421D01*
X9704646Y-14540421D02*
X9685598Y-14540421D01*
X9685598Y-14540421D02*
X9666551Y-14530897D01*
X9666551Y-14530897D02*
X9657027Y-14521374D01*
X9657027Y-14521374D02*
X9647503Y-14502326D01*
X9647503Y-14502326D02*
X9637979Y-14464231D01*
X9637979Y-14464231D02*
X9637979Y-14416612D01*
X9637979Y-14416612D02*
X9647503Y-14378516D01*
X9647503Y-14378516D02*
X9657027Y-14359469D01*
X9657027Y-14359469D02*
X9666551Y-14349945D01*
X9666551Y-14349945D02*
X9685598Y-14340421D01*
X9923694Y-14407088D02*
X9923694Y-14540421D01*
X9876075Y-14330897D02*
X9828456Y-14473755D01*
X9828456Y-14473755D02*
X9952265Y-14473755D01*
X10066551Y-14340421D02*
X10085599Y-14340421D01*
X10085599Y-14340421D02*
X10104646Y-14349945D01*
X10104646Y-14349945D02*
X10114170Y-14359469D01*
X10114170Y-14359469D02*
X10123694Y-14378516D01*
X10123694Y-14378516D02*
X10133218Y-14416612D01*
X10133218Y-14416612D02*
X10133218Y-14464231D01*
X10133218Y-14464231D02*
X10123694Y-14502326D01*
X10123694Y-14502326D02*
X10114170Y-14521374D01*
X10114170Y-14521374D02*
X10104646Y-14530897D01*
X10104646Y-14530897D02*
X10085599Y-14540421D01*
X10085599Y-14540421D02*
X10066551Y-14540421D01*
X10066551Y-14540421D02*
X10047503Y-14530897D01*
X10047503Y-14530897D02*
X10037979Y-14521374D01*
X10037979Y-14521374D02*
X10028456Y-14502326D01*
X10028456Y-14502326D02*
X10018932Y-14464231D01*
X10018932Y-14464231D02*
X10018932Y-14416612D01*
X10018932Y-14416612D02*
X10028456Y-14378516D01*
X10028456Y-14378516D02*
X10037979Y-14359469D01*
X10037979Y-14359469D02*
X10047503Y-14349945D01*
X10047503Y-14349945D02*
X10066551Y-14340421D01*
X10257027Y-14340421D02*
X10276075Y-14340421D01*
X10276075Y-14340421D02*
X10295122Y-14349945D01*
X10295122Y-14349945D02*
X10304646Y-14359469D01*
X10304646Y-14359469D02*
X10314170Y-14378516D01*
X10314170Y-14378516D02*
X10323694Y-14416612D01*
X10323694Y-14416612D02*
X10323694Y-14464231D01*
X10323694Y-14464231D02*
X10314170Y-14502326D01*
X10314170Y-14502326D02*
X10304646Y-14521374D01*
X10304646Y-14521374D02*
X10295122Y-14530897D01*
X10295122Y-14530897D02*
X10276075Y-14540421D01*
X10276075Y-14540421D02*
X10257027Y-14540421D01*
X10257027Y-14540421D02*
X10237979Y-14530897D01*
X10237979Y-14530897D02*
X10228456Y-14521374D01*
X10228456Y-14521374D02*
X10218932Y-14502326D01*
X10218932Y-14502326D02*
X10209408Y-14464231D01*
X10209408Y-14464231D02*
X10209408Y-14416612D01*
X10209408Y-14416612D02*
X10218932Y-14378516D01*
X10218932Y-14378516D02*
X10228456Y-14359469D01*
X10228456Y-14359469D02*
X10237979Y-14349945D01*
X10237979Y-14349945D02*
X10257027Y-14340421D01*
X10399884Y-14340421D02*
X10399884Y-14378516D01*
X10476075Y-14340421D02*
X10476075Y-14378516D01*
X10771313Y-14616612D02*
X10761789Y-14607088D01*
X10761789Y-14607088D02*
X10742741Y-14578516D01*
X10742741Y-14578516D02*
X10733218Y-14559469D01*
X10733218Y-14559469D02*
X10723694Y-14530897D01*
X10723694Y-14530897D02*
X10714170Y-14483278D01*
X10714170Y-14483278D02*
X10714170Y-14445183D01*
X10714170Y-14445183D02*
X10723694Y-14397564D01*
X10723694Y-14397564D02*
X10733218Y-14368993D01*
X10733218Y-14368993D02*
X10742741Y-14349945D01*
X10742741Y-14349945D02*
X10761789Y-14321374D01*
X10761789Y-14321374D02*
X10771313Y-14311850D01*
X10952265Y-14540421D02*
X10837980Y-14540421D01*
X10895122Y-14540421D02*
X10895122Y-14340421D01*
X10895122Y-14340421D02*
X10876075Y-14368993D01*
X10876075Y-14368993D02*
X10857027Y-14388040D01*
X10857027Y-14388040D02*
X10837980Y-14397564D01*
X11028456Y-14359469D02*
X11037980Y-14349945D01*
X11037980Y-14349945D02*
X11057027Y-14340421D01*
X11057027Y-14340421D02*
X11104646Y-14340421D01*
X11104646Y-14340421D02*
X11123694Y-14349945D01*
X11123694Y-14349945D02*
X11133218Y-14359469D01*
X11133218Y-14359469D02*
X11142741Y-14378516D01*
X11142741Y-14378516D02*
X11142741Y-14397564D01*
X11142741Y-14397564D02*
X11133218Y-14426135D01*
X11133218Y-14426135D02*
X11018932Y-14540421D01*
X11018932Y-14540421D02*
X11142741Y-14540421D01*
X11380837Y-14540421D02*
X11380837Y-14340421D01*
X11466551Y-14540421D02*
X11466551Y-14435659D01*
X11466551Y-14435659D02*
X11457027Y-14416612D01*
X11457027Y-14416612D02*
X11437980Y-14407088D01*
X11437980Y-14407088D02*
X11409408Y-14407088D01*
X11409408Y-14407088D02*
X11390360Y-14416612D01*
X11390360Y-14416612D02*
X11380837Y-14426135D01*
X11590360Y-14540421D02*
X11571313Y-14530897D01*
X11571313Y-14530897D02*
X11561789Y-14521374D01*
X11561789Y-14521374D02*
X11552265Y-14502326D01*
X11552265Y-14502326D02*
X11552265Y-14445183D01*
X11552265Y-14445183D02*
X11561789Y-14426135D01*
X11561789Y-14426135D02*
X11571313Y-14416612D01*
X11571313Y-14416612D02*
X11590360Y-14407088D01*
X11590360Y-14407088D02*
X11618932Y-14407088D01*
X11618932Y-14407088D02*
X11637980Y-14416612D01*
X11637980Y-14416612D02*
X11647503Y-14426135D01*
X11647503Y-14426135D02*
X11657027Y-14445183D01*
X11657027Y-14445183D02*
X11657027Y-14502326D01*
X11657027Y-14502326D02*
X11647503Y-14521374D01*
X11647503Y-14521374D02*
X11637980Y-14530897D01*
X11637980Y-14530897D02*
X11618932Y-14540421D01*
X11618932Y-14540421D02*
X11590360Y-14540421D01*
X11771313Y-14540421D02*
X11752265Y-14530897D01*
X11752265Y-14530897D02*
X11742741Y-14511850D01*
X11742741Y-14511850D02*
X11742741Y-14340421D01*
X11923694Y-14530897D02*
X11904646Y-14540421D01*
X11904646Y-14540421D02*
X11866551Y-14540421D01*
X11866551Y-14540421D02*
X11847503Y-14530897D01*
X11847503Y-14530897D02*
X11837980Y-14511850D01*
X11837980Y-14511850D02*
X11837980Y-14435659D01*
X11837980Y-14435659D02*
X11847503Y-14416612D01*
X11847503Y-14416612D02*
X11866551Y-14407088D01*
X11866551Y-14407088D02*
X11904646Y-14407088D01*
X11904646Y-14407088D02*
X11923694Y-14416612D01*
X11923694Y-14416612D02*
X11933218Y-14435659D01*
X11933218Y-14435659D02*
X11933218Y-14454707D01*
X11933218Y-14454707D02*
X11837980Y-14473755D01*
X12009408Y-14530897D02*
X12028456Y-14540421D01*
X12028456Y-14540421D02*
X12066551Y-14540421D01*
X12066551Y-14540421D02*
X12085599Y-14530897D01*
X12085599Y-14530897D02*
X12095122Y-14511850D01*
X12095122Y-14511850D02*
X12095122Y-14502326D01*
X12095122Y-14502326D02*
X12085599Y-14483278D01*
X12085599Y-14483278D02*
X12066551Y-14473755D01*
X12066551Y-14473755D02*
X12037980Y-14473755D01*
X12037980Y-14473755D02*
X12018932Y-14464231D01*
X12018932Y-14464231D02*
X12009408Y-14445183D01*
X12009408Y-14445183D02*
X12009408Y-14435659D01*
X12009408Y-14435659D02*
X12018932Y-14416612D01*
X12018932Y-14416612D02*
X12037980Y-14407088D01*
X12037980Y-14407088D02*
X12066551Y-14407088D01*
X12066551Y-14407088D02*
X12085599Y-14416612D01*
X12161789Y-14616612D02*
X12171313Y-14607088D01*
X12171313Y-14607088D02*
X12190361Y-14578516D01*
X12190361Y-14578516D02*
X12199884Y-14559469D01*
X12199884Y-14559469D02*
X12209408Y-14530897D01*
X12209408Y-14530897D02*
X12218932Y-14483278D01*
X12218932Y-14483278D02*
X12218932Y-14445183D01*
X12218932Y-14445183D02*
X12209408Y-14397564D01*
X12209408Y-14397564D02*
X12199884Y-14368993D01*
X12199884Y-14368993D02*
X12190361Y-14349945D01*
X12190361Y-14349945D02*
X12171313Y-14321374D01*
X12171313Y-14321374D02*
X12161789Y-14311850D01*
D15*
X7174283Y-14765971D02*
X7174283Y-14659904D01*
X7068216Y-14659904D01*
X7068216Y-14765971D01*
X7174283Y-14765971D01*
D11*
X7561789Y-14804421D02*
X7447503Y-14804421D01*
X7504646Y-14804421D02*
X7504646Y-14604421D01*
X7504646Y-14604421D02*
X7485598Y-14632993D01*
X7485598Y-14632993D02*
X7466551Y-14652040D01*
X7466551Y-14652040D02*
X7447503Y-14661564D01*
X7647503Y-14785374D02*
X7657027Y-14794897D01*
X7657027Y-14794897D02*
X7647503Y-14804421D01*
X7647503Y-14804421D02*
X7637979Y-14794897D01*
X7637979Y-14794897D02*
X7647503Y-14785374D01*
X7647503Y-14785374D02*
X7647503Y-14804421D01*
X7837979Y-14604421D02*
X7742741Y-14604421D01*
X7742741Y-14604421D02*
X7733217Y-14699659D01*
X7733217Y-14699659D02*
X7742741Y-14690135D01*
X7742741Y-14690135D02*
X7761789Y-14680612D01*
X7761789Y-14680612D02*
X7809408Y-14680612D01*
X7809408Y-14680612D02*
X7828455Y-14690135D01*
X7828455Y-14690135D02*
X7837979Y-14699659D01*
X7837979Y-14699659D02*
X7847503Y-14718707D01*
X7847503Y-14718707D02*
X7847503Y-14766326D01*
X7847503Y-14766326D02*
X7837979Y-14785374D01*
X7837979Y-14785374D02*
X7828455Y-14794897D01*
X7828455Y-14794897D02*
X7809408Y-14804421D01*
X7809408Y-14804421D02*
X7761789Y-14804421D01*
X7761789Y-14804421D02*
X7742741Y-14794897D01*
X7742741Y-14794897D02*
X7733217Y-14785374D01*
X7971312Y-14604421D02*
X7990360Y-14604421D01*
X7990360Y-14604421D02*
X8009408Y-14613945D01*
X8009408Y-14613945D02*
X8018932Y-14623469D01*
X8018932Y-14623469D02*
X8028455Y-14642516D01*
X8028455Y-14642516D02*
X8037979Y-14680612D01*
X8037979Y-14680612D02*
X8037979Y-14728231D01*
X8037979Y-14728231D02*
X8028455Y-14766326D01*
X8028455Y-14766326D02*
X8018932Y-14785374D01*
X8018932Y-14785374D02*
X8009408Y-14794897D01*
X8009408Y-14794897D02*
X7990360Y-14804421D01*
X7990360Y-14804421D02*
X7971312Y-14804421D01*
X7971312Y-14804421D02*
X7952265Y-14794897D01*
X7952265Y-14794897D02*
X7942741Y-14785374D01*
X7942741Y-14785374D02*
X7933217Y-14766326D01*
X7933217Y-14766326D02*
X7923693Y-14728231D01*
X7923693Y-14728231D02*
X7923693Y-14680612D01*
X7923693Y-14680612D02*
X7933217Y-14642516D01*
X7933217Y-14642516D02*
X7942741Y-14623469D01*
X7942741Y-14623469D02*
X7952265Y-14613945D01*
X7952265Y-14613945D02*
X7971312Y-14604421D01*
X8161789Y-14604421D02*
X8180836Y-14604421D01*
X8180836Y-14604421D02*
X8199884Y-14613945D01*
X8199884Y-14613945D02*
X8209408Y-14623469D01*
X8209408Y-14623469D02*
X8218932Y-14642516D01*
X8218932Y-14642516D02*
X8228455Y-14680612D01*
X8228455Y-14680612D02*
X8228455Y-14728231D01*
X8228455Y-14728231D02*
X8218932Y-14766326D01*
X8218932Y-14766326D02*
X8209408Y-14785374D01*
X8209408Y-14785374D02*
X8199884Y-14794897D01*
X8199884Y-14794897D02*
X8180836Y-14804421D01*
X8180836Y-14804421D02*
X8161789Y-14804421D01*
X8161789Y-14804421D02*
X8142741Y-14794897D01*
X8142741Y-14794897D02*
X8133217Y-14785374D01*
X8133217Y-14785374D02*
X8123693Y-14766326D01*
X8123693Y-14766326D02*
X8114170Y-14728231D01*
X8114170Y-14728231D02*
X8114170Y-14680612D01*
X8114170Y-14680612D02*
X8123693Y-14642516D01*
X8123693Y-14642516D02*
X8133217Y-14623469D01*
X8133217Y-14623469D02*
X8142741Y-14613945D01*
X8142741Y-14613945D02*
X8161789Y-14604421D01*
X8314170Y-14804421D02*
X8314170Y-14671088D01*
X8314170Y-14690135D02*
X8323693Y-14680612D01*
X8323693Y-14680612D02*
X8342741Y-14671088D01*
X8342741Y-14671088D02*
X8371313Y-14671088D01*
X8371313Y-14671088D02*
X8390360Y-14680612D01*
X8390360Y-14680612D02*
X8399884Y-14699659D01*
X8399884Y-14699659D02*
X8399884Y-14804421D01*
X8399884Y-14699659D02*
X8409408Y-14680612D01*
X8409408Y-14680612D02*
X8428455Y-14671088D01*
X8428455Y-14671088D02*
X8457027Y-14671088D01*
X8457027Y-14671088D02*
X8476075Y-14680612D01*
X8476075Y-14680612D02*
X8485598Y-14699659D01*
X8485598Y-14699659D02*
X8485598Y-14804421D01*
X8580836Y-14804421D02*
X8580836Y-14671088D01*
X8580836Y-14690135D02*
X8590360Y-14680612D01*
X8590360Y-14680612D02*
X8609408Y-14671088D01*
X8609408Y-14671088D02*
X8637979Y-14671088D01*
X8637979Y-14671088D02*
X8657027Y-14680612D01*
X8657027Y-14680612D02*
X8666551Y-14699659D01*
X8666551Y-14699659D02*
X8666551Y-14804421D01*
X8666551Y-14699659D02*
X8676075Y-14680612D01*
X8676075Y-14680612D02*
X8695122Y-14671088D01*
X8695122Y-14671088D02*
X8723694Y-14671088D01*
X8723694Y-14671088D02*
X8742741Y-14680612D01*
X8742741Y-14680612D02*
X8752265Y-14699659D01*
X8752265Y-14699659D02*
X8752265Y-14804421D01*
X9142741Y-14594897D02*
X8971313Y-14852040D01*
X9399884Y-14604421D02*
X9418932Y-14604421D01*
X9418932Y-14604421D02*
X9437979Y-14613945D01*
X9437979Y-14613945D02*
X9447503Y-14623469D01*
X9447503Y-14623469D02*
X9457027Y-14642516D01*
X9457027Y-14642516D02*
X9466551Y-14680612D01*
X9466551Y-14680612D02*
X9466551Y-14728231D01*
X9466551Y-14728231D02*
X9457027Y-14766326D01*
X9457027Y-14766326D02*
X9447503Y-14785374D01*
X9447503Y-14785374D02*
X9437979Y-14794897D01*
X9437979Y-14794897D02*
X9418932Y-14804421D01*
X9418932Y-14804421D02*
X9399884Y-14804421D01*
X9399884Y-14804421D02*
X9380837Y-14794897D01*
X9380837Y-14794897D02*
X9371313Y-14785374D01*
X9371313Y-14785374D02*
X9361789Y-14766326D01*
X9361789Y-14766326D02*
X9352265Y-14728231D01*
X9352265Y-14728231D02*
X9352265Y-14680612D01*
X9352265Y-14680612D02*
X9361789Y-14642516D01*
X9361789Y-14642516D02*
X9371313Y-14623469D01*
X9371313Y-14623469D02*
X9380837Y-14613945D01*
X9380837Y-14613945D02*
X9399884Y-14604421D01*
X9552265Y-14785374D02*
X9561789Y-14794897D01*
X9561789Y-14794897D02*
X9552265Y-14804421D01*
X9552265Y-14804421D02*
X9542741Y-14794897D01*
X9542741Y-14794897D02*
X9552265Y-14785374D01*
X9552265Y-14785374D02*
X9552265Y-14804421D01*
X9685598Y-14604421D02*
X9704646Y-14604421D01*
X9704646Y-14604421D02*
X9723694Y-14613945D01*
X9723694Y-14613945D02*
X9733218Y-14623469D01*
X9733218Y-14623469D02*
X9742741Y-14642516D01*
X9742741Y-14642516D02*
X9752265Y-14680612D01*
X9752265Y-14680612D02*
X9752265Y-14728231D01*
X9752265Y-14728231D02*
X9742741Y-14766326D01*
X9742741Y-14766326D02*
X9733218Y-14785374D01*
X9733218Y-14785374D02*
X9723694Y-14794897D01*
X9723694Y-14794897D02*
X9704646Y-14804421D01*
X9704646Y-14804421D02*
X9685598Y-14804421D01*
X9685598Y-14804421D02*
X9666551Y-14794897D01*
X9666551Y-14794897D02*
X9657027Y-14785374D01*
X9657027Y-14785374D02*
X9647503Y-14766326D01*
X9647503Y-14766326D02*
X9637979Y-14728231D01*
X9637979Y-14728231D02*
X9637979Y-14680612D01*
X9637979Y-14680612D02*
X9647503Y-14642516D01*
X9647503Y-14642516D02*
X9657027Y-14623469D01*
X9657027Y-14623469D02*
X9666551Y-14613945D01*
X9666551Y-14613945D02*
X9685598Y-14604421D01*
X9933218Y-14604421D02*
X9837979Y-14604421D01*
X9837979Y-14604421D02*
X9828456Y-14699659D01*
X9828456Y-14699659D02*
X9837979Y-14690135D01*
X9837979Y-14690135D02*
X9857027Y-14680612D01*
X9857027Y-14680612D02*
X9904646Y-14680612D01*
X9904646Y-14680612D02*
X9923694Y-14690135D01*
X9923694Y-14690135D02*
X9933218Y-14699659D01*
X9933218Y-14699659D02*
X9942741Y-14718707D01*
X9942741Y-14718707D02*
X9942741Y-14766326D01*
X9942741Y-14766326D02*
X9933218Y-14785374D01*
X9933218Y-14785374D02*
X9923694Y-14794897D01*
X9923694Y-14794897D02*
X9904646Y-14804421D01*
X9904646Y-14804421D02*
X9857027Y-14804421D01*
X9857027Y-14804421D02*
X9837979Y-14794897D01*
X9837979Y-14794897D02*
X9828456Y-14785374D01*
X10037979Y-14804421D02*
X10076075Y-14804421D01*
X10076075Y-14804421D02*
X10095122Y-14794897D01*
X10095122Y-14794897D02*
X10104646Y-14785374D01*
X10104646Y-14785374D02*
X10123694Y-14756802D01*
X10123694Y-14756802D02*
X10133218Y-14718707D01*
X10133218Y-14718707D02*
X10133218Y-14642516D01*
X10133218Y-14642516D02*
X10123694Y-14623469D01*
X10123694Y-14623469D02*
X10114170Y-14613945D01*
X10114170Y-14613945D02*
X10095122Y-14604421D01*
X10095122Y-14604421D02*
X10057027Y-14604421D01*
X10057027Y-14604421D02*
X10037979Y-14613945D01*
X10037979Y-14613945D02*
X10028456Y-14623469D01*
X10028456Y-14623469D02*
X10018932Y-14642516D01*
X10018932Y-14642516D02*
X10018932Y-14690135D01*
X10018932Y-14690135D02*
X10028456Y-14709183D01*
X10028456Y-14709183D02*
X10037979Y-14718707D01*
X10037979Y-14718707D02*
X10057027Y-14728231D01*
X10057027Y-14728231D02*
X10095122Y-14728231D01*
X10095122Y-14728231D02*
X10114170Y-14718707D01*
X10114170Y-14718707D02*
X10123694Y-14709183D01*
X10123694Y-14709183D02*
X10133218Y-14690135D01*
X10323694Y-14804421D02*
X10209408Y-14804421D01*
X10266551Y-14804421D02*
X10266551Y-14604421D01*
X10266551Y-14604421D02*
X10247503Y-14632993D01*
X10247503Y-14632993D02*
X10228456Y-14652040D01*
X10228456Y-14652040D02*
X10209408Y-14661564D01*
X10399884Y-14604421D02*
X10399884Y-14642516D01*
X10476075Y-14604421D02*
X10476075Y-14642516D01*
X10771313Y-14880612D02*
X10761789Y-14871088D01*
X10761789Y-14871088D02*
X10742741Y-14842516D01*
X10742741Y-14842516D02*
X10733218Y-14823469D01*
X10733218Y-14823469D02*
X10723694Y-14794897D01*
X10723694Y-14794897D02*
X10714170Y-14747278D01*
X10714170Y-14747278D02*
X10714170Y-14709183D01*
X10714170Y-14709183D02*
X10723694Y-14661564D01*
X10723694Y-14661564D02*
X10733218Y-14632993D01*
X10733218Y-14632993D02*
X10742741Y-14613945D01*
X10742741Y-14613945D02*
X10761789Y-14585374D01*
X10761789Y-14585374D02*
X10771313Y-14575850D01*
X10876075Y-14690135D02*
X10857027Y-14680612D01*
X10857027Y-14680612D02*
X10847503Y-14671088D01*
X10847503Y-14671088D02*
X10837980Y-14652040D01*
X10837980Y-14652040D02*
X10837980Y-14642516D01*
X10837980Y-14642516D02*
X10847503Y-14623469D01*
X10847503Y-14623469D02*
X10857027Y-14613945D01*
X10857027Y-14613945D02*
X10876075Y-14604421D01*
X10876075Y-14604421D02*
X10914170Y-14604421D01*
X10914170Y-14604421D02*
X10933218Y-14613945D01*
X10933218Y-14613945D02*
X10942741Y-14623469D01*
X10942741Y-14623469D02*
X10952265Y-14642516D01*
X10952265Y-14642516D02*
X10952265Y-14652040D01*
X10952265Y-14652040D02*
X10942741Y-14671088D01*
X10942741Y-14671088D02*
X10933218Y-14680612D01*
X10933218Y-14680612D02*
X10914170Y-14690135D01*
X10914170Y-14690135D02*
X10876075Y-14690135D01*
X10876075Y-14690135D02*
X10857027Y-14699659D01*
X10857027Y-14699659D02*
X10847503Y-14709183D01*
X10847503Y-14709183D02*
X10837980Y-14728231D01*
X10837980Y-14728231D02*
X10837980Y-14766326D01*
X10837980Y-14766326D02*
X10847503Y-14785374D01*
X10847503Y-14785374D02*
X10857027Y-14794897D01*
X10857027Y-14794897D02*
X10876075Y-14804421D01*
X10876075Y-14804421D02*
X10914170Y-14804421D01*
X10914170Y-14804421D02*
X10933218Y-14794897D01*
X10933218Y-14794897D02*
X10942741Y-14785374D01*
X10942741Y-14785374D02*
X10952265Y-14766326D01*
X10952265Y-14766326D02*
X10952265Y-14728231D01*
X10952265Y-14728231D02*
X10942741Y-14709183D01*
X10942741Y-14709183D02*
X10933218Y-14699659D01*
X10933218Y-14699659D02*
X10914170Y-14690135D01*
X11123694Y-14671088D02*
X11123694Y-14804421D01*
X11076075Y-14594897D02*
X11028456Y-14737755D01*
X11028456Y-14737755D02*
X11152265Y-14737755D01*
X11380837Y-14804421D02*
X11380837Y-14604421D01*
X11466551Y-14804421D02*
X11466551Y-14699659D01*
X11466551Y-14699659D02*
X11457027Y-14680612D01*
X11457027Y-14680612D02*
X11437980Y-14671088D01*
X11437980Y-14671088D02*
X11409408Y-14671088D01*
X11409408Y-14671088D02*
X11390360Y-14680612D01*
X11390360Y-14680612D02*
X11380837Y-14690135D01*
X11590360Y-14804421D02*
X11571313Y-14794897D01*
X11571313Y-14794897D02*
X11561789Y-14785374D01*
X11561789Y-14785374D02*
X11552265Y-14766326D01*
X11552265Y-14766326D02*
X11552265Y-14709183D01*
X11552265Y-14709183D02*
X11561789Y-14690135D01*
X11561789Y-14690135D02*
X11571313Y-14680612D01*
X11571313Y-14680612D02*
X11590360Y-14671088D01*
X11590360Y-14671088D02*
X11618932Y-14671088D01*
X11618932Y-14671088D02*
X11637980Y-14680612D01*
X11637980Y-14680612D02*
X11647503Y-14690135D01*
X11647503Y-14690135D02*
X11657027Y-14709183D01*
X11657027Y-14709183D02*
X11657027Y-14766326D01*
X11657027Y-14766326D02*
X11647503Y-14785374D01*
X11647503Y-14785374D02*
X11637980Y-14794897D01*
X11637980Y-14794897D02*
X11618932Y-14804421D01*
X11618932Y-14804421D02*
X11590360Y-14804421D01*
X11771313Y-14804421D02*
X11752265Y-14794897D01*
X11752265Y-14794897D02*
X11742741Y-14775850D01*
X11742741Y-14775850D02*
X11742741Y-14604421D01*
X11923694Y-14794897D02*
X11904646Y-14804421D01*
X11904646Y-14804421D02*
X11866551Y-14804421D01*
X11866551Y-14804421D02*
X11847503Y-14794897D01*
X11847503Y-14794897D02*
X11837980Y-14775850D01*
X11837980Y-14775850D02*
X11837980Y-14699659D01*
X11837980Y-14699659D02*
X11847503Y-14680612D01*
X11847503Y-14680612D02*
X11866551Y-14671088D01*
X11866551Y-14671088D02*
X11904646Y-14671088D01*
X11904646Y-14671088D02*
X11923694Y-14680612D01*
X11923694Y-14680612D02*
X11933218Y-14699659D01*
X11933218Y-14699659D02*
X11933218Y-14718707D01*
X11933218Y-14718707D02*
X11837980Y-14737755D01*
X12009408Y-14794897D02*
X12028456Y-14804421D01*
X12028456Y-14804421D02*
X12066551Y-14804421D01*
X12066551Y-14804421D02*
X12085599Y-14794897D01*
X12085599Y-14794897D02*
X12095122Y-14775850D01*
X12095122Y-14775850D02*
X12095122Y-14766326D01*
X12095122Y-14766326D02*
X12085599Y-14747278D01*
X12085599Y-14747278D02*
X12066551Y-14737755D01*
X12066551Y-14737755D02*
X12037980Y-14737755D01*
X12037980Y-14737755D02*
X12018932Y-14728231D01*
X12018932Y-14728231D02*
X12009408Y-14709183D01*
X12009408Y-14709183D02*
X12009408Y-14699659D01*
X12009408Y-14699659D02*
X12018932Y-14680612D01*
X12018932Y-14680612D02*
X12037980Y-14671088D01*
X12037980Y-14671088D02*
X12066551Y-14671088D01*
X12066551Y-14671088D02*
X12085599Y-14680612D01*
X12161789Y-14880612D02*
X12171313Y-14871088D01*
X12171313Y-14871088D02*
X12190361Y-14842516D01*
X12190361Y-14842516D02*
X12199884Y-14823469D01*
X12199884Y-14823469D02*
X12209408Y-14794897D01*
X12209408Y-14794897D02*
X12218932Y-14747278D01*
X12218932Y-14747278D02*
X12218932Y-14709183D01*
X12218932Y-14709183D02*
X12209408Y-14661564D01*
X12209408Y-14661564D02*
X12199884Y-14632993D01*
X12199884Y-14632993D02*
X12190361Y-14613945D01*
X12190361Y-14613945D02*
X12171313Y-14585374D01*
X12171313Y-14585374D02*
X12161789Y-14575850D01*
M02*
