%TF.GenerationSoftware,KiCad,Pcbnew,7.0.6*%
%TF.CreationDate,2023-09-12T11:18:15+08:00*%
%TF.ProjectId,kbv2,6b627632-2e6b-4696-9361-645f70636258,rev?*%
%TF.SameCoordinates,Original*%
%TF.FileFunction,Drillmap*%
%TF.FilePolarity,Positive*%
%FSLAX45Y45*%
G04 Gerber Fmt 4.5, Leading zero omitted, Abs format (unit mm)*
G04 Created by KiCad (PCBNEW 7.0.6) date 2023-09-12 11:18:15*
%MOMM*%
%LPD*%
G01*
G04 APERTURE LIST*
%ADD10C,0.100000*%
%ADD11C,0.200000*%
%ADD12C,0.270000*%
%ADD13C,0.525000*%
G04 APERTURE END LIST*
D10*
X12519375Y-10418438D02*
X12519375Y-10894688D01*
X7201250Y-6052812D02*
X10614375Y-6052812D01*
X14821250Y-6052812D02*
X20456875Y-6052812D01*
X12519375Y-5576563D02*
X12916250Y-5576563D01*
X10614375Y-10894688D02*
X10614375Y-11370937D01*
X12916250Y-5100313D02*
X14424375Y-5100313D01*
X14821250Y-10418438D02*
X14424375Y-10418438D01*
X20456875Y-10934375D02*
X19663125Y-11767812D01*
X19663125Y-11767812D02*
X19663125Y-13275937D01*
X14821250Y-11767812D02*
X14821250Y-10418438D01*
X12916250Y-10418438D02*
X12519375Y-10418438D01*
X9106250Y-11370937D02*
X7201250Y-11370937D01*
X12916250Y-5576563D02*
X12916250Y-5100313D01*
X7201250Y-11370937D02*
X7201250Y-6052812D01*
X20456875Y-6052812D02*
X20456875Y-10934375D01*
X11011250Y-5576563D02*
X12519375Y-5576563D01*
X14345000Y-13275937D02*
X14345000Y-11767812D01*
X14424375Y-10418438D02*
X12916250Y-10418438D01*
X10614375Y-6052812D02*
X11011250Y-6052812D01*
X14424375Y-5100313D02*
X14424375Y-6052812D01*
X11011250Y-10894688D02*
X10614375Y-10894688D01*
X14345000Y-11767812D02*
X14821250Y-11767812D01*
X10614375Y-11370937D02*
X9106250Y-11370937D01*
X14424375Y-6052812D02*
X14821250Y-6052812D01*
X19663125Y-13275937D02*
X14345000Y-13275937D01*
X12519375Y-10894688D02*
X11011250Y-10894688D01*
X11011250Y-6052812D02*
X11011250Y-5576563D01*
D11*
D12*
X8772813Y-7624375D02*
X9042813Y-7894375D01*
X9042813Y-7624375D02*
X8772813Y-7894375D01*
X8772813Y-9529375D02*
X9042813Y-9799375D01*
X9042813Y-9529375D02*
X8772813Y-9799375D01*
X16392812Y-7624375D02*
X16662812Y-7894375D01*
X16662812Y-7624375D02*
X16392812Y-7894375D01*
X16392812Y-9529375D02*
X16662812Y-9799375D01*
X16662812Y-9529375D02*
X16392812Y-9799375D01*
D13*
X8217812Y-6806875D02*
G75*
G03*
X8217812Y-6806875I-262500J0D01*
G01*
X8217812Y-8711875D02*
G75*
G03*
X8217812Y-8711875I-262500J0D01*
G01*
X8217812Y-10616875D02*
G75*
G03*
X8217812Y-10616875I-262500J0D01*
G01*
X10122813Y-6806875D02*
G75*
G03*
X10122813Y-6806875I-262500J0D01*
G01*
X10122813Y-8711875D02*
G75*
G03*
X10122813Y-8711875I-262500J0D01*
G01*
X10122813Y-10616875D02*
G75*
G03*
X10122813Y-10616875I-262500J0D01*
G01*
X12027812Y-6330625D02*
G75*
G03*
X12027812Y-6330625I-262500J0D01*
G01*
X12027812Y-8235625D02*
G75*
G03*
X12027812Y-8235625I-262500J0D01*
G01*
X12027812Y-10140625D02*
G75*
G03*
X12027812Y-10140625I-262500J0D01*
G01*
X13932812Y-5854375D02*
G75*
G03*
X13932812Y-5854375I-262500J0D01*
G01*
X13932812Y-7759375D02*
G75*
G03*
X13932812Y-7759375I-262500J0D01*
G01*
X13932812Y-9664375D02*
G75*
G03*
X13932812Y-9664375I-262500J0D01*
G01*
X15361562Y-12521875D02*
G75*
G03*
X15361562Y-12521875I-262500J0D01*
G01*
X15837812Y-6806875D02*
G75*
G03*
X15837812Y-6806875I-262500J0D01*
G01*
X15837812Y-8711875D02*
G75*
G03*
X15837812Y-8711875I-262500J0D01*
G01*
X15837812Y-10616875D02*
G75*
G03*
X15837812Y-10616875I-262500J0D01*
G01*
X17266563Y-12521875D02*
G75*
G03*
X17266563Y-12521875I-262500J0D01*
G01*
X17742813Y-6806875D02*
G75*
G03*
X17742813Y-6806875I-262500J0D01*
G01*
X17742813Y-8711875D02*
G75*
G03*
X17742813Y-8711875I-262500J0D01*
G01*
X17742813Y-10616875D02*
G75*
G03*
X17742813Y-10616875I-262500J0D01*
G01*
X19171563Y-12521875D02*
G75*
G03*
X19171563Y-12521875I-262500J0D01*
G01*
D11*
X7457027Y-13592421D02*
X7457027Y-13392421D01*
X7457027Y-13392421D02*
X7504646Y-13392421D01*
X7504646Y-13392421D02*
X7533217Y-13401945D01*
X7533217Y-13401945D02*
X7552265Y-13420993D01*
X7552265Y-13420993D02*
X7561789Y-13440040D01*
X7561789Y-13440040D02*
X7571312Y-13478135D01*
X7571312Y-13478135D02*
X7571312Y-13506707D01*
X7571312Y-13506707D02*
X7561789Y-13544802D01*
X7561789Y-13544802D02*
X7552265Y-13563850D01*
X7552265Y-13563850D02*
X7533217Y-13582897D01*
X7533217Y-13582897D02*
X7504646Y-13592421D01*
X7504646Y-13592421D02*
X7457027Y-13592421D01*
X7657027Y-13592421D02*
X7657027Y-13459088D01*
X7657027Y-13497183D02*
X7666551Y-13478135D01*
X7666551Y-13478135D02*
X7676074Y-13468612D01*
X7676074Y-13468612D02*
X7695122Y-13459088D01*
X7695122Y-13459088D02*
X7714170Y-13459088D01*
X7780836Y-13592421D02*
X7780836Y-13459088D01*
X7780836Y-13392421D02*
X7771312Y-13401945D01*
X7771312Y-13401945D02*
X7780836Y-13411469D01*
X7780836Y-13411469D02*
X7790360Y-13401945D01*
X7790360Y-13401945D02*
X7780836Y-13392421D01*
X7780836Y-13392421D02*
X7780836Y-13411469D01*
X7904646Y-13592421D02*
X7885598Y-13582897D01*
X7885598Y-13582897D02*
X7876074Y-13563850D01*
X7876074Y-13563850D02*
X7876074Y-13392421D01*
X8009408Y-13592421D02*
X7990360Y-13582897D01*
X7990360Y-13582897D02*
X7980836Y-13563850D01*
X7980836Y-13563850D02*
X7980836Y-13392421D01*
X8237979Y-13592421D02*
X8237979Y-13392421D01*
X8237979Y-13392421D02*
X8304646Y-13535278D01*
X8304646Y-13535278D02*
X8371312Y-13392421D01*
X8371312Y-13392421D02*
X8371312Y-13592421D01*
X8552265Y-13592421D02*
X8552265Y-13487659D01*
X8552265Y-13487659D02*
X8542741Y-13468612D01*
X8542741Y-13468612D02*
X8523694Y-13459088D01*
X8523694Y-13459088D02*
X8485598Y-13459088D01*
X8485598Y-13459088D02*
X8466551Y-13468612D01*
X8552265Y-13582897D02*
X8533217Y-13592421D01*
X8533217Y-13592421D02*
X8485598Y-13592421D01*
X8485598Y-13592421D02*
X8466551Y-13582897D01*
X8466551Y-13582897D02*
X8457027Y-13563850D01*
X8457027Y-13563850D02*
X8457027Y-13544802D01*
X8457027Y-13544802D02*
X8466551Y-13525755D01*
X8466551Y-13525755D02*
X8485598Y-13516231D01*
X8485598Y-13516231D02*
X8533217Y-13516231D01*
X8533217Y-13516231D02*
X8552265Y-13506707D01*
X8647503Y-13459088D02*
X8647503Y-13659088D01*
X8647503Y-13468612D02*
X8666551Y-13459088D01*
X8666551Y-13459088D02*
X8704646Y-13459088D01*
X8704646Y-13459088D02*
X8723694Y-13468612D01*
X8723694Y-13468612D02*
X8733217Y-13478135D01*
X8733217Y-13478135D02*
X8742741Y-13497183D01*
X8742741Y-13497183D02*
X8742741Y-13554326D01*
X8742741Y-13554326D02*
X8733217Y-13573374D01*
X8733217Y-13573374D02*
X8723694Y-13582897D01*
X8723694Y-13582897D02*
X8704646Y-13592421D01*
X8704646Y-13592421D02*
X8666551Y-13592421D01*
X8666551Y-13592421D02*
X8647503Y-13582897D01*
X8828455Y-13573374D02*
X8837979Y-13582897D01*
X8837979Y-13582897D02*
X8828455Y-13592421D01*
X8828455Y-13592421D02*
X8818932Y-13582897D01*
X8818932Y-13582897D02*
X8828455Y-13573374D01*
X8828455Y-13573374D02*
X8828455Y-13592421D01*
X8828455Y-13468612D02*
X8837979Y-13478135D01*
X8837979Y-13478135D02*
X8828455Y-13487659D01*
X8828455Y-13487659D02*
X8818932Y-13478135D01*
X8818932Y-13478135D02*
X8828455Y-13468612D01*
X8828455Y-13468612D02*
X8828455Y-13487659D01*
X6996250Y-13820937D02*
X7196250Y-14020937D01*
X7196250Y-13820937D02*
X6996250Y-14020937D01*
X7447503Y-13831469D02*
X7457027Y-13821945D01*
X7457027Y-13821945D02*
X7476074Y-13812421D01*
X7476074Y-13812421D02*
X7523693Y-13812421D01*
X7523693Y-13812421D02*
X7542741Y-13821945D01*
X7542741Y-13821945D02*
X7552265Y-13831469D01*
X7552265Y-13831469D02*
X7561789Y-13850516D01*
X7561789Y-13850516D02*
X7561789Y-13869564D01*
X7561789Y-13869564D02*
X7552265Y-13898135D01*
X7552265Y-13898135D02*
X7437979Y-14012421D01*
X7437979Y-14012421D02*
X7561789Y-14012421D01*
X7647503Y-13993374D02*
X7657027Y-14002897D01*
X7657027Y-14002897D02*
X7647503Y-14012421D01*
X7647503Y-14012421D02*
X7637979Y-14002897D01*
X7637979Y-14002897D02*
X7647503Y-13993374D01*
X7647503Y-13993374D02*
X7647503Y-14012421D01*
X7723693Y-13812421D02*
X7857027Y-13812421D01*
X7857027Y-13812421D02*
X7771312Y-14012421D01*
X7971312Y-13812421D02*
X7990360Y-13812421D01*
X7990360Y-13812421D02*
X8009408Y-13821945D01*
X8009408Y-13821945D02*
X8018932Y-13831469D01*
X8018932Y-13831469D02*
X8028455Y-13850516D01*
X8028455Y-13850516D02*
X8037979Y-13888612D01*
X8037979Y-13888612D02*
X8037979Y-13936231D01*
X8037979Y-13936231D02*
X8028455Y-13974326D01*
X8028455Y-13974326D02*
X8018932Y-13993374D01*
X8018932Y-13993374D02*
X8009408Y-14002897D01*
X8009408Y-14002897D02*
X7990360Y-14012421D01*
X7990360Y-14012421D02*
X7971312Y-14012421D01*
X7971312Y-14012421D02*
X7952265Y-14002897D01*
X7952265Y-14002897D02*
X7942741Y-13993374D01*
X7942741Y-13993374D02*
X7933217Y-13974326D01*
X7933217Y-13974326D02*
X7923693Y-13936231D01*
X7923693Y-13936231D02*
X7923693Y-13888612D01*
X7923693Y-13888612D02*
X7933217Y-13850516D01*
X7933217Y-13850516D02*
X7942741Y-13831469D01*
X7942741Y-13831469D02*
X7952265Y-13821945D01*
X7952265Y-13821945D02*
X7971312Y-13812421D01*
X8161789Y-13812421D02*
X8180836Y-13812421D01*
X8180836Y-13812421D02*
X8199884Y-13821945D01*
X8199884Y-13821945D02*
X8209408Y-13831469D01*
X8209408Y-13831469D02*
X8218932Y-13850516D01*
X8218932Y-13850516D02*
X8228455Y-13888612D01*
X8228455Y-13888612D02*
X8228455Y-13936231D01*
X8228455Y-13936231D02*
X8218932Y-13974326D01*
X8218932Y-13974326D02*
X8209408Y-13993374D01*
X8209408Y-13993374D02*
X8199884Y-14002897D01*
X8199884Y-14002897D02*
X8180836Y-14012421D01*
X8180836Y-14012421D02*
X8161789Y-14012421D01*
X8161789Y-14012421D02*
X8142741Y-14002897D01*
X8142741Y-14002897D02*
X8133217Y-13993374D01*
X8133217Y-13993374D02*
X8123693Y-13974326D01*
X8123693Y-13974326D02*
X8114170Y-13936231D01*
X8114170Y-13936231D02*
X8114170Y-13888612D01*
X8114170Y-13888612D02*
X8123693Y-13850516D01*
X8123693Y-13850516D02*
X8133217Y-13831469D01*
X8133217Y-13831469D02*
X8142741Y-13821945D01*
X8142741Y-13821945D02*
X8161789Y-13812421D01*
X8314170Y-14012421D02*
X8314170Y-13879088D01*
X8314170Y-13898135D02*
X8323693Y-13888612D01*
X8323693Y-13888612D02*
X8342741Y-13879088D01*
X8342741Y-13879088D02*
X8371313Y-13879088D01*
X8371313Y-13879088D02*
X8390360Y-13888612D01*
X8390360Y-13888612D02*
X8399884Y-13907659D01*
X8399884Y-13907659D02*
X8399884Y-14012421D01*
X8399884Y-13907659D02*
X8409408Y-13888612D01*
X8409408Y-13888612D02*
X8428455Y-13879088D01*
X8428455Y-13879088D02*
X8457027Y-13879088D01*
X8457027Y-13879088D02*
X8476075Y-13888612D01*
X8476075Y-13888612D02*
X8485598Y-13907659D01*
X8485598Y-13907659D02*
X8485598Y-14012421D01*
X8580836Y-14012421D02*
X8580836Y-13879088D01*
X8580836Y-13898135D02*
X8590360Y-13888612D01*
X8590360Y-13888612D02*
X8609408Y-13879088D01*
X8609408Y-13879088D02*
X8637979Y-13879088D01*
X8637979Y-13879088D02*
X8657027Y-13888612D01*
X8657027Y-13888612D02*
X8666551Y-13907659D01*
X8666551Y-13907659D02*
X8666551Y-14012421D01*
X8666551Y-13907659D02*
X8676075Y-13888612D01*
X8676075Y-13888612D02*
X8695122Y-13879088D01*
X8695122Y-13879088D02*
X8723694Y-13879088D01*
X8723694Y-13879088D02*
X8742741Y-13888612D01*
X8742741Y-13888612D02*
X8752265Y-13907659D01*
X8752265Y-13907659D02*
X8752265Y-14012421D01*
X9142741Y-13802897D02*
X8971313Y-14060040D01*
X9399884Y-13812421D02*
X9418932Y-13812421D01*
X9418932Y-13812421D02*
X9437979Y-13821945D01*
X9437979Y-13821945D02*
X9447503Y-13831469D01*
X9447503Y-13831469D02*
X9457027Y-13850516D01*
X9457027Y-13850516D02*
X9466551Y-13888612D01*
X9466551Y-13888612D02*
X9466551Y-13936231D01*
X9466551Y-13936231D02*
X9457027Y-13974326D01*
X9457027Y-13974326D02*
X9447503Y-13993374D01*
X9447503Y-13993374D02*
X9437979Y-14002897D01*
X9437979Y-14002897D02*
X9418932Y-14012421D01*
X9418932Y-14012421D02*
X9399884Y-14012421D01*
X9399884Y-14012421D02*
X9380837Y-14002897D01*
X9380837Y-14002897D02*
X9371313Y-13993374D01*
X9371313Y-13993374D02*
X9361789Y-13974326D01*
X9361789Y-13974326D02*
X9352265Y-13936231D01*
X9352265Y-13936231D02*
X9352265Y-13888612D01*
X9352265Y-13888612D02*
X9361789Y-13850516D01*
X9361789Y-13850516D02*
X9371313Y-13831469D01*
X9371313Y-13831469D02*
X9380837Y-13821945D01*
X9380837Y-13821945D02*
X9399884Y-13812421D01*
X9552265Y-13993374D02*
X9561789Y-14002897D01*
X9561789Y-14002897D02*
X9552265Y-14012421D01*
X9552265Y-14012421D02*
X9542741Y-14002897D01*
X9542741Y-14002897D02*
X9552265Y-13993374D01*
X9552265Y-13993374D02*
X9552265Y-14012421D01*
X9752265Y-14012421D02*
X9637979Y-14012421D01*
X9695122Y-14012421D02*
X9695122Y-13812421D01*
X9695122Y-13812421D02*
X9676075Y-13840993D01*
X9676075Y-13840993D02*
X9657027Y-13860040D01*
X9657027Y-13860040D02*
X9637979Y-13869564D01*
X9876075Y-13812421D02*
X9895122Y-13812421D01*
X9895122Y-13812421D02*
X9914170Y-13821945D01*
X9914170Y-13821945D02*
X9923694Y-13831469D01*
X9923694Y-13831469D02*
X9933218Y-13850516D01*
X9933218Y-13850516D02*
X9942741Y-13888612D01*
X9942741Y-13888612D02*
X9942741Y-13936231D01*
X9942741Y-13936231D02*
X9933218Y-13974326D01*
X9933218Y-13974326D02*
X9923694Y-13993374D01*
X9923694Y-13993374D02*
X9914170Y-14002897D01*
X9914170Y-14002897D02*
X9895122Y-14012421D01*
X9895122Y-14012421D02*
X9876075Y-14012421D01*
X9876075Y-14012421D02*
X9857027Y-14002897D01*
X9857027Y-14002897D02*
X9847503Y-13993374D01*
X9847503Y-13993374D02*
X9837979Y-13974326D01*
X9837979Y-13974326D02*
X9828456Y-13936231D01*
X9828456Y-13936231D02*
X9828456Y-13888612D01*
X9828456Y-13888612D02*
X9837979Y-13850516D01*
X9837979Y-13850516D02*
X9847503Y-13831469D01*
X9847503Y-13831469D02*
X9857027Y-13821945D01*
X9857027Y-13821945D02*
X9876075Y-13812421D01*
X10114170Y-13812421D02*
X10076075Y-13812421D01*
X10076075Y-13812421D02*
X10057027Y-13821945D01*
X10057027Y-13821945D02*
X10047503Y-13831469D01*
X10047503Y-13831469D02*
X10028456Y-13860040D01*
X10028456Y-13860040D02*
X10018932Y-13898135D01*
X10018932Y-13898135D02*
X10018932Y-13974326D01*
X10018932Y-13974326D02*
X10028456Y-13993374D01*
X10028456Y-13993374D02*
X10037979Y-14002897D01*
X10037979Y-14002897D02*
X10057027Y-14012421D01*
X10057027Y-14012421D02*
X10095122Y-14012421D01*
X10095122Y-14012421D02*
X10114170Y-14002897D01*
X10114170Y-14002897D02*
X10123694Y-13993374D01*
X10123694Y-13993374D02*
X10133218Y-13974326D01*
X10133218Y-13974326D02*
X10133218Y-13926707D01*
X10133218Y-13926707D02*
X10123694Y-13907659D01*
X10123694Y-13907659D02*
X10114170Y-13898135D01*
X10114170Y-13898135D02*
X10095122Y-13888612D01*
X10095122Y-13888612D02*
X10057027Y-13888612D01*
X10057027Y-13888612D02*
X10037979Y-13898135D01*
X10037979Y-13898135D02*
X10028456Y-13907659D01*
X10028456Y-13907659D02*
X10018932Y-13926707D01*
X10199884Y-13812421D02*
X10323694Y-13812421D01*
X10323694Y-13812421D02*
X10257027Y-13888612D01*
X10257027Y-13888612D02*
X10285599Y-13888612D01*
X10285599Y-13888612D02*
X10304646Y-13898135D01*
X10304646Y-13898135D02*
X10314170Y-13907659D01*
X10314170Y-13907659D02*
X10323694Y-13926707D01*
X10323694Y-13926707D02*
X10323694Y-13974326D01*
X10323694Y-13974326D02*
X10314170Y-13993374D01*
X10314170Y-13993374D02*
X10304646Y-14002897D01*
X10304646Y-14002897D02*
X10285599Y-14012421D01*
X10285599Y-14012421D02*
X10228456Y-14012421D01*
X10228456Y-14012421D02*
X10209408Y-14002897D01*
X10209408Y-14002897D02*
X10199884Y-13993374D01*
X10399884Y-13812421D02*
X10399884Y-13850516D01*
X10476075Y-13812421D02*
X10476075Y-13850516D01*
X10771313Y-14088612D02*
X10761789Y-14079088D01*
X10761789Y-14079088D02*
X10742741Y-14050516D01*
X10742741Y-14050516D02*
X10733218Y-14031469D01*
X10733218Y-14031469D02*
X10723694Y-14002897D01*
X10723694Y-14002897D02*
X10714170Y-13955278D01*
X10714170Y-13955278D02*
X10714170Y-13917183D01*
X10714170Y-13917183D02*
X10723694Y-13869564D01*
X10723694Y-13869564D02*
X10733218Y-13840993D01*
X10733218Y-13840993D02*
X10742741Y-13821945D01*
X10742741Y-13821945D02*
X10761789Y-13793374D01*
X10761789Y-13793374D02*
X10771313Y-13783850D01*
X10933218Y-13879088D02*
X10933218Y-14012421D01*
X10885599Y-13802897D02*
X10837980Y-13945755D01*
X10837980Y-13945755D02*
X10961789Y-13945755D01*
X11190360Y-14012421D02*
X11190360Y-13812421D01*
X11276075Y-14012421D02*
X11276075Y-13907659D01*
X11276075Y-13907659D02*
X11266551Y-13888612D01*
X11266551Y-13888612D02*
X11247503Y-13879088D01*
X11247503Y-13879088D02*
X11218932Y-13879088D01*
X11218932Y-13879088D02*
X11199884Y-13888612D01*
X11199884Y-13888612D02*
X11190360Y-13898135D01*
X11399884Y-14012421D02*
X11380837Y-14002897D01*
X11380837Y-14002897D02*
X11371313Y-13993374D01*
X11371313Y-13993374D02*
X11361789Y-13974326D01*
X11361789Y-13974326D02*
X11361789Y-13917183D01*
X11361789Y-13917183D02*
X11371313Y-13898135D01*
X11371313Y-13898135D02*
X11380837Y-13888612D01*
X11380837Y-13888612D02*
X11399884Y-13879088D01*
X11399884Y-13879088D02*
X11428456Y-13879088D01*
X11428456Y-13879088D02*
X11447503Y-13888612D01*
X11447503Y-13888612D02*
X11457027Y-13898135D01*
X11457027Y-13898135D02*
X11466551Y-13917183D01*
X11466551Y-13917183D02*
X11466551Y-13974326D01*
X11466551Y-13974326D02*
X11457027Y-13993374D01*
X11457027Y-13993374D02*
X11447503Y-14002897D01*
X11447503Y-14002897D02*
X11428456Y-14012421D01*
X11428456Y-14012421D02*
X11399884Y-14012421D01*
X11580837Y-14012421D02*
X11561789Y-14002897D01*
X11561789Y-14002897D02*
X11552265Y-13983850D01*
X11552265Y-13983850D02*
X11552265Y-13812421D01*
X11733218Y-14002897D02*
X11714170Y-14012421D01*
X11714170Y-14012421D02*
X11676075Y-14012421D01*
X11676075Y-14012421D02*
X11657027Y-14002897D01*
X11657027Y-14002897D02*
X11647503Y-13983850D01*
X11647503Y-13983850D02*
X11647503Y-13907659D01*
X11647503Y-13907659D02*
X11657027Y-13888612D01*
X11657027Y-13888612D02*
X11676075Y-13879088D01*
X11676075Y-13879088D02*
X11714170Y-13879088D01*
X11714170Y-13879088D02*
X11733218Y-13888612D01*
X11733218Y-13888612D02*
X11742741Y-13907659D01*
X11742741Y-13907659D02*
X11742741Y-13926707D01*
X11742741Y-13926707D02*
X11647503Y-13945755D01*
X11818932Y-14002897D02*
X11837980Y-14012421D01*
X11837980Y-14012421D02*
X11876075Y-14012421D01*
X11876075Y-14012421D02*
X11895122Y-14002897D01*
X11895122Y-14002897D02*
X11904646Y-13983850D01*
X11904646Y-13983850D02*
X11904646Y-13974326D01*
X11904646Y-13974326D02*
X11895122Y-13955278D01*
X11895122Y-13955278D02*
X11876075Y-13945755D01*
X11876075Y-13945755D02*
X11847503Y-13945755D01*
X11847503Y-13945755D02*
X11828456Y-13936231D01*
X11828456Y-13936231D02*
X11818932Y-13917183D01*
X11818932Y-13917183D02*
X11818932Y-13907659D01*
X11818932Y-13907659D02*
X11828456Y-13888612D01*
X11828456Y-13888612D02*
X11847503Y-13879088D01*
X11847503Y-13879088D02*
X11876075Y-13879088D01*
X11876075Y-13879088D02*
X11895122Y-13888612D01*
X11971313Y-14088612D02*
X11980837Y-14079088D01*
X11980837Y-14079088D02*
X11999884Y-14050516D01*
X11999884Y-14050516D02*
X12009408Y-14031469D01*
X12009408Y-14031469D02*
X12018932Y-14002897D01*
X12018932Y-14002897D02*
X12028456Y-13955278D01*
X12028456Y-13955278D02*
X12028456Y-13917183D01*
X12028456Y-13917183D02*
X12018932Y-13869564D01*
X12018932Y-13869564D02*
X12009408Y-13840993D01*
X12009408Y-13840993D02*
X11999884Y-13821945D01*
X11999884Y-13821945D02*
X11980837Y-13793374D01*
X11980837Y-13793374D02*
X11971313Y-13783850D01*
X12333218Y-14088612D02*
X12323694Y-14079088D01*
X12323694Y-14079088D02*
X12304646Y-14050516D01*
X12304646Y-14050516D02*
X12295122Y-14031469D01*
X12295122Y-14031469D02*
X12285599Y-14002897D01*
X12285599Y-14002897D02*
X12276075Y-13955278D01*
X12276075Y-13955278D02*
X12276075Y-13917183D01*
X12276075Y-13917183D02*
X12285599Y-13869564D01*
X12285599Y-13869564D02*
X12295122Y-13840993D01*
X12295122Y-13840993D02*
X12304646Y-13821945D01*
X12304646Y-13821945D02*
X12323694Y-13793374D01*
X12323694Y-13793374D02*
X12333218Y-13783850D01*
X12409408Y-13879088D02*
X12409408Y-14012421D01*
X12409408Y-13898135D02*
X12418932Y-13888612D01*
X12418932Y-13888612D02*
X12437980Y-13879088D01*
X12437980Y-13879088D02*
X12466551Y-13879088D01*
X12466551Y-13879088D02*
X12485599Y-13888612D01*
X12485599Y-13888612D02*
X12495122Y-13907659D01*
X12495122Y-13907659D02*
X12495122Y-14012421D01*
X12618932Y-14012421D02*
X12599884Y-14002897D01*
X12599884Y-14002897D02*
X12590361Y-13993374D01*
X12590361Y-13993374D02*
X12580837Y-13974326D01*
X12580837Y-13974326D02*
X12580837Y-13917183D01*
X12580837Y-13917183D02*
X12590361Y-13898135D01*
X12590361Y-13898135D02*
X12599884Y-13888612D01*
X12599884Y-13888612D02*
X12618932Y-13879088D01*
X12618932Y-13879088D02*
X12647503Y-13879088D01*
X12647503Y-13879088D02*
X12666551Y-13888612D01*
X12666551Y-13888612D02*
X12676075Y-13898135D01*
X12676075Y-13898135D02*
X12685599Y-13917183D01*
X12685599Y-13917183D02*
X12685599Y-13974326D01*
X12685599Y-13974326D02*
X12676075Y-13993374D01*
X12676075Y-13993374D02*
X12666551Y-14002897D01*
X12666551Y-14002897D02*
X12647503Y-14012421D01*
X12647503Y-14012421D02*
X12618932Y-14012421D01*
X12742742Y-13879088D02*
X12818932Y-13879088D01*
X12771313Y-13812421D02*
X12771313Y-13983850D01*
X12771313Y-13983850D02*
X12780837Y-14002897D01*
X12780837Y-14002897D02*
X12799884Y-14012421D01*
X12799884Y-14012421D02*
X12818932Y-14012421D01*
X13037980Y-13879088D02*
X13037980Y-14079088D01*
X13037980Y-13888612D02*
X13057027Y-13879088D01*
X13057027Y-13879088D02*
X13095123Y-13879088D01*
X13095123Y-13879088D02*
X13114170Y-13888612D01*
X13114170Y-13888612D02*
X13123694Y-13898135D01*
X13123694Y-13898135D02*
X13133218Y-13917183D01*
X13133218Y-13917183D02*
X13133218Y-13974326D01*
X13133218Y-13974326D02*
X13123694Y-13993374D01*
X13123694Y-13993374D02*
X13114170Y-14002897D01*
X13114170Y-14002897D02*
X13095123Y-14012421D01*
X13095123Y-14012421D02*
X13057027Y-14012421D01*
X13057027Y-14012421D02*
X13037980Y-14002897D01*
X13247503Y-14012421D02*
X13228456Y-14002897D01*
X13228456Y-14002897D02*
X13218932Y-13983850D01*
X13218932Y-13983850D02*
X13218932Y-13812421D01*
X13409408Y-14012421D02*
X13409408Y-13907659D01*
X13409408Y-13907659D02*
X13399884Y-13888612D01*
X13399884Y-13888612D02*
X13380837Y-13879088D01*
X13380837Y-13879088D02*
X13342742Y-13879088D01*
X13342742Y-13879088D02*
X13323694Y-13888612D01*
X13409408Y-14002897D02*
X13390361Y-14012421D01*
X13390361Y-14012421D02*
X13342742Y-14012421D01*
X13342742Y-14012421D02*
X13323694Y-14002897D01*
X13323694Y-14002897D02*
X13314170Y-13983850D01*
X13314170Y-13983850D02*
X13314170Y-13964802D01*
X13314170Y-13964802D02*
X13323694Y-13945755D01*
X13323694Y-13945755D02*
X13342742Y-13936231D01*
X13342742Y-13936231D02*
X13390361Y-13936231D01*
X13390361Y-13936231D02*
X13409408Y-13926707D01*
X13476075Y-13879088D02*
X13552265Y-13879088D01*
X13504646Y-13812421D02*
X13504646Y-13983850D01*
X13504646Y-13983850D02*
X13514170Y-14002897D01*
X13514170Y-14002897D02*
X13533218Y-14012421D01*
X13533218Y-14012421D02*
X13552265Y-14012421D01*
X13695123Y-14002897D02*
X13676075Y-14012421D01*
X13676075Y-14012421D02*
X13637980Y-14012421D01*
X13637980Y-14012421D02*
X13618932Y-14002897D01*
X13618932Y-14002897D02*
X13609408Y-13983850D01*
X13609408Y-13983850D02*
X13609408Y-13907659D01*
X13609408Y-13907659D02*
X13618932Y-13888612D01*
X13618932Y-13888612D02*
X13637980Y-13879088D01*
X13637980Y-13879088D02*
X13676075Y-13879088D01*
X13676075Y-13879088D02*
X13695123Y-13888612D01*
X13695123Y-13888612D02*
X13704646Y-13907659D01*
X13704646Y-13907659D02*
X13704646Y-13926707D01*
X13704646Y-13926707D02*
X13609408Y-13945755D01*
X13876075Y-14012421D02*
X13876075Y-13812421D01*
X13876075Y-14002897D02*
X13857027Y-14012421D01*
X13857027Y-14012421D02*
X13818932Y-14012421D01*
X13818932Y-14012421D02*
X13799884Y-14002897D01*
X13799884Y-14002897D02*
X13790361Y-13993374D01*
X13790361Y-13993374D02*
X13780837Y-13974326D01*
X13780837Y-13974326D02*
X13780837Y-13917183D01*
X13780837Y-13917183D02*
X13790361Y-13898135D01*
X13790361Y-13898135D02*
X13799884Y-13888612D01*
X13799884Y-13888612D02*
X13818932Y-13879088D01*
X13818932Y-13879088D02*
X13857027Y-13879088D01*
X13857027Y-13879088D02*
X13876075Y-13888612D01*
X13952265Y-14088612D02*
X13961789Y-14079088D01*
X13961789Y-14079088D02*
X13980837Y-14050516D01*
X13980837Y-14050516D02*
X13990361Y-14031469D01*
X13990361Y-14031469D02*
X13999884Y-14002897D01*
X13999884Y-14002897D02*
X14009408Y-13955278D01*
X14009408Y-13955278D02*
X14009408Y-13917183D01*
X14009408Y-13917183D02*
X13999884Y-13869564D01*
X13999884Y-13869564D02*
X13990361Y-13840993D01*
X13990361Y-13840993D02*
X13980837Y-13821945D01*
X13980837Y-13821945D02*
X13961789Y-13793374D01*
X13961789Y-13793374D02*
X13952265Y-13783850D01*
X7196250Y-14240937D02*
G75*
G03*
X7196250Y-14240937I-100000J0D01*
G01*
X7552265Y-14132421D02*
X7457027Y-14132421D01*
X7457027Y-14132421D02*
X7447503Y-14227659D01*
X7447503Y-14227659D02*
X7457027Y-14218135D01*
X7457027Y-14218135D02*
X7476074Y-14208612D01*
X7476074Y-14208612D02*
X7523693Y-14208612D01*
X7523693Y-14208612D02*
X7542741Y-14218135D01*
X7542741Y-14218135D02*
X7552265Y-14227659D01*
X7552265Y-14227659D02*
X7561789Y-14246707D01*
X7561789Y-14246707D02*
X7561789Y-14294326D01*
X7561789Y-14294326D02*
X7552265Y-14313374D01*
X7552265Y-14313374D02*
X7542741Y-14322897D01*
X7542741Y-14322897D02*
X7523693Y-14332421D01*
X7523693Y-14332421D02*
X7476074Y-14332421D01*
X7476074Y-14332421D02*
X7457027Y-14322897D01*
X7457027Y-14322897D02*
X7447503Y-14313374D01*
X7647503Y-14313374D02*
X7657027Y-14322897D01*
X7657027Y-14322897D02*
X7647503Y-14332421D01*
X7647503Y-14332421D02*
X7637979Y-14322897D01*
X7637979Y-14322897D02*
X7647503Y-14313374D01*
X7647503Y-14313374D02*
X7647503Y-14332421D01*
X7733217Y-14151469D02*
X7742741Y-14141945D01*
X7742741Y-14141945D02*
X7761789Y-14132421D01*
X7761789Y-14132421D02*
X7809408Y-14132421D01*
X7809408Y-14132421D02*
X7828455Y-14141945D01*
X7828455Y-14141945D02*
X7837979Y-14151469D01*
X7837979Y-14151469D02*
X7847503Y-14170516D01*
X7847503Y-14170516D02*
X7847503Y-14189564D01*
X7847503Y-14189564D02*
X7837979Y-14218135D01*
X7837979Y-14218135D02*
X7723693Y-14332421D01*
X7723693Y-14332421D02*
X7847503Y-14332421D01*
X8028455Y-14132421D02*
X7933217Y-14132421D01*
X7933217Y-14132421D02*
X7923693Y-14227659D01*
X7923693Y-14227659D02*
X7933217Y-14218135D01*
X7933217Y-14218135D02*
X7952265Y-14208612D01*
X7952265Y-14208612D02*
X7999884Y-14208612D01*
X7999884Y-14208612D02*
X8018932Y-14218135D01*
X8018932Y-14218135D02*
X8028455Y-14227659D01*
X8028455Y-14227659D02*
X8037979Y-14246707D01*
X8037979Y-14246707D02*
X8037979Y-14294326D01*
X8037979Y-14294326D02*
X8028455Y-14313374D01*
X8028455Y-14313374D02*
X8018932Y-14322897D01*
X8018932Y-14322897D02*
X7999884Y-14332421D01*
X7999884Y-14332421D02*
X7952265Y-14332421D01*
X7952265Y-14332421D02*
X7933217Y-14322897D01*
X7933217Y-14322897D02*
X7923693Y-14313374D01*
X8161789Y-14132421D02*
X8180836Y-14132421D01*
X8180836Y-14132421D02*
X8199884Y-14141945D01*
X8199884Y-14141945D02*
X8209408Y-14151469D01*
X8209408Y-14151469D02*
X8218932Y-14170516D01*
X8218932Y-14170516D02*
X8228455Y-14208612D01*
X8228455Y-14208612D02*
X8228455Y-14256231D01*
X8228455Y-14256231D02*
X8218932Y-14294326D01*
X8218932Y-14294326D02*
X8209408Y-14313374D01*
X8209408Y-14313374D02*
X8199884Y-14322897D01*
X8199884Y-14322897D02*
X8180836Y-14332421D01*
X8180836Y-14332421D02*
X8161789Y-14332421D01*
X8161789Y-14332421D02*
X8142741Y-14322897D01*
X8142741Y-14322897D02*
X8133217Y-14313374D01*
X8133217Y-14313374D02*
X8123693Y-14294326D01*
X8123693Y-14294326D02*
X8114170Y-14256231D01*
X8114170Y-14256231D02*
X8114170Y-14208612D01*
X8114170Y-14208612D02*
X8123693Y-14170516D01*
X8123693Y-14170516D02*
X8133217Y-14151469D01*
X8133217Y-14151469D02*
X8142741Y-14141945D01*
X8142741Y-14141945D02*
X8161789Y-14132421D01*
X8314170Y-14332421D02*
X8314170Y-14199088D01*
X8314170Y-14218135D02*
X8323693Y-14208612D01*
X8323693Y-14208612D02*
X8342741Y-14199088D01*
X8342741Y-14199088D02*
X8371313Y-14199088D01*
X8371313Y-14199088D02*
X8390360Y-14208612D01*
X8390360Y-14208612D02*
X8399884Y-14227659D01*
X8399884Y-14227659D02*
X8399884Y-14332421D01*
X8399884Y-14227659D02*
X8409408Y-14208612D01*
X8409408Y-14208612D02*
X8428455Y-14199088D01*
X8428455Y-14199088D02*
X8457027Y-14199088D01*
X8457027Y-14199088D02*
X8476075Y-14208612D01*
X8476075Y-14208612D02*
X8485598Y-14227659D01*
X8485598Y-14227659D02*
X8485598Y-14332421D01*
X8580836Y-14332421D02*
X8580836Y-14199088D01*
X8580836Y-14218135D02*
X8590360Y-14208612D01*
X8590360Y-14208612D02*
X8609408Y-14199088D01*
X8609408Y-14199088D02*
X8637979Y-14199088D01*
X8637979Y-14199088D02*
X8657027Y-14208612D01*
X8657027Y-14208612D02*
X8666551Y-14227659D01*
X8666551Y-14227659D02*
X8666551Y-14332421D01*
X8666551Y-14227659D02*
X8676075Y-14208612D01*
X8676075Y-14208612D02*
X8695122Y-14199088D01*
X8695122Y-14199088D02*
X8723694Y-14199088D01*
X8723694Y-14199088D02*
X8742741Y-14208612D01*
X8742741Y-14208612D02*
X8752265Y-14227659D01*
X8752265Y-14227659D02*
X8752265Y-14332421D01*
X9142741Y-14122897D02*
X8971313Y-14380040D01*
X9399884Y-14132421D02*
X9418932Y-14132421D01*
X9418932Y-14132421D02*
X9437979Y-14141945D01*
X9437979Y-14141945D02*
X9447503Y-14151469D01*
X9447503Y-14151469D02*
X9457027Y-14170516D01*
X9457027Y-14170516D02*
X9466551Y-14208612D01*
X9466551Y-14208612D02*
X9466551Y-14256231D01*
X9466551Y-14256231D02*
X9457027Y-14294326D01*
X9457027Y-14294326D02*
X9447503Y-14313374D01*
X9447503Y-14313374D02*
X9437979Y-14322897D01*
X9437979Y-14322897D02*
X9418932Y-14332421D01*
X9418932Y-14332421D02*
X9399884Y-14332421D01*
X9399884Y-14332421D02*
X9380837Y-14322897D01*
X9380837Y-14322897D02*
X9371313Y-14313374D01*
X9371313Y-14313374D02*
X9361789Y-14294326D01*
X9361789Y-14294326D02*
X9352265Y-14256231D01*
X9352265Y-14256231D02*
X9352265Y-14208612D01*
X9352265Y-14208612D02*
X9361789Y-14170516D01*
X9361789Y-14170516D02*
X9371313Y-14151469D01*
X9371313Y-14151469D02*
X9380837Y-14141945D01*
X9380837Y-14141945D02*
X9399884Y-14132421D01*
X9552265Y-14313374D02*
X9561789Y-14322897D01*
X9561789Y-14322897D02*
X9552265Y-14332421D01*
X9552265Y-14332421D02*
X9542741Y-14322897D01*
X9542741Y-14322897D02*
X9552265Y-14313374D01*
X9552265Y-14313374D02*
X9552265Y-14332421D01*
X9637979Y-14151469D02*
X9647503Y-14141945D01*
X9647503Y-14141945D02*
X9666551Y-14132421D01*
X9666551Y-14132421D02*
X9714170Y-14132421D01*
X9714170Y-14132421D02*
X9733218Y-14141945D01*
X9733218Y-14141945D02*
X9742741Y-14151469D01*
X9742741Y-14151469D02*
X9752265Y-14170516D01*
X9752265Y-14170516D02*
X9752265Y-14189564D01*
X9752265Y-14189564D02*
X9742741Y-14218135D01*
X9742741Y-14218135D02*
X9628456Y-14332421D01*
X9628456Y-14332421D02*
X9752265Y-14332421D01*
X9876075Y-14132421D02*
X9895122Y-14132421D01*
X9895122Y-14132421D02*
X9914170Y-14141945D01*
X9914170Y-14141945D02*
X9923694Y-14151469D01*
X9923694Y-14151469D02*
X9933218Y-14170516D01*
X9933218Y-14170516D02*
X9942741Y-14208612D01*
X9942741Y-14208612D02*
X9942741Y-14256231D01*
X9942741Y-14256231D02*
X9933218Y-14294326D01*
X9933218Y-14294326D02*
X9923694Y-14313374D01*
X9923694Y-14313374D02*
X9914170Y-14322897D01*
X9914170Y-14322897D02*
X9895122Y-14332421D01*
X9895122Y-14332421D02*
X9876075Y-14332421D01*
X9876075Y-14332421D02*
X9857027Y-14322897D01*
X9857027Y-14322897D02*
X9847503Y-14313374D01*
X9847503Y-14313374D02*
X9837979Y-14294326D01*
X9837979Y-14294326D02*
X9828456Y-14256231D01*
X9828456Y-14256231D02*
X9828456Y-14208612D01*
X9828456Y-14208612D02*
X9837979Y-14170516D01*
X9837979Y-14170516D02*
X9847503Y-14151469D01*
X9847503Y-14151469D02*
X9857027Y-14141945D01*
X9857027Y-14141945D02*
X9876075Y-14132421D01*
X10114170Y-14132421D02*
X10076075Y-14132421D01*
X10076075Y-14132421D02*
X10057027Y-14141945D01*
X10057027Y-14141945D02*
X10047503Y-14151469D01*
X10047503Y-14151469D02*
X10028456Y-14180040D01*
X10028456Y-14180040D02*
X10018932Y-14218135D01*
X10018932Y-14218135D02*
X10018932Y-14294326D01*
X10018932Y-14294326D02*
X10028456Y-14313374D01*
X10028456Y-14313374D02*
X10037979Y-14322897D01*
X10037979Y-14322897D02*
X10057027Y-14332421D01*
X10057027Y-14332421D02*
X10095122Y-14332421D01*
X10095122Y-14332421D02*
X10114170Y-14322897D01*
X10114170Y-14322897D02*
X10123694Y-14313374D01*
X10123694Y-14313374D02*
X10133218Y-14294326D01*
X10133218Y-14294326D02*
X10133218Y-14246707D01*
X10133218Y-14246707D02*
X10123694Y-14227659D01*
X10123694Y-14227659D02*
X10114170Y-14218135D01*
X10114170Y-14218135D02*
X10095122Y-14208612D01*
X10095122Y-14208612D02*
X10057027Y-14208612D01*
X10057027Y-14208612D02*
X10037979Y-14218135D01*
X10037979Y-14218135D02*
X10028456Y-14227659D01*
X10028456Y-14227659D02*
X10018932Y-14246707D01*
X10199884Y-14132421D02*
X10333218Y-14132421D01*
X10333218Y-14132421D02*
X10247503Y-14332421D01*
X10399884Y-14132421D02*
X10399884Y-14170516D01*
X10476075Y-14132421D02*
X10476075Y-14170516D01*
X10771313Y-14408612D02*
X10761789Y-14399088D01*
X10761789Y-14399088D02*
X10742741Y-14370516D01*
X10742741Y-14370516D02*
X10733218Y-14351469D01*
X10733218Y-14351469D02*
X10723694Y-14322897D01*
X10723694Y-14322897D02*
X10714170Y-14275278D01*
X10714170Y-14275278D02*
X10714170Y-14237183D01*
X10714170Y-14237183D02*
X10723694Y-14189564D01*
X10723694Y-14189564D02*
X10733218Y-14160993D01*
X10733218Y-14160993D02*
X10742741Y-14141945D01*
X10742741Y-14141945D02*
X10761789Y-14113374D01*
X10761789Y-14113374D02*
X10771313Y-14103850D01*
X10837980Y-14151469D02*
X10847503Y-14141945D01*
X10847503Y-14141945D02*
X10866551Y-14132421D01*
X10866551Y-14132421D02*
X10914170Y-14132421D01*
X10914170Y-14132421D02*
X10933218Y-14141945D01*
X10933218Y-14141945D02*
X10942741Y-14151469D01*
X10942741Y-14151469D02*
X10952265Y-14170516D01*
X10952265Y-14170516D02*
X10952265Y-14189564D01*
X10952265Y-14189564D02*
X10942741Y-14218135D01*
X10942741Y-14218135D02*
X10828456Y-14332421D01*
X10828456Y-14332421D02*
X10952265Y-14332421D01*
X11142741Y-14332421D02*
X11028456Y-14332421D01*
X11085599Y-14332421D02*
X11085599Y-14132421D01*
X11085599Y-14132421D02*
X11066551Y-14160993D01*
X11066551Y-14160993D02*
X11047503Y-14180040D01*
X11047503Y-14180040D02*
X11028456Y-14189564D01*
X11380837Y-14332421D02*
X11380837Y-14132421D01*
X11466551Y-14332421D02*
X11466551Y-14227659D01*
X11466551Y-14227659D02*
X11457027Y-14208612D01*
X11457027Y-14208612D02*
X11437980Y-14199088D01*
X11437980Y-14199088D02*
X11409408Y-14199088D01*
X11409408Y-14199088D02*
X11390360Y-14208612D01*
X11390360Y-14208612D02*
X11380837Y-14218135D01*
X11590360Y-14332421D02*
X11571313Y-14322897D01*
X11571313Y-14322897D02*
X11561789Y-14313374D01*
X11561789Y-14313374D02*
X11552265Y-14294326D01*
X11552265Y-14294326D02*
X11552265Y-14237183D01*
X11552265Y-14237183D02*
X11561789Y-14218135D01*
X11561789Y-14218135D02*
X11571313Y-14208612D01*
X11571313Y-14208612D02*
X11590360Y-14199088D01*
X11590360Y-14199088D02*
X11618932Y-14199088D01*
X11618932Y-14199088D02*
X11637980Y-14208612D01*
X11637980Y-14208612D02*
X11647503Y-14218135D01*
X11647503Y-14218135D02*
X11657027Y-14237183D01*
X11657027Y-14237183D02*
X11657027Y-14294326D01*
X11657027Y-14294326D02*
X11647503Y-14313374D01*
X11647503Y-14313374D02*
X11637980Y-14322897D01*
X11637980Y-14322897D02*
X11618932Y-14332421D01*
X11618932Y-14332421D02*
X11590360Y-14332421D01*
X11771313Y-14332421D02*
X11752265Y-14322897D01*
X11752265Y-14322897D02*
X11742741Y-14303850D01*
X11742741Y-14303850D02*
X11742741Y-14132421D01*
X11923694Y-14322897D02*
X11904646Y-14332421D01*
X11904646Y-14332421D02*
X11866551Y-14332421D01*
X11866551Y-14332421D02*
X11847503Y-14322897D01*
X11847503Y-14322897D02*
X11837980Y-14303850D01*
X11837980Y-14303850D02*
X11837980Y-14227659D01*
X11837980Y-14227659D02*
X11847503Y-14208612D01*
X11847503Y-14208612D02*
X11866551Y-14199088D01*
X11866551Y-14199088D02*
X11904646Y-14199088D01*
X11904646Y-14199088D02*
X11923694Y-14208612D01*
X11923694Y-14208612D02*
X11933218Y-14227659D01*
X11933218Y-14227659D02*
X11933218Y-14246707D01*
X11933218Y-14246707D02*
X11837980Y-14265755D01*
X12009408Y-14322897D02*
X12028456Y-14332421D01*
X12028456Y-14332421D02*
X12066551Y-14332421D01*
X12066551Y-14332421D02*
X12085599Y-14322897D01*
X12085599Y-14322897D02*
X12095122Y-14303850D01*
X12095122Y-14303850D02*
X12095122Y-14294326D01*
X12095122Y-14294326D02*
X12085599Y-14275278D01*
X12085599Y-14275278D02*
X12066551Y-14265755D01*
X12066551Y-14265755D02*
X12037980Y-14265755D01*
X12037980Y-14265755D02*
X12018932Y-14256231D01*
X12018932Y-14256231D02*
X12009408Y-14237183D01*
X12009408Y-14237183D02*
X12009408Y-14227659D01*
X12009408Y-14227659D02*
X12018932Y-14208612D01*
X12018932Y-14208612D02*
X12037980Y-14199088D01*
X12037980Y-14199088D02*
X12066551Y-14199088D01*
X12066551Y-14199088D02*
X12085599Y-14208612D01*
X12161789Y-14408612D02*
X12171313Y-14399088D01*
X12171313Y-14399088D02*
X12190361Y-14370516D01*
X12190361Y-14370516D02*
X12199884Y-14351469D01*
X12199884Y-14351469D02*
X12209408Y-14322897D01*
X12209408Y-14322897D02*
X12218932Y-14275278D01*
X12218932Y-14275278D02*
X12218932Y-14237183D01*
X12218932Y-14237183D02*
X12209408Y-14189564D01*
X12209408Y-14189564D02*
X12199884Y-14160993D01*
X12199884Y-14160993D02*
X12190361Y-14141945D01*
X12190361Y-14141945D02*
X12171313Y-14113374D01*
X12171313Y-14113374D02*
X12161789Y-14103850D01*
X12523694Y-14408612D02*
X12514170Y-14399088D01*
X12514170Y-14399088D02*
X12495122Y-14370516D01*
X12495122Y-14370516D02*
X12485599Y-14351469D01*
X12485599Y-14351469D02*
X12476075Y-14322897D01*
X12476075Y-14322897D02*
X12466551Y-14275278D01*
X12466551Y-14275278D02*
X12466551Y-14237183D01*
X12466551Y-14237183D02*
X12476075Y-14189564D01*
X12476075Y-14189564D02*
X12485599Y-14160993D01*
X12485599Y-14160993D02*
X12495122Y-14141945D01*
X12495122Y-14141945D02*
X12514170Y-14113374D01*
X12514170Y-14113374D02*
X12523694Y-14103850D01*
X12599884Y-14199088D02*
X12599884Y-14332421D01*
X12599884Y-14218135D02*
X12609408Y-14208612D01*
X12609408Y-14208612D02*
X12628456Y-14199088D01*
X12628456Y-14199088D02*
X12657027Y-14199088D01*
X12657027Y-14199088D02*
X12676075Y-14208612D01*
X12676075Y-14208612D02*
X12685599Y-14227659D01*
X12685599Y-14227659D02*
X12685599Y-14332421D01*
X12809408Y-14332421D02*
X12790361Y-14322897D01*
X12790361Y-14322897D02*
X12780837Y-14313374D01*
X12780837Y-14313374D02*
X12771313Y-14294326D01*
X12771313Y-14294326D02*
X12771313Y-14237183D01*
X12771313Y-14237183D02*
X12780837Y-14218135D01*
X12780837Y-14218135D02*
X12790361Y-14208612D01*
X12790361Y-14208612D02*
X12809408Y-14199088D01*
X12809408Y-14199088D02*
X12837980Y-14199088D01*
X12837980Y-14199088D02*
X12857027Y-14208612D01*
X12857027Y-14208612D02*
X12866551Y-14218135D01*
X12866551Y-14218135D02*
X12876075Y-14237183D01*
X12876075Y-14237183D02*
X12876075Y-14294326D01*
X12876075Y-14294326D02*
X12866551Y-14313374D01*
X12866551Y-14313374D02*
X12857027Y-14322897D01*
X12857027Y-14322897D02*
X12837980Y-14332421D01*
X12837980Y-14332421D02*
X12809408Y-14332421D01*
X12933218Y-14199088D02*
X13009408Y-14199088D01*
X12961789Y-14132421D02*
X12961789Y-14303850D01*
X12961789Y-14303850D02*
X12971313Y-14322897D01*
X12971313Y-14322897D02*
X12990361Y-14332421D01*
X12990361Y-14332421D02*
X13009408Y-14332421D01*
X13228456Y-14199088D02*
X13228456Y-14399088D01*
X13228456Y-14208612D02*
X13247503Y-14199088D01*
X13247503Y-14199088D02*
X13285599Y-14199088D01*
X13285599Y-14199088D02*
X13304646Y-14208612D01*
X13304646Y-14208612D02*
X13314170Y-14218135D01*
X13314170Y-14218135D02*
X13323694Y-14237183D01*
X13323694Y-14237183D02*
X13323694Y-14294326D01*
X13323694Y-14294326D02*
X13314170Y-14313374D01*
X13314170Y-14313374D02*
X13304646Y-14322897D01*
X13304646Y-14322897D02*
X13285599Y-14332421D01*
X13285599Y-14332421D02*
X13247503Y-14332421D01*
X13247503Y-14332421D02*
X13228456Y-14322897D01*
X13437980Y-14332421D02*
X13418932Y-14322897D01*
X13418932Y-14322897D02*
X13409408Y-14303850D01*
X13409408Y-14303850D02*
X13409408Y-14132421D01*
X13599884Y-14332421D02*
X13599884Y-14227659D01*
X13599884Y-14227659D02*
X13590361Y-14208612D01*
X13590361Y-14208612D02*
X13571313Y-14199088D01*
X13571313Y-14199088D02*
X13533218Y-14199088D01*
X13533218Y-14199088D02*
X13514170Y-14208612D01*
X13599884Y-14322897D02*
X13580837Y-14332421D01*
X13580837Y-14332421D02*
X13533218Y-14332421D01*
X13533218Y-14332421D02*
X13514170Y-14322897D01*
X13514170Y-14322897D02*
X13504646Y-14303850D01*
X13504646Y-14303850D02*
X13504646Y-14284802D01*
X13504646Y-14284802D02*
X13514170Y-14265755D01*
X13514170Y-14265755D02*
X13533218Y-14256231D01*
X13533218Y-14256231D02*
X13580837Y-14256231D01*
X13580837Y-14256231D02*
X13599884Y-14246707D01*
X13666551Y-14199088D02*
X13742742Y-14199088D01*
X13695123Y-14132421D02*
X13695123Y-14303850D01*
X13695123Y-14303850D02*
X13704646Y-14322897D01*
X13704646Y-14322897D02*
X13723694Y-14332421D01*
X13723694Y-14332421D02*
X13742742Y-14332421D01*
X13885599Y-14322897D02*
X13866551Y-14332421D01*
X13866551Y-14332421D02*
X13828456Y-14332421D01*
X13828456Y-14332421D02*
X13809408Y-14322897D01*
X13809408Y-14322897D02*
X13799884Y-14303850D01*
X13799884Y-14303850D02*
X13799884Y-14227659D01*
X13799884Y-14227659D02*
X13809408Y-14208612D01*
X13809408Y-14208612D02*
X13828456Y-14199088D01*
X13828456Y-14199088D02*
X13866551Y-14199088D01*
X13866551Y-14199088D02*
X13885599Y-14208612D01*
X13885599Y-14208612D02*
X13895123Y-14227659D01*
X13895123Y-14227659D02*
X13895123Y-14246707D01*
X13895123Y-14246707D02*
X13799884Y-14265755D01*
X14066551Y-14332421D02*
X14066551Y-14132421D01*
X14066551Y-14322897D02*
X14047504Y-14332421D01*
X14047504Y-14332421D02*
X14009408Y-14332421D01*
X14009408Y-14332421D02*
X13990361Y-14322897D01*
X13990361Y-14322897D02*
X13980837Y-14313374D01*
X13980837Y-14313374D02*
X13971313Y-14294326D01*
X13971313Y-14294326D02*
X13971313Y-14237183D01*
X13971313Y-14237183D02*
X13980837Y-14218135D01*
X13980837Y-14218135D02*
X13990361Y-14208612D01*
X13990361Y-14208612D02*
X14009408Y-14199088D01*
X14009408Y-14199088D02*
X14047504Y-14199088D01*
X14047504Y-14199088D02*
X14066551Y-14208612D01*
X14142742Y-14408612D02*
X14152265Y-14399088D01*
X14152265Y-14399088D02*
X14171313Y-14370516D01*
X14171313Y-14370516D02*
X14180837Y-14351469D01*
X14180837Y-14351469D02*
X14190361Y-14322897D01*
X14190361Y-14322897D02*
X14199884Y-14275278D01*
X14199884Y-14275278D02*
X14199884Y-14237183D01*
X14199884Y-14237183D02*
X14190361Y-14189564D01*
X14190361Y-14189564D02*
X14180837Y-14160993D01*
X14180837Y-14160993D02*
X14171313Y-14141945D01*
X14171313Y-14141945D02*
X14152265Y-14113374D01*
X14152265Y-14113374D02*
X14142742Y-14103850D01*
M02*
