M48
; DRILL file {KiCad 7.0.6} date Tue Sep 12 11:18:13 2023
; FORMAT={-:-/ absolute / metric / decimal}
; #@! TF.CreationDate,2023-09-12T11:18:13+08:00
; #@! TF.GenerationSoftware,Kicad,Pcbnew,7.0.6
; #@! TF.FileFunction,Plated,1,2,PTH
FMAT,2
METRIC
; #@! TA.AperFunction,Plated,PTH,ViaDrill
T1C0.400
; #@! TA.AperFunction,Plated,PTH,ComponentDrill
T2C0.600
; #@! TA.AperFunction,Plated,PTH,ComponentDrill
T3C1.016
; #@! TA.AperFunction,Plated,PTH,ComponentDrill
T4C1.500
%
G90
G05
T1
X77.653Y-62.919
X77.653Y-81.969
X77.653Y-101.019
X80.953Y-62.919
X80.953Y-81.969
X80.953Y-101.019
X96.703Y-62.919
X96.703Y-81.969
X96.703Y-101.019
X100.003Y-62.919
X100.003Y-81.969
X100.003Y-101.019
X101.9Y-79.0
X109.8Y-78.9
X112.9Y-82.7
X114.1Y-93.2
X115.753Y-58.156
X115.753Y-96.256
X119.053Y-58.156
X119.053Y-77.206
X119.053Y-96.256
X121.2Y-85.0
X123.825Y-93.266
X133.5Y-88.4
X134.803Y-53.394
X134.803Y-72.444
X134.803Y-91.494
X138.103Y-53.394
X138.103Y-72.444
X138.103Y-91.494
X140.891Y-88.503
X142.2Y-74.0
X146.844Y-102.791
X149.091Y-120.069
X152.391Y-120.069
X153.853Y-62.919
X153.853Y-81.969
X153.853Y-101.019
X154.7Y-115.6
X157.153Y-62.919
X157.153Y-81.969
X157.153Y-101.019
X162.6Y-108.1
X163.0Y-89.4
X165.781Y-115.491
X166.2Y-92.1
X166.8Y-112.1
X168.141Y-120.069
X168.6Y-90.4
X169.1Y-98.3
X171.441Y-120.069
X172.903Y-62.919
X172.903Y-81.969
X172.903Y-101.019
X175.5Y-127.4
X176.203Y-62.919
X176.203Y-81.969
X176.203Y-101.019
X180.1Y-74.9
X181.0Y-65.5
X181.624Y-73.8
X181.7Y-67.8
X182.186Y-127.414
X182.4Y-79.9
X182.6Y-81.4
X183.1Y-96.4
X184.0Y-66.0
X184.07Y-68.704
X187.191Y-120.069
X188.516Y-77.952
X190.491Y-120.069
X190.897Y-74.321
X190.897Y-75.406
X192.9Y-120.0
X195.128Y-85.056
X195.128Y-107.556
X195.6Y-67.6
X196.4Y-81.6
X198.5Y-77.9
X199.628Y-65.881
X200.025Y-63.5
X200.025Y-71.834
X200.025Y-73.422
X200.025Y-76.2
X200.025Y-77.787
X200.025Y-78.812
X202.5Y-84.3
X202.562Y-110.162
T2
X187.878Y-85.056
X189.128Y-85.056
T3
X188.413Y-80.264
X189.683Y-68.834
X189.683Y-70.739
X190.318Y-80.264
X192.858Y-62.484
X192.858Y-65.024
X195.398Y-62.484
X195.398Y-65.024
X197.938Y-80.264
X198.573Y-68.834
X198.573Y-70.739
X199.843Y-80.264
T4
X75.153Y-72.769
X75.153Y-91.819
X75.153Y-110.869
X76.953Y-73.819
X76.953Y-92.869
X76.953Y-111.919
X82.153Y-73.819
X82.153Y-92.869
X82.153Y-111.919
X83.953Y-72.769
X83.953Y-91.819
X83.953Y-110.869
X94.203Y-72.769
X94.203Y-91.819
X94.203Y-110.869
X96.003Y-73.819
X96.003Y-92.869
X96.003Y-111.919
X101.203Y-73.819
X101.203Y-92.869
X101.203Y-111.919
X103.003Y-72.769
X103.003Y-91.819
X103.003Y-110.869
X113.253Y-68.006
X113.253Y-87.056
X113.253Y-106.106
X115.053Y-69.056
X115.053Y-88.106
X115.053Y-107.156
X120.253Y-69.056
X120.253Y-88.106
X120.253Y-107.156
X122.053Y-68.006
X122.053Y-87.056
X122.053Y-106.106
X132.303Y-63.244
X132.303Y-82.294
X132.303Y-101.344
X134.103Y-64.294
X134.103Y-83.344
X134.103Y-102.394
X139.303Y-64.294
X139.303Y-83.344
X139.303Y-102.394
X141.103Y-63.244
X141.103Y-82.294
X141.103Y-101.344
X146.591Y-129.919
X148.391Y-130.969
X151.353Y-72.769
X151.353Y-91.819
X151.353Y-110.869
X153.153Y-73.819
X153.153Y-92.869
X153.153Y-111.919
X153.591Y-130.969
X155.391Y-129.919
X158.353Y-73.819
X158.353Y-92.869
X158.353Y-111.919
X160.153Y-72.769
X160.153Y-91.819
X160.153Y-110.869
X165.641Y-129.919
X167.441Y-130.969
X170.403Y-72.769
X170.403Y-91.819
X170.403Y-110.869
X172.203Y-73.819
X172.203Y-92.869
X172.203Y-111.919
X172.641Y-130.969
X174.441Y-129.919
X177.403Y-73.819
X177.403Y-92.869
X177.403Y-111.919
X179.203Y-72.769
X179.203Y-91.819
X179.203Y-110.869
X184.691Y-129.919
X186.491Y-130.969
X191.691Y-130.969
X193.491Y-129.919
T0
M30
