M48
; DRILL file {KiCad 7.0.6} date Tue Sep 12 11:18:13 2023
; FORMAT={-:-/ absolute / metric / decimal}
; #@! TF.CreationDate,2023-09-12T11:18:13+08:00
; #@! TF.GenerationSoftware,Kicad,Pcbnew,7.0.6
; #@! TF.FileFunction,NonPlated,1,2,NPTH
FMAT,2
METRIC
; #@! TA.AperFunction,NonPlated,NPTH,ComponentDrill
T1C2.700
; #@! TA.AperFunction,NonPlated,NPTH,ComponentDrill
T2C5.250
%
G90
G05
T1
X89.078Y-77.594
X89.078Y-96.644
X165.278Y-77.594
X165.278Y-96.644
T2
X79.553Y-68.069
X79.553Y-87.119
X79.553Y-106.169
X98.603Y-68.069
X98.603Y-87.119
X98.603Y-106.169
X117.653Y-63.306
X117.653Y-82.356
X117.653Y-101.406
X136.703Y-58.544
X136.703Y-77.594
X136.703Y-96.644
X150.991Y-125.219
X155.753Y-68.069
X155.753Y-87.119
X155.753Y-106.169
X170.041Y-125.219
X174.803Y-68.069
X174.803Y-87.119
X174.803Y-106.169
X189.091Y-125.219
T0
M30
