%TF.GenerationSoftware,KiCad,Pcbnew,7.0.6*%
%TF.CreationDate,2023-09-12T11:18:07+08:00*%
%TF.ProjectId,kbv2,6b627632-2e6b-4696-9361-645f70636258,rev?*%
%TF.SameCoordinates,Original*%
%TF.FileFunction,Legend,Top*%
%TF.FilePolarity,Positive*%
%FSLAX46Y46*%
G04 Gerber Fmt 4.6, Leading zero omitted, Abs format (unit mm)*
G04 Created by KiCad (PCBNEW 7.0.6) date 2023-09-12 11:18:07*
%MOMM*%
%LPD*%
G01*
G04 APERTURE LIST*
%ADD10C,0.150000*%
%ADD11C,0.140000*%
%ADD12C,0.120000*%
G04 APERTURE END LIST*
D10*
X87744791Y-74348569D02*
X87411458Y-73872378D01*
X87173363Y-74348569D02*
X87173363Y-73348569D01*
X87173363Y-73348569D02*
X87554315Y-73348569D01*
X87554315Y-73348569D02*
X87649553Y-73396188D01*
X87649553Y-73396188D02*
X87697172Y-73443807D01*
X87697172Y-73443807D02*
X87744791Y-73539045D01*
X87744791Y-73539045D02*
X87744791Y-73681902D01*
X87744791Y-73681902D02*
X87697172Y-73777140D01*
X87697172Y-73777140D02*
X87649553Y-73824759D01*
X87649553Y-73824759D02*
X87554315Y-73872378D01*
X87554315Y-73872378D02*
X87173363Y-73872378D01*
X88173363Y-73824759D02*
X88506696Y-73824759D01*
X88649553Y-74348569D02*
X88173363Y-74348569D01*
X88173363Y-74348569D02*
X88173363Y-73348569D01*
X88173363Y-73348569D02*
X88649553Y-73348569D01*
X89411458Y-73824759D02*
X89078125Y-73824759D01*
X89078125Y-74348569D02*
X89078125Y-73348569D01*
X89078125Y-73348569D02*
X89554315Y-73348569D01*
X90078125Y-73348569D02*
X90078125Y-73586664D01*
X89840030Y-73491426D02*
X90078125Y-73586664D01*
X90078125Y-73586664D02*
X90316220Y-73491426D01*
X89935268Y-73777140D02*
X90078125Y-73586664D01*
X90078125Y-73586664D02*
X90220982Y-73777140D01*
X90840030Y-73348569D02*
X90840030Y-73586664D01*
X90601935Y-73491426D02*
X90840030Y-73586664D01*
X90840030Y-73586664D02*
X91078125Y-73491426D01*
X90697173Y-73777140D02*
X90840030Y-73586664D01*
X90840030Y-73586664D02*
X90982887Y-73777140D01*
X163944791Y-74348569D02*
X163611458Y-73872378D01*
X163373363Y-74348569D02*
X163373363Y-73348569D01*
X163373363Y-73348569D02*
X163754315Y-73348569D01*
X163754315Y-73348569D02*
X163849553Y-73396188D01*
X163849553Y-73396188D02*
X163897172Y-73443807D01*
X163897172Y-73443807D02*
X163944791Y-73539045D01*
X163944791Y-73539045D02*
X163944791Y-73681902D01*
X163944791Y-73681902D02*
X163897172Y-73777140D01*
X163897172Y-73777140D02*
X163849553Y-73824759D01*
X163849553Y-73824759D02*
X163754315Y-73872378D01*
X163754315Y-73872378D02*
X163373363Y-73872378D01*
X164373363Y-73824759D02*
X164706696Y-73824759D01*
X164849553Y-74348569D02*
X164373363Y-74348569D01*
X164373363Y-74348569D02*
X164373363Y-73348569D01*
X164373363Y-73348569D02*
X164849553Y-73348569D01*
X165611458Y-73824759D02*
X165278125Y-73824759D01*
X165278125Y-74348569D02*
X165278125Y-73348569D01*
X165278125Y-73348569D02*
X165754315Y-73348569D01*
X166278125Y-73348569D02*
X166278125Y-73586664D01*
X166040030Y-73491426D02*
X166278125Y-73586664D01*
X166278125Y-73586664D02*
X166516220Y-73491426D01*
X166135268Y-73777140D02*
X166278125Y-73586664D01*
X166278125Y-73586664D02*
X166420982Y-73777140D01*
X167040030Y-73348569D02*
X167040030Y-73586664D01*
X166801935Y-73491426D02*
X167040030Y-73586664D01*
X167040030Y-73586664D02*
X167278125Y-73491426D01*
X166897173Y-73777140D02*
X167040030Y-73586664D01*
X167040030Y-73586664D02*
X167182887Y-73777140D01*
X87744791Y-93398569D02*
X87411458Y-92922378D01*
X87173363Y-93398569D02*
X87173363Y-92398569D01*
X87173363Y-92398569D02*
X87554315Y-92398569D01*
X87554315Y-92398569D02*
X87649553Y-92446188D01*
X87649553Y-92446188D02*
X87697172Y-92493807D01*
X87697172Y-92493807D02*
X87744791Y-92589045D01*
X87744791Y-92589045D02*
X87744791Y-92731902D01*
X87744791Y-92731902D02*
X87697172Y-92827140D01*
X87697172Y-92827140D02*
X87649553Y-92874759D01*
X87649553Y-92874759D02*
X87554315Y-92922378D01*
X87554315Y-92922378D02*
X87173363Y-92922378D01*
X88173363Y-92874759D02*
X88506696Y-92874759D01*
X88649553Y-93398569D02*
X88173363Y-93398569D01*
X88173363Y-93398569D02*
X88173363Y-92398569D01*
X88173363Y-92398569D02*
X88649553Y-92398569D01*
X89411458Y-92874759D02*
X89078125Y-92874759D01*
X89078125Y-93398569D02*
X89078125Y-92398569D01*
X89078125Y-92398569D02*
X89554315Y-92398569D01*
X90078125Y-92398569D02*
X90078125Y-92636664D01*
X89840030Y-92541426D02*
X90078125Y-92636664D01*
X90078125Y-92636664D02*
X90316220Y-92541426D01*
X89935268Y-92827140D02*
X90078125Y-92636664D01*
X90078125Y-92636664D02*
X90220982Y-92827140D01*
X90840030Y-92398569D02*
X90840030Y-92636664D01*
X90601935Y-92541426D02*
X90840030Y-92636664D01*
X90840030Y-92636664D02*
X91078125Y-92541426D01*
X90697173Y-92827140D02*
X90840030Y-92636664D01*
X90840030Y-92636664D02*
X90982887Y-92827140D01*
X188164791Y-81111069D02*
X188164791Y-81825354D01*
X188164791Y-81825354D02*
X188117172Y-81968211D01*
X188117172Y-81968211D02*
X188021934Y-82063450D01*
X188021934Y-82063450D02*
X187879077Y-82111069D01*
X187879077Y-82111069D02*
X187783839Y-82111069D01*
X189164791Y-82111069D02*
X188593363Y-82111069D01*
X188879077Y-82111069D02*
X188879077Y-81111069D01*
X188879077Y-81111069D02*
X188783839Y-81253926D01*
X188783839Y-81253926D02*
X188688601Y-81349164D01*
X188688601Y-81349164D02*
X188593363Y-81396783D01*
X163944791Y-93398569D02*
X163611458Y-92922378D01*
X163373363Y-93398569D02*
X163373363Y-92398569D01*
X163373363Y-92398569D02*
X163754315Y-92398569D01*
X163754315Y-92398569D02*
X163849553Y-92446188D01*
X163849553Y-92446188D02*
X163897172Y-92493807D01*
X163897172Y-92493807D02*
X163944791Y-92589045D01*
X163944791Y-92589045D02*
X163944791Y-92731902D01*
X163944791Y-92731902D02*
X163897172Y-92827140D01*
X163897172Y-92827140D02*
X163849553Y-92874759D01*
X163849553Y-92874759D02*
X163754315Y-92922378D01*
X163754315Y-92922378D02*
X163373363Y-92922378D01*
X164373363Y-92874759D02*
X164706696Y-92874759D01*
X164849553Y-93398569D02*
X164373363Y-93398569D01*
X164373363Y-93398569D02*
X164373363Y-92398569D01*
X164373363Y-92398569D02*
X164849553Y-92398569D01*
X165611458Y-92874759D02*
X165278125Y-92874759D01*
X165278125Y-93398569D02*
X165278125Y-92398569D01*
X165278125Y-92398569D02*
X165754315Y-92398569D01*
X166278125Y-92398569D02*
X166278125Y-92636664D01*
X166040030Y-92541426D02*
X166278125Y-92636664D01*
X166278125Y-92636664D02*
X166516220Y-92541426D01*
X166135268Y-92827140D02*
X166278125Y-92636664D01*
X166278125Y-92636664D02*
X166420982Y-92827140D01*
X167040030Y-92398569D02*
X167040030Y-92636664D01*
X166801935Y-92541426D02*
X167040030Y-92636664D01*
X167040030Y-92636664D02*
X167278125Y-92541426D01*
X166897173Y-92827140D02*
X167040030Y-92636664D01*
X167040030Y-92636664D02*
X167182887Y-92827140D01*
X202679134Y-98841964D02*
X202726753Y-98699107D01*
X202726753Y-98699107D02*
X202774372Y-98651488D01*
X202774372Y-98651488D02*
X202869610Y-98603869D01*
X202869610Y-98603869D02*
X203012467Y-98603869D01*
X203012467Y-98603869D02*
X203107705Y-98651488D01*
X203107705Y-98651488D02*
X203155325Y-98699107D01*
X203155325Y-98699107D02*
X203202944Y-98794345D01*
X203202944Y-98794345D02*
X203202944Y-99175297D01*
X203202944Y-99175297D02*
X202202944Y-99175297D01*
X202202944Y-99175297D02*
X202202944Y-98841964D01*
X202202944Y-98841964D02*
X202250563Y-98746726D01*
X202250563Y-98746726D02*
X202298182Y-98699107D01*
X202298182Y-98699107D02*
X202393420Y-98651488D01*
X202393420Y-98651488D02*
X202488658Y-98651488D01*
X202488658Y-98651488D02*
X202583896Y-98699107D01*
X202583896Y-98699107D02*
X202631515Y-98746726D01*
X202631515Y-98746726D02*
X202679134Y-98841964D01*
X202679134Y-98841964D02*
X202679134Y-99175297D01*
X202202944Y-98318154D02*
X202202944Y-97746726D01*
X203202944Y-98032440D02*
X202202944Y-98032440D01*
X203202944Y-96889583D02*
X203202944Y-97461011D01*
X203202944Y-97175297D02*
X202202944Y-97175297D01*
X202202944Y-97175297D02*
X202345801Y-97270535D01*
X202345801Y-97270535D02*
X202441039Y-97365773D01*
X202441039Y-97365773D02*
X202488658Y-97461011D01*
D11*
%TO.C,K8*%
X149253125Y-81618750D02*
X149253125Y-80618750D01*
X149253125Y-93618750D02*
X149253125Y-92618750D01*
X149253125Y-93618750D02*
X150253125Y-93618750D01*
X150253125Y-80618750D02*
X149253125Y-80618750D01*
D12*
X157863125Y-80968750D02*
X153853125Y-80968750D01*
X157863125Y-82968750D02*
X153853125Y-82968750D01*
X157863125Y-82968750D02*
X157863125Y-80968750D01*
D11*
X161253125Y-93618750D02*
X162253125Y-93618750D01*
X162253125Y-80618750D02*
X161253125Y-80618750D01*
X162253125Y-80618750D02*
X162253125Y-81618750D01*
X162253125Y-92618750D02*
X162253125Y-93618750D01*
%TO.C,K7*%
X168303125Y-81618750D02*
X168303125Y-80618750D01*
X168303125Y-93618750D02*
X168303125Y-92618750D01*
X168303125Y-93618750D02*
X169303125Y-93618750D01*
X169303125Y-80618750D02*
X168303125Y-80618750D01*
D12*
X176913125Y-80968750D02*
X172903125Y-80968750D01*
X176913125Y-82968750D02*
X172903125Y-82968750D01*
X176913125Y-82968750D02*
X176913125Y-80968750D01*
D11*
X180303125Y-93618750D02*
X181303125Y-93618750D01*
X181303125Y-80618750D02*
X180303125Y-80618750D01*
X181303125Y-80618750D02*
X181303125Y-81618750D01*
X181303125Y-92618750D02*
X181303125Y-93618750D01*
%TO.C,K15*%
X130203125Y-91143750D02*
X130203125Y-90143750D01*
X130203125Y-103143750D02*
X130203125Y-102143750D01*
X130203125Y-103143750D02*
X131203125Y-103143750D01*
X131203125Y-90143750D02*
X130203125Y-90143750D01*
D12*
X138813125Y-90493750D02*
X134803125Y-90493750D01*
X138813125Y-92493750D02*
X134803125Y-92493750D01*
X138813125Y-92493750D02*
X138813125Y-90493750D01*
D11*
X142203125Y-103143750D02*
X143203125Y-103143750D01*
X143203125Y-90143750D02*
X142203125Y-90143750D01*
X143203125Y-90143750D02*
X143203125Y-91143750D01*
X143203125Y-102143750D02*
X143203125Y-103143750D01*
%TO.C,K19*%
X182590625Y-119718750D02*
X182590625Y-118718750D01*
X182590625Y-131718750D02*
X182590625Y-130718750D01*
X182590625Y-131718750D02*
X183590625Y-131718750D01*
X183590625Y-118718750D02*
X182590625Y-118718750D01*
D12*
X191200625Y-119068750D02*
X187190625Y-119068750D01*
X191200625Y-121068750D02*
X187190625Y-121068750D01*
X191200625Y-121068750D02*
X191200625Y-119068750D01*
D11*
X194590625Y-131718750D02*
X195590625Y-131718750D01*
X195590625Y-118718750D02*
X194590625Y-118718750D01*
X195590625Y-118718750D02*
X195590625Y-119718750D01*
X195590625Y-130718750D02*
X195590625Y-131718750D01*
%TO.C,K20*%
X163540625Y-119718750D02*
X163540625Y-118718750D01*
X163540625Y-131718750D02*
X163540625Y-130718750D01*
X163540625Y-131718750D02*
X164540625Y-131718750D01*
X164540625Y-118718750D02*
X163540625Y-118718750D01*
D12*
X172150625Y-119068750D02*
X168140625Y-119068750D01*
X172150625Y-121068750D02*
X168140625Y-121068750D01*
X172150625Y-121068750D02*
X172150625Y-119068750D01*
D11*
X175540625Y-131718750D02*
X176540625Y-131718750D01*
X176540625Y-118718750D02*
X175540625Y-118718750D01*
X176540625Y-118718750D02*
X176540625Y-119718750D01*
X176540625Y-130718750D02*
X176540625Y-131718750D01*
%TO.C,K4*%
X111153125Y-57806250D02*
X111153125Y-56806250D01*
X111153125Y-69806250D02*
X111153125Y-68806250D01*
X111153125Y-69806250D02*
X112153125Y-69806250D01*
X112153125Y-56806250D02*
X111153125Y-56806250D01*
D12*
X119763125Y-57156250D02*
X115753125Y-57156250D01*
X119763125Y-59156250D02*
X115753125Y-59156250D01*
X119763125Y-59156250D02*
X119763125Y-57156250D01*
D11*
X123153125Y-69806250D02*
X124153125Y-69806250D01*
X124153125Y-56806250D02*
X123153125Y-56806250D01*
X124153125Y-56806250D02*
X124153125Y-57806250D01*
X124153125Y-68806250D02*
X124153125Y-69806250D01*
%TO.C,K13*%
X168303125Y-100668750D02*
X168303125Y-99668750D01*
X168303125Y-112668750D02*
X168303125Y-111668750D01*
X168303125Y-112668750D02*
X169303125Y-112668750D01*
X169303125Y-99668750D02*
X168303125Y-99668750D01*
D12*
X176913125Y-100018750D02*
X172903125Y-100018750D01*
X176913125Y-102018750D02*
X172903125Y-102018750D01*
X176913125Y-102018750D02*
X176913125Y-100018750D01*
D11*
X180303125Y-112668750D02*
X181303125Y-112668750D01*
X181303125Y-99668750D02*
X180303125Y-99668750D01*
X181303125Y-99668750D02*
X181303125Y-100668750D01*
X181303125Y-111668750D02*
X181303125Y-112668750D01*
%TO.C,K6*%
X73053125Y-62568750D02*
X73053125Y-61568750D01*
X73053125Y-74568750D02*
X73053125Y-73568750D01*
X73053125Y-74568750D02*
X74053125Y-74568750D01*
X74053125Y-61568750D02*
X73053125Y-61568750D01*
D12*
X81663125Y-61918750D02*
X77653125Y-61918750D01*
X81663125Y-63918750D02*
X77653125Y-63918750D01*
X81663125Y-63918750D02*
X81663125Y-61918750D01*
D11*
X85053125Y-74568750D02*
X86053125Y-74568750D01*
X86053125Y-61568750D02*
X85053125Y-61568750D01*
X86053125Y-61568750D02*
X86053125Y-62568750D01*
X86053125Y-73568750D02*
X86053125Y-74568750D01*
%TO.C,K14*%
X149253125Y-100668750D02*
X149253125Y-99668750D01*
X149253125Y-112668750D02*
X149253125Y-111668750D01*
X149253125Y-112668750D02*
X150253125Y-112668750D01*
X150253125Y-99668750D02*
X149253125Y-99668750D01*
D12*
X157863125Y-100018750D02*
X153853125Y-100018750D01*
X157863125Y-102018750D02*
X153853125Y-102018750D01*
X157863125Y-102018750D02*
X157863125Y-100018750D01*
D11*
X161253125Y-112668750D02*
X162253125Y-112668750D01*
X162253125Y-99668750D02*
X161253125Y-99668750D01*
X162253125Y-99668750D02*
X162253125Y-100668750D01*
X162253125Y-111668750D02*
X162253125Y-112668750D01*
%TO.C,K16*%
X111153125Y-95906250D02*
X111153125Y-94906250D01*
X111153125Y-107906250D02*
X111153125Y-106906250D01*
X111153125Y-107906250D02*
X112153125Y-107906250D01*
X112153125Y-94906250D02*
X111153125Y-94906250D01*
D12*
X119763125Y-95256250D02*
X115753125Y-95256250D01*
X119763125Y-97256250D02*
X115753125Y-97256250D01*
X119763125Y-97256250D02*
X119763125Y-95256250D01*
D11*
X123153125Y-107906250D02*
X124153125Y-107906250D01*
X124153125Y-94906250D02*
X123153125Y-94906250D01*
X124153125Y-94906250D02*
X124153125Y-95906250D01*
X124153125Y-106906250D02*
X124153125Y-107906250D01*
%TO.C,K11*%
X92103125Y-81618750D02*
X92103125Y-80618750D01*
X92103125Y-93618750D02*
X92103125Y-92618750D01*
X92103125Y-93618750D02*
X93103125Y-93618750D01*
X93103125Y-80618750D02*
X92103125Y-80618750D01*
D12*
X100713125Y-80968750D02*
X96703125Y-80968750D01*
X100713125Y-82968750D02*
X96703125Y-82968750D01*
X100713125Y-82968750D02*
X100713125Y-80968750D01*
D11*
X104103125Y-93618750D02*
X105103125Y-93618750D01*
X105103125Y-80618750D02*
X104103125Y-80618750D01*
X105103125Y-80618750D02*
X105103125Y-81618750D01*
X105103125Y-92618750D02*
X105103125Y-93618750D01*
%TO.C,K10*%
X111153125Y-76856250D02*
X111153125Y-75856250D01*
X111153125Y-88856250D02*
X111153125Y-87856250D01*
X111153125Y-88856250D02*
X112153125Y-88856250D01*
X112153125Y-75856250D02*
X111153125Y-75856250D01*
D12*
X119763125Y-76206250D02*
X115753125Y-76206250D01*
X119763125Y-78206250D02*
X115753125Y-78206250D01*
X119763125Y-78206250D02*
X119763125Y-76206250D01*
D11*
X123153125Y-88856250D02*
X124153125Y-88856250D01*
X124153125Y-75856250D02*
X123153125Y-75856250D01*
X124153125Y-75856250D02*
X124153125Y-76856250D01*
X124153125Y-87856250D02*
X124153125Y-88856250D01*
%TO.C,K18*%
X73053125Y-100668750D02*
X73053125Y-99668750D01*
X73053125Y-112668750D02*
X73053125Y-111668750D01*
X73053125Y-112668750D02*
X74053125Y-112668750D01*
X74053125Y-99668750D02*
X73053125Y-99668750D01*
D12*
X81663125Y-100018750D02*
X77653125Y-100018750D01*
X81663125Y-102018750D02*
X77653125Y-102018750D01*
X81663125Y-102018750D02*
X81663125Y-100018750D01*
D11*
X85053125Y-112668750D02*
X86053125Y-112668750D01*
X86053125Y-99668750D02*
X85053125Y-99668750D01*
X86053125Y-99668750D02*
X86053125Y-100668750D01*
X86053125Y-111668750D02*
X86053125Y-112668750D01*
%TO.C,K9*%
X130203125Y-72093750D02*
X130203125Y-71093750D01*
X130203125Y-84093750D02*
X130203125Y-83093750D01*
X130203125Y-84093750D02*
X131203125Y-84093750D01*
X131203125Y-71093750D02*
X130203125Y-71093750D01*
D12*
X138813125Y-71443750D02*
X134803125Y-71443750D01*
X138813125Y-73443750D02*
X134803125Y-73443750D01*
X138813125Y-73443750D02*
X138813125Y-71443750D01*
D11*
X142203125Y-84093750D02*
X143203125Y-84093750D01*
X143203125Y-71093750D02*
X142203125Y-71093750D01*
X143203125Y-71093750D02*
X143203125Y-72093750D01*
X143203125Y-83093750D02*
X143203125Y-84093750D01*
%TO.C,K2*%
X149253125Y-62568750D02*
X149253125Y-61568750D01*
X149253125Y-74568750D02*
X149253125Y-73568750D01*
X149253125Y-74568750D02*
X150253125Y-74568750D01*
X150253125Y-61568750D02*
X149253125Y-61568750D01*
D12*
X157863125Y-61918750D02*
X153853125Y-61918750D01*
X157863125Y-63918750D02*
X153853125Y-63918750D01*
X157863125Y-63918750D02*
X157863125Y-61918750D01*
D11*
X161253125Y-74568750D02*
X162253125Y-74568750D01*
X162253125Y-61568750D02*
X161253125Y-61568750D01*
X162253125Y-61568750D02*
X162253125Y-62568750D01*
X162253125Y-73568750D02*
X162253125Y-74568750D01*
%TO.C,K21*%
X144490625Y-119718750D02*
X144490625Y-118718750D01*
X144490625Y-131718750D02*
X144490625Y-130718750D01*
X144490625Y-131718750D02*
X145490625Y-131718750D01*
X145490625Y-118718750D02*
X144490625Y-118718750D01*
D12*
X153100625Y-119068750D02*
X149090625Y-119068750D01*
X153100625Y-121068750D02*
X149090625Y-121068750D01*
X153100625Y-121068750D02*
X153100625Y-119068750D01*
D11*
X156490625Y-131718750D02*
X157490625Y-131718750D01*
X157490625Y-118718750D02*
X156490625Y-118718750D01*
X157490625Y-118718750D02*
X157490625Y-119718750D01*
X157490625Y-130718750D02*
X157490625Y-131718750D01*
%TO.C,K17*%
X92103125Y-100668750D02*
X92103125Y-99668750D01*
X92103125Y-112668750D02*
X92103125Y-111668750D01*
X92103125Y-112668750D02*
X93103125Y-112668750D01*
X93103125Y-99668750D02*
X92103125Y-99668750D01*
D12*
X100713125Y-100018750D02*
X96703125Y-100018750D01*
X100713125Y-102018750D02*
X96703125Y-102018750D01*
X100713125Y-102018750D02*
X100713125Y-100018750D01*
D11*
X104103125Y-112668750D02*
X105103125Y-112668750D01*
X105103125Y-99668750D02*
X104103125Y-99668750D01*
X105103125Y-99668750D02*
X105103125Y-100668750D01*
X105103125Y-111668750D02*
X105103125Y-112668750D01*
D12*
%TO.C,J1*%
X186018125Y-84756250D02*
X186018125Y-86666250D01*
X186018125Y-86666250D02*
X187928125Y-86666250D01*
X186328125Y-82756250D02*
X186328125Y-86356250D01*
X186328125Y-84306250D02*
X186628125Y-84306250D01*
X186328125Y-85056250D02*
X186628125Y-85056250D01*
X186328125Y-86356250D02*
X190678125Y-86356250D01*
X186628125Y-83206250D02*
X186928125Y-83206250D01*
X186628125Y-84306250D02*
X186628125Y-83206250D01*
X186628125Y-85056250D02*
X186628125Y-86056250D01*
X186628125Y-86056250D02*
X190378125Y-86056250D01*
X186928125Y-83206250D02*
X186928125Y-82756250D01*
X186928125Y-83206250D02*
X188128125Y-83206250D01*
X188128125Y-82906250D02*
X188878125Y-82906250D01*
X188128125Y-83206250D02*
X188128125Y-82906250D01*
X188878125Y-82906250D02*
X188878125Y-83206250D01*
X188878125Y-83206250D02*
X190078125Y-83206250D01*
X190078125Y-83206250D02*
X190078125Y-82756250D01*
X190378125Y-83206250D02*
X190078125Y-83206250D01*
X190378125Y-84306250D02*
X190378125Y-83206250D01*
X190378125Y-85056250D02*
X190678125Y-85056250D01*
X190378125Y-86056250D02*
X190378125Y-85056250D01*
X190678125Y-82756250D02*
X186328125Y-82756250D01*
X190678125Y-84306250D02*
X190378125Y-84306250D01*
X190678125Y-86356250D02*
X190678125Y-82756250D01*
D11*
%TO.C,K12*%
X73053125Y-81618750D02*
X73053125Y-80618750D01*
X73053125Y-93618750D02*
X73053125Y-92618750D01*
X73053125Y-93618750D02*
X74053125Y-93618750D01*
X74053125Y-80618750D02*
X73053125Y-80618750D01*
D12*
X81663125Y-80968750D02*
X77653125Y-80968750D01*
X81663125Y-82968750D02*
X77653125Y-82968750D01*
X81663125Y-82968750D02*
X81663125Y-80968750D01*
D11*
X85053125Y-93618750D02*
X86053125Y-93618750D01*
X86053125Y-80618750D02*
X85053125Y-80618750D01*
X86053125Y-80618750D02*
X86053125Y-81618750D01*
X86053125Y-92618750D02*
X86053125Y-93618750D01*
%TO.C,K1*%
X168303125Y-62568750D02*
X168303125Y-61568750D01*
X168303125Y-74568750D02*
X168303125Y-73568750D01*
X168303125Y-74568750D02*
X169303125Y-74568750D01*
X169303125Y-61568750D02*
X168303125Y-61568750D01*
D12*
X176913125Y-61918750D02*
X172903125Y-61918750D01*
X176913125Y-63918750D02*
X172903125Y-63918750D01*
X176913125Y-63918750D02*
X176913125Y-61918750D01*
D11*
X180303125Y-74568750D02*
X181303125Y-74568750D01*
X181303125Y-61568750D02*
X180303125Y-61568750D01*
X181303125Y-61568750D02*
X181303125Y-62568750D01*
X181303125Y-73568750D02*
X181303125Y-74568750D01*
%TO.C,K5*%
X92103125Y-62568750D02*
X92103125Y-61568750D01*
X92103125Y-74568750D02*
X92103125Y-73568750D01*
X92103125Y-74568750D02*
X93103125Y-74568750D01*
X93103125Y-61568750D02*
X92103125Y-61568750D01*
D12*
X100713125Y-61918750D02*
X96703125Y-61918750D01*
X100713125Y-63918750D02*
X96703125Y-63918750D01*
X100713125Y-63918750D02*
X100713125Y-61918750D01*
D11*
X104103125Y-74568750D02*
X105103125Y-74568750D01*
X105103125Y-61568750D02*
X104103125Y-61568750D01*
X105103125Y-61568750D02*
X105103125Y-62568750D01*
X105103125Y-73568750D02*
X105103125Y-74568750D01*
%TO.C,K3*%
X130203125Y-53043750D02*
X130203125Y-52043750D01*
X130203125Y-65043750D02*
X130203125Y-64043750D01*
X130203125Y-65043750D02*
X131203125Y-65043750D01*
X131203125Y-52043750D02*
X130203125Y-52043750D01*
D12*
X138813125Y-52393750D02*
X134803125Y-52393750D01*
X138813125Y-54393750D02*
X134803125Y-54393750D01*
X138813125Y-54393750D02*
X138813125Y-52393750D01*
D11*
X142203125Y-65043750D02*
X143203125Y-65043750D01*
X143203125Y-52043750D02*
X142203125Y-52043750D01*
X143203125Y-52043750D02*
X143203125Y-53043750D01*
X143203125Y-64043750D02*
X143203125Y-65043750D01*
%TD*%
M02*
