%TF.GenerationSoftware,KiCad,Pcbnew,7.0.6*%
%TF.CreationDate,2023-09-12T11:18:07+08:00*%
%TF.ProjectId,kbv2,6b627632-2e6b-4696-9361-645f70636258,rev?*%
%TF.SameCoordinates,Original*%
%TF.FileFunction,Soldermask,Top*%
%TF.FilePolarity,Negative*%
%FSLAX46Y46*%
G04 Gerber Fmt 4.6, Leading zero omitted, Abs format (unit mm)*
G04 Created by KiCad (PCBNEW 7.0.6) date 2023-09-12 11:18:07*
%MOMM*%
%LPD*%
G01*
G04 APERTURE LIST*
G04 Aperture macros list*
%AMRoundRect*
0 Rectangle with rounded corners*
0 $1 Rounding radius*
0 $2 $3 $4 $5 $6 $7 $8 $9 X,Y pos of 4 corners*
0 Add a 4 corners polygon primitive as box body*
4,1,4,$2,$3,$4,$5,$6,$7,$8,$9,$2,$3,0*
0 Add four circle primitives for the rounded corners*
1,1,$1+$1,$2,$3*
1,1,$1+$1,$4,$5*
1,1,$1+$1,$6,$7*
1,1,$1+$1,$8,$9*
0 Add four rect primitives between the rounded corners*
20,1,$1+$1,$2,$3,$4,$5,0*
20,1,$1+$1,$4,$5,$6,$7,0*
20,1,$1+$1,$6,$7,$8,$9,0*
20,1,$1+$1,$8,$9,$2,$3,0*%
G04 Aperture macros list end*
%ADD10C,5.250000*%
%ADD11C,2.500000*%
%ADD12RoundRect,0.225000X-0.225000X-0.375000X0.225000X-0.375000X0.225000X0.375000X-0.225000X0.375000X0*%
%ADD13C,2.700000*%
%ADD14O,2.750000X1.800000*%
%ADD15C,1.397000*%
%ADD16RoundRect,0.225000X-0.225000X-0.475000X0.225000X-0.475000X0.225000X0.475000X-0.225000X0.475000X0*%
%ADD17O,0.900000X1.400000*%
%ADD18R,2.800000X5.700000*%
%ADD19R,3.800000X3.500000*%
G04 APERTURE END LIST*
D10*
%TO.C,K8*%
X155753125Y-87118750D03*
D11*
X151353125Y-91818750D03*
X153153125Y-92868750D03*
X158353125Y-92868750D03*
X160153125Y-91818750D03*
D12*
X157153125Y-81968750D03*
X153853125Y-81968750D03*
%TD*%
D10*
%TO.C,K7*%
X174803125Y-87118750D03*
D11*
X170403125Y-91818750D03*
X172203125Y-92868750D03*
X177403125Y-92868750D03*
X179203125Y-91818750D03*
D12*
X176203125Y-81968750D03*
X172903125Y-81968750D03*
%TD*%
D10*
%TO.C,K15*%
X136703125Y-96643750D03*
D11*
X132303125Y-101343750D03*
X134103125Y-102393750D03*
X139303125Y-102393750D03*
X141103125Y-101343750D03*
D12*
X138103125Y-91493750D03*
X134803125Y-91493750D03*
%TD*%
D10*
%TO.C,K19*%
X189090625Y-125218750D03*
D11*
X184690625Y-129918750D03*
X186490625Y-130968750D03*
X191690625Y-130968750D03*
X193490625Y-129918750D03*
D12*
X190490625Y-120068750D03*
X187190625Y-120068750D03*
%TD*%
D10*
%TO.C,K20*%
X170040625Y-125218750D03*
D11*
X165640625Y-129918750D03*
X167440625Y-130968750D03*
X172640625Y-130968750D03*
X174440625Y-129918750D03*
D12*
X171440625Y-120068750D03*
X168140625Y-120068750D03*
%TD*%
D13*
%TO.C,REF\u002A\u002A*%
X89078125Y-77593750D03*
%TD*%
D10*
%TO.C,K4*%
X117653125Y-63306250D03*
D11*
X113253125Y-68006250D03*
X115053125Y-69056250D03*
X120253125Y-69056250D03*
X122053125Y-68006250D03*
D12*
X119053125Y-58156250D03*
X115753125Y-58156250D03*
%TD*%
D10*
%TO.C,K13*%
X174803125Y-106168750D03*
D11*
X170403125Y-110868750D03*
X172203125Y-111918750D03*
X177403125Y-111918750D03*
X179203125Y-110868750D03*
D12*
X176203125Y-101018750D03*
X172903125Y-101018750D03*
%TD*%
D10*
%TO.C,K6*%
X79553125Y-68068750D03*
D11*
X75153125Y-72768750D03*
X76953125Y-73818750D03*
X82153125Y-73818750D03*
X83953125Y-72768750D03*
D12*
X80953125Y-62918750D03*
X77653125Y-62918750D03*
%TD*%
D10*
%TO.C,K14*%
X155753125Y-106168750D03*
D11*
X151353125Y-110868750D03*
X153153125Y-111918750D03*
X158353125Y-111918750D03*
X160153125Y-110868750D03*
D12*
X157153125Y-101018750D03*
X153853125Y-101018750D03*
%TD*%
D14*
%TO.C,U1*%
X186033165Y-63436250D03*
X186033165Y-65976250D03*
X186033165Y-68516250D03*
X186033165Y-71056250D03*
X186033165Y-73596250D03*
X186033165Y-76136250D03*
X186033165Y-78676250D03*
X202223085Y-78676250D03*
X202223085Y-76136250D03*
X202223085Y-73596250D03*
X202223085Y-71056250D03*
X202223085Y-68516250D03*
X202223085Y-65976250D03*
X202223085Y-63436250D03*
D15*
X192858125Y-62484250D03*
X195398125Y-62484250D03*
X192858125Y-65024250D03*
X195398125Y-65024250D03*
X189683125Y-70739250D03*
X198573125Y-70739250D03*
X189683125Y-68834250D03*
X198573125Y-68834250D03*
X190318125Y-80264250D03*
X197938125Y-80264250D03*
X188413125Y-80264250D03*
X199843125Y-80264250D03*
%TD*%
D10*
%TO.C,K16*%
X117653125Y-101406250D03*
D11*
X113253125Y-106106250D03*
X115053125Y-107156250D03*
X120253125Y-107156250D03*
X122053125Y-106106250D03*
D12*
X119053125Y-96256250D03*
X115753125Y-96256250D03*
%TD*%
D10*
%TO.C,K11*%
X98603125Y-87118750D03*
D11*
X94203125Y-91818750D03*
X96003125Y-92868750D03*
X101203125Y-92868750D03*
X103003125Y-91818750D03*
D12*
X100003125Y-81968750D03*
X96703125Y-81968750D03*
%TD*%
D10*
%TO.C,K10*%
X117653125Y-82356250D03*
D11*
X113253125Y-87056250D03*
X115053125Y-88106250D03*
X120253125Y-88106250D03*
X122053125Y-87056250D03*
D12*
X119053125Y-77206250D03*
X115753125Y-77206250D03*
%TD*%
D13*
%TO.C,REF\u002A\u002A*%
X165278125Y-77593750D03*
%TD*%
D10*
%TO.C,K18*%
X79553125Y-106168750D03*
D11*
X75153125Y-110868750D03*
X76953125Y-111918750D03*
X82153125Y-111918750D03*
X83953125Y-110868750D03*
D12*
X80953125Y-101018750D03*
X77653125Y-101018750D03*
%TD*%
D10*
%TO.C,K9*%
X136703125Y-77593750D03*
D11*
X132303125Y-82293750D03*
X134103125Y-83343750D03*
X139303125Y-83343750D03*
X141103125Y-82293750D03*
D12*
X138103125Y-72443750D03*
X134803125Y-72443750D03*
%TD*%
D10*
%TO.C,K2*%
X155753125Y-68068750D03*
D11*
X151353125Y-72768750D03*
X153153125Y-73818750D03*
X158353125Y-73818750D03*
X160153125Y-72768750D03*
D12*
X157153125Y-62918750D03*
X153853125Y-62918750D03*
%TD*%
D10*
%TO.C,K21*%
X150990625Y-125218750D03*
D11*
X146590625Y-129918750D03*
X148390625Y-130968750D03*
X153590625Y-130968750D03*
X155390625Y-129918750D03*
D12*
X152390625Y-120068750D03*
X149090625Y-120068750D03*
%TD*%
D13*
%TO.C,REF\u002A\u002A*%
X89078125Y-96643750D03*
%TD*%
D10*
%TO.C,K17*%
X98603125Y-106168750D03*
D11*
X94203125Y-110868750D03*
X96003125Y-111918750D03*
X101203125Y-111918750D03*
X103003125Y-110868750D03*
D12*
X100003125Y-101018750D03*
X96703125Y-101018750D03*
%TD*%
D16*
%TO.C,J1*%
X187878125Y-85056250D03*
D17*
X189128125Y-85056250D03*
%TD*%
D10*
%TO.C,K12*%
X79553125Y-87118750D03*
D11*
X75153125Y-91818750D03*
X76953125Y-92868750D03*
X82153125Y-92868750D03*
X83953125Y-91818750D03*
D12*
X80953125Y-81968750D03*
X77653125Y-81968750D03*
%TD*%
D13*
%TO.C,REF\u002A\u002A*%
X165278125Y-96643750D03*
%TD*%
D10*
%TO.C,K1*%
X174803125Y-68068750D03*
D11*
X170403125Y-72768750D03*
X172203125Y-73818750D03*
X177403125Y-73818750D03*
X179203125Y-72768750D03*
D12*
X176203125Y-62918750D03*
X172903125Y-62918750D03*
%TD*%
D18*
%TO.C,BT1*%
X195128125Y-107556250D03*
D19*
X195128125Y-85056250D03*
%TD*%
D10*
%TO.C,K5*%
X98603125Y-68068750D03*
D11*
X94203125Y-72768750D03*
X96003125Y-73818750D03*
X101203125Y-73818750D03*
X103003125Y-72768750D03*
D12*
X100003125Y-62918750D03*
X96703125Y-62918750D03*
%TD*%
D10*
%TO.C,K3*%
X136703125Y-58543750D03*
D11*
X132303125Y-63243750D03*
X134103125Y-64293750D03*
X139303125Y-64293750D03*
X141103125Y-63243750D03*
D12*
X138103125Y-53393750D03*
X134803125Y-53393750D03*
%TD*%
M02*
