%TF.GenerationSoftware,KiCad,Pcbnew,7.0.6*%
%TF.CreationDate,2023-09-12T11:18:07+08:00*%
%TF.ProjectId,kbv2,6b627632-2e6b-4696-9361-645f70636258,rev?*%
%TF.SameCoordinates,Original*%
%TF.FileFunction,Profile,NP*%
%FSLAX46Y46*%
G04 Gerber Fmt 4.6, Leading zero omitted, Abs format (unit mm)*
G04 Created by KiCad (PCBNEW 7.0.6) date 2023-09-12 11:18:07*
%MOMM*%
%LPD*%
G01*
G04 APERTURE LIST*
%TA.AperFunction,Profile*%
%ADD10C,0.100000*%
%TD*%
G04 APERTURE END LIST*
D10*
X125193750Y-104184375D02*
X125193750Y-108946875D01*
X72012500Y-60528125D02*
X106143750Y-60528125D01*
X148212500Y-60528125D02*
X204568750Y-60528125D01*
X125193750Y-55765625D02*
X129162500Y-55765625D01*
X106143750Y-108946875D02*
X106143750Y-113709375D01*
X129162500Y-51003125D02*
X144243750Y-51003125D01*
X148212500Y-104184375D02*
X144243750Y-104184375D01*
X204568750Y-109343750D02*
X196631250Y-117678125D01*
X196631250Y-117678125D02*
X196631250Y-132759375D01*
X148212500Y-117678125D02*
X148212500Y-104184375D01*
X129162500Y-104184375D02*
X125193750Y-104184375D01*
X91062500Y-113709375D02*
X72012500Y-113709375D01*
X129162500Y-55765625D02*
X129162500Y-51003125D01*
X72012500Y-113709375D02*
X72012500Y-60528125D01*
X204568750Y-60528125D02*
X204568750Y-109343750D01*
X110112500Y-55765625D02*
X125193750Y-55765625D01*
X143450000Y-132759375D02*
X143450000Y-117678125D01*
X144243750Y-104184375D02*
X129162500Y-104184375D01*
X106143750Y-60528125D02*
X110112500Y-60528125D01*
X144243750Y-51003125D02*
X144243750Y-60528125D01*
X110112500Y-108946875D02*
X106143750Y-108946875D01*
X143450000Y-117678125D02*
X148212500Y-117678125D01*
X106143750Y-113709375D02*
X91062500Y-113709375D01*
X144243750Y-60528125D02*
X148212500Y-60528125D01*
X196631250Y-132759375D02*
X143450000Y-132759375D01*
X125193750Y-108946875D02*
X110112500Y-108946875D01*
X110112500Y-60528125D02*
X110112500Y-55765625D01*
M02*
